{
.appVersion = "3133";
.formatVersion = 3;
axes = (
{
name = Weight;
tag = wght;
},
{
name = Width;
tag = wdth;
}
);
customParameters = (
{
name = fsType;
value = (
);
},
{
name = "Use Typo Metrics";
value = 1;
},
{
name = "Axis Mappings";
value = {
wdth = {
75 = 75;
100 = 100;
};
wght = {
400 = 400;
500 = 470;
600 = 550;
700 = 650;
800 = 766;
900 = 900;
};
};
}
);
date = "2016-04-15 23:15:50 +0000";
familyName = Besley;
featurePrefixes = (
{
automatic = 1;
code = "languagesystem DFLT dflt;

languagesystem latn dflt;
languagesystem latn AZE;
languagesystem latn CRT;
languagesystem latn KAZ;
languagesystem latn TAT;
languagesystem latn TRK;
languagesystem latn ROM;
languagesystem latn MOL;
languagesystem latn CAT;
";
name = Languagesystems;
}
);
features = (
{
automatic = 1;
code = "feature locl;
feature sups;
feature frac;
feature ordn;
feature lnum;
feature pnum;
feature tnum;
feature onum;
feature c2sc;
feature smcp;
feature case;
";
tag = aalt;
},
{
automatic = 1;
code = "lookup ccmp_Other_1 {
	@CombiningTopAccents = [acutecomb brevecomb breveinvertedcomb caroncomb circumflexcomb commaturnedabovecomb dieresiscomb dotaccentcomb gravecomb hungarumlautcomb macroncomb ringcomb tildecomb];
	@CombiningNonTopAccents = [cedillacomb dotbelowcomb ogonekcomb];
	sub [i j]' @CombiningTopAccents by [idotless jdotless];
	sub [i j]' @CombiningNonTopAccents @CombiningTopAccents by [idotless jdotless];
} ccmp_Other_1;

lookup ccmp_latn_1 {
	sub fi by f i;
	sub fl by f l;
} ccmp_latn_1;

script latn;
lookup ccmp_latn_1;
";
tag = ccmp;
},
{
automatic = 1;
code = "lookup locl_latn_0 {
	script latn;
	language AZE;
	sub i by idotaccent;
	language CRT;
	sub i by idotaccent;
	language KAZ;
	sub i by idotaccent;
	language TAT;
	sub i by idotaccent;
	language TRK;
	sub i by idotaccent;
} locl_latn_0;

lookup locl_latn_1 {
	script latn;
	language ROM;
	sub Scedilla by Scommaaccent;
	sub scedilla by scommaaccent;
	sub Tcedilla by Tcommaaccent;
	sub tcedilla by tcommaaccent;
	language MOL;

glyphs = (
{
glyphname = A;
kernLeft = kc0_3;
kernRight = kc0_5;
lastChange = "2022-07-21 13:13:41 +0000";
layers = (
{
anchors = (
{
name = "Anchor-0";
pos = (1073,1500);
},
{
name = "Anchor-1";
pos = (686,0);
},
{
name = "Anchor-2";
pos = (686,0);
},
{
name = "Anchor-3";
pos = (1286,0);
}
);
layerId = "C788331E-5670-44D3-9D66-EAA382172B0D";
shapes = (
{
closed = 1;
nodes = (
(563,598,ls),
(543,566,o),
(515,550,o),
(578,550,cs),
(1076,550,ls),
(1127,550,o),
(1123,553,o),
(1116,596,cs),
(1021,1212,ls),
(1013,1264,o),
(1013,1284,o),
(998,1284,cs),
(987,1284,o),
(972,1248,o),
(947,1208,cs)
);
},
{
closed = 1;
nodes = (
(-100,72,ls),
(-100,101,o),
(-99,110,o),
(-70,110,cs),
(78,110,ls),
(115,110,o),
(115,122,o),
(129,144,cs),
(992,1502,ls),
(1004,1521,o),
(1009,1530,o),
(1043,1530,cs),
(1108,1530,ls),
(1144,1530,o),
(1151,1524,o),
(1156,1494,cs),
(1395,160,ls),
(1404,112,o),
(1413,110,o),
(1470,110,cs),
(1586,110,ls),
(1615,110,o),
(1620,104,o),
(1620,74,cs),
(1620,34,ls),
(1620,4,o),
(1613,0,o),
(1582,0,cs),
(1006,0,ls),
(980,0,o),
(980,7,o),
(980,33,cs),
(980,78,ls),
(980,110,o),
(987,110,o),
(1019,110,cs),
(1140,110,ls),
(1184,110,o),
(1190,113,o),
(1184,150,cs),
(1144,412,ls),
(1139,447,o),
(1124,440,o),
(1086,440,cs),
(512,440,ls),
(479,440,o),
(463,440,o),
(451,420,cs),
(278,144,ls),
(265,123,o),
(264,110,o),
(306,110,cs),
(426,110,ls),
(448,110,o),
(460,106,o),
(460,82,cs),
(460,38,ls),
(460,5,o),
(454,0,o),
(420,0,cs),
(-72,0,ls),
(-103,0,o),
(-100,4,o),
(-100,34,cs)
);
}
);
vertWidth = 0;
width = 1800;
},
{
anchors = (
{
name = "Anchor-0";
pos = (1198,1500);
},
{
name = "Anchor-1";
pos = (656,0);
},
{
name = "Anchor-2";
pos = (656,0);
},
{
name = "Anchor-3";
pos = (1396,0);
}
);
layerId = "166B8CC3-B8B2-42DF-8AC5-58EF4CD93FB2";
shapes = (
{
closed = 1;
nodes = (
(755,732,ls),
(728,691,o),
(710,670,o),
(794,670,cs),
(1002,670,ls),
(1061,670,o),
(1077,665,o),
(1067,718,cs),
(1018,988,ls),
(1007,1046,o),
(1016,1083,o),
(996,1083,cs),
(980,1083,o),
(962,1041,o),
(931,994,cs)
);
},
{
closed = 1;
nodes = (
(-120,236,ls),
(-120,266,o),
(-111,270,o),
(-80,270,cs),
(104,270,ls),
(145,270,o),
(145,279,o),
(161,302,cs),
(958,1482,ls),
(981,1516,o),
(981,1530,o),
(1040,1530,cs),
(1308,1530,ls),
(1398,1530,o),
(1392,1519,o),
(1407,1446,cs),
(1643,306,ls),
(1650,272,o),
(1649,270,o),
(1690,270,cs),
(1822,270,ls),
(1853,270,o),
(1860,265,o),
(1860,232,cs),
(1860,46,ls),
(1860,8,o),
(1857,0,o),
(1820,0,cs),
(984,0,ls),
(951,0,o),
(940,3,o),
(940,38,cs),
(940,206,ls),
(940,251,o),
(944,270,o),
(993,270,cs),
(1112,270,ls),
(1154,270,o),
(1149,274,o),
(1143,308,cs),
(1132,368,ls),
(1122,419,o),
(1111,420,o),
(1050,420,cs),
(608,420,ls),
(550,420,o),
(544,416,o),
(522,382,cs),
(474,310,ls),
(449,272,o),
(440,270,o),
(506,270,cs),
(558,270,ls),
(592,270,o),
(600,256,o),
(600,220,cs),
(600,56,ls),
(600,8,o),
(598,0,o),
(550,0,cs),
(-72,0,ls),
(-111,0,o),
(-120,1,o),
(-120,40,cs)
);
}
);
vertWidth = 0;
width = 2020;
},
{
anchors = (
{
name = "Anchor-0";
pos = (903,1500);
},
{
name = "Anchor-1";
pos = (486,0);
},
{
name = "Anchor-2";
pos = (1056,0);
},
{
name = "Anchor-3";
pos = (1056,0);
}
);
layerId = "6A50D5EA-2B4A-4D44-BCCC-14A16F5631EA";
shapes = (
{
closed = 1;
nodes = (
(548,735,ls),
(536,706,o),
(521,670,o),
(575,670,cs),
(636,670,ls),
(682,670,o),
(682,703,o),
(684,731,cs),
(704,1003,ls),
(705,1023,o),
(698,1030,o),
(690,1030,cs),
(679,1030,o),
(666,1016,o),
(659,999,cs)
);
},
{
closed = 1;
nodes = (
(-80,221,ls),
(-80,255,o),
(-72,270,o),
(-34,270,cs),
(51,270,ls),
(84,270,o),
(81,285,o),
(91,307,cs),
(623,1477,ls),
(637,1508,o),
(640,1510,o),
(686,1510,cs),
(1086,1510,ls),
(1133,1510,o),
(1151,1499,o),
(1152,1467,cs),
(1178,331,ls),
(1179,293,o),
(1188,270,o),
(1245,270,cs),
(1257,270,ls),
(1292,270,o),
(1310,270,o),
(1310,231,cs),
(1310,45,ls),
(1310,5,o),
(1304,0,o),
(1265,0,cs),
(571,0,ls),
(531,0,o),
(530,9,o),
(530,49,cs),
(530,227,ls),
(530,265,o),
(536,270,o),
(573,270,cs),
(607,270,ls),
(655,270,o),
(651,280,o),
(656,319,cs),
(664,387,ls),
(667,414,o),
(656,420,o),
(617,420,cs),
(470,420,ls),
(431,420,o),
(418,423,o),
(408,395,cs),
(378,313,ls),
(367,282,o),
(377,270,o),
(403,270,cs),
(407,270,ls),
(439,270,o),
(440,261,o),
(440,229,cs),
(440,37,ls),
(440,4,o),
(430,0,o),
(399,0,cs),
(-14,0,ls),
(-70,0,o),
(-80,1,o),
(-80,57,cs)
);
}
);
vertWidth = 0;
width = 1390;
},
{
anchors = (
{
name = "Anchor-0";
pos = (723,1500);
},
{
name = "Anchor-1";
pos = (436,0);
},
{
name = "Anchor-2";
pos = (436,0);
},
{
name = "Anchor-3";
pos = (826,0);
}
);
layerId = "5A070E73-1DB9-476B-9E26-8EFE8B60F44F";
shapes = (
{
closed = 1;
nodes = (
(329,598,ls),
(313.058,564.092,o),
(311,550,o),
(354,550,cs),
(666,550,ls),
(717,550,o),
(716.957,552.866,o),
(716,596,cs),
(701,1272,ls),
(699.843,1324.152,o),
(703,1346,o),
(688,1346,cs),
(677,1346,o),
(663.927,1310.385,o),
(644,1268,cs)
);
},
{
closed = 1;
nodes = (
(-150,72,ls),
(-150,101,o),
(-149,110,o),
(-120,110,cs),
(-72,110,ls),
(-35,110,o),
(-40,122,o),
(-26,144,cs),
(632,1482,ls),
(644,1501,o),
(649,1510,o),
(683,1510,cs),
(818,1510,ls),
(854,1510,o),
(861,1504,o),
(866,1474,cs),
(932,160,ls),
(934.428,111.67,o),
(960,110,o),
(997,110,cs),
(1013,110,ls),
(1042,110,o),
(1047,104,o),
(1047,74,cs),
(1047,34,ls),
(1047,4,o),
(1040,0,o),
(1009,0,cs),
(639,0,ls),
(613,0,o),
(613,7,o),
(613,33,cs),
(613,78,ls),
(613,110,o),
(620,110,o),
(652,110,cs),
(693,110,ls),
(727,110,o),
(738.92,112.79,o),
(737,150,cs),
(724,402,ls),
(722.255,437.161,o),
(704,440,o),
(666,440,cs),
(302,440,ls),
(269,440,o),
(250,440,o),
(238,420,cs),
(105,144,ls),
(94.338,121.874,o),
(103,110,o),
(145,110,cs),
(176,110,ls),
(198,110,o),
(210,106,o),
(210,82,cs),
(210,38,ls),
(210,5,o),
(204,0,o),
(170,0,cs),
(-122,0,ls),
(-153,0,o),
(-150,4,o),
(-150,34,cs)
);
}
);
vertWidth = 0;
width = 1210;
},
{
associatedMasterId = "5A070E73-1DB9-476B-9E26-8EFE8B60F44F";
layerId = "1A7DC7E0-46E8-4C67-9D3F-F5B2D2647261";
name = Back;
shapes = (
{
closed = 1;
nodes = (
(318,578,ls),
(307,554,o),
(304,550,o),
(340,550,cs),
(666,550,ls),
(707,550,o),
(715,552,o),
(714,596,cs),
(700,1316,ls),
(699,1357,o),
(686,1357,o),
(669,1322,cs)
);
},
{
closed = 1;
nodes = (
(-151,84,ls),
(-147,104,o),
(-140,110,o),
(-118,110,cs),
(-92,110,ls),
(-50,110,o),
(-36,121,o),
(-22,150,cs),
(641,1500,ls),
(647,1509,o),
(651,1510,o),
(664,1510,cs),
(844,1510,ls),
(860,1510,o),
(865,1509,o),
(867,1498,cs),
(932,154,ls),
(934,121,o),
(932,110,o),
(978,110,cs),
(1036,110,ls),
(1063,110,o),
(1064,106,o),
(1058,79,cs),
(1048,35,ls),
(1041,4,o),
(1039,0,o),
(1008,0,cs),
(628,0,ls),
(602,0,o),
(591,3,o),
(597,32,cs),
(607,78,ls),
(613,106,o),
(624,110,o),
(650,110,cs),
(712,110,ls),
(734,110,o),
(738,127,o),
(737,146,cs),
(727,386,ls),
(725,431,o),
(724,440,o),
(660,440,cs),
(305,440,ls),
(259,440,o),
(244,432,o),
(229,400,cs),
(111,158,ls),
(95,125,o),
(97,110,o),
(131,110,cs),
(182,110,ls),
(206,110,o),
(214,105,o),
(208,80,cs),
(197,32,ls),
(190,0,o),
(190,0,o),
(158,0,cs),
(-120,0,ls),
(-157,0,o),
(-170,2,o),
(-161,42,cs)
);
}
);
vertWidth = 0;
width = 1210;
}
);
unicode = 65;
},
{
glyphname = AE;
kernLeft = kc0_3;
lastChange = "2022-07-21 13:13:41 +0000";
layers = (
{
layerId = "C788331E-5670-44D3-9D66-EAA382172B0D";
shapes = (
{
closed = 1;
nodes = (
(1365,1390,o),
(1346,1374,o),
(1307,1328,cs),
(683,598,ls),
(659,570,o),
(635,550,o),
(698,550,cs),
(1356,550,l),
(1366,440,l),
(592,440,ls),
(559,440,o),
(543,440,o),
(531,420,cs),
(298,144,ls),
(282,125,o),
(284,110,o),
(326,110,cs),
(426,110,ls),
(448,110,o),
(460,106,o),
(460,82,cs),
(460,38,ls),
(460,5,o),
(454,0,o),
(420,0,cs),
(-72,0,ls),
(-103,0,o),
(-100,4,o),
(-100,34,cs),
(-100,72,ls),
(-100,101,o),
(-99,110,o),
(-70,110,cs),
(68,110,ls),
(105,110,o),
(112,124,o),
(129,144,cs),
(1272,1472,ls),
(1287,1489,o),
(1289,1500,o),
(1323,1500,cs),
(1388,1500,l),
(1405,1390,l)
);
},
{
pos = (1080,0);
ref = E;
}
);
vertWidth = 0;
width = 2538;
},
{
layerId = "166B8CC3-B8B2-42DF-8AC5-58EF4CD93FB2";
shapes = (
{
closed = 1;
nodes = (
(1435,1230,o),
(1418,1219,o),
(1367,1168,cs),
(923,718,ls),
(897,691,o),
(875,670,o),
(938,670,cs),
(1516,670,l),
(1476,420,l),
(682,420,ls),
(649,420,o),
(637,417,o),
(621,400,cs),
(528,304,ls),
(510,286,o),
(514,270,o),
(556,270,cs),
(696,270,ls),
(718,270,o),
(730,266,o),
(730,242,cs),
(730,38,ls),
(730,5,o),
(724,0,o),
(690,0,cs),
(-72,0,ls),
(-103,0,o),
(-100,4,o),
(-100,34,cs),
(-100,232,ls),
(-100,261,o),
(-99,270,o),
(-70,270,cs),
(108,270,ls),
(145,270,o),
(152,284,o),
(169,304,cs),
(1272,1472,ls),
(1288,1488,o),
(1319,1500,o),
(1353,1500,cs),
(1388,1500,l),
(1535,1230,l)
);
},
{
pos = (1190,0);
ref = E;
}
);
vertWidth = 0;
width = 2808;
},
{
layerId = "6A50D5EA-2B4A-4D44-BCCC-14A16F5631EA";
shapes = (
{
closed = 1;
nodes = (
(1017,1230,o),
(1003.448,1227.86,o),
(967,1168,cs),
(693,718,ls),
(673.975,686.754,o),
(656,670,o),
(708,670,cs),
(1116,670,l),
(1076,420,l),
(542,420,ls),
(509,420,o),
(491.931,419.799,o),
(481,400,cs),
(428,304,ls),
(416.179,282.589,o),
(414,270,o),
(456,270,cs),
(496,270,ls),
(518,270,o),
(530,266,o),
(530,242,cs),
(530,38,ls),
(530,5,o),
(524,0,o),
(490,0,cs),
(-52,0,ls),
(-83,0,o),
(-80,4,o),
(-80,34,cs),
(-80,232,ls),
(-80,261,o),
(-79,270,o),
(-50,270,cs),
(8,270,ls),
(45,270,o),
(52,284,o),
(69,304,cs),
(872,1472,ls),
(884.604,1490.334,o),
(919,1500,o),
(953,1500,cs),
(988,1500,l),
(1047,1230,l)
);
},
{
pos = (789.998,0);
ref = E;
}
);
vertWidth = 0;
width = 1960;
},
{
layerId = "5A070E73-1DB9-476B-9E26-8EFE8B60F44F";
shapes = (
{
closed = 1;
nodes = (
(1105,1390,o),
(1077.899,1378.916,o),
(1047,1328,cs),
(604,598,ls),
(585.391,567.335,o),
(596,550,o),
(659,550,cs),
(1096,550,l),
(1106,440,l),
(542,440,ls),
(509,440,o),
(493,440,o),
(481,420,cs),
(298,144,ls),
(282,125,o),
(284,110,o),
(326,110,cs),
(346,110,ls),
(368,110,o),
(380,106,o),
(380,82,cs),
(380,38,ls),
(380,5,o),
(374,0,o),
(340,0,cs),
(28,0,ls),
(-3,0,o),
(0,4,o),
(0,34,cs),
(0,72,ls),
(0,101,o),
(1,110,o),
(30,110,cs),
(68,110,ls),
(105,110,o),
(112,124,o),
(129,144,cs),
(1012,1472,ls),
(1027,1489,o),
(1029,1500,o),
(1063,1500,cs),
(1128,1500,l),
(1145,1390,l)
);
},
{
pos = (820,0);
ref = E;
}
);
vertWidth = 0;
width = 2278;
}
);
unicode = 198;
},
{
glyphname = B;
kernLeft = kc0_1;
kernRight = kc0_19;
lastChange = "2022-07-21 13:13:41 +0000";
layers = (
{
anchors = (
{
name = "Anchor-0";
pos = (833,1500);
},
{
name = "Anchor-1";
pos = (546,0);
},
{
name = "Anchor-2";
pos = (546,0);
}
);
layerId = "C788331E-5670-44D3-9D66-EAA382172B0D";
shapes = (
{
closed = 1;
nodes = (
(-40,0,ls),
(-74,0,o),
(-80,5,o),
(-80,41,cs),
(-80,85,ls),
(-80,104,o),
(-74,110,o),
(-56,110,cs),
(116,110,ls),
(156,110,o),
(169,115,o),
(176,149,cs),
(433,1353,ls),
(440,1386,o),
(436,1390,o),
(394,1390,cs),
(236,1390,ls),
(207,1390,o),
(196,1393,o),
(196,1425,cs),
(196,1479,ls),
(196,1498,o),
(204,1500,o),
(224,1500,cs),
(1024,1500,ls),
(1326,1500,o),
(1444,1310,o),
(1444,1150,cs),
(1444,946,o),
(1328,832,o),
(1124,785,cs),
(1099,779,o),
(1089,785,o),
(1089,776,cs),
(1089,767,o),
(1101,773,o),
(1123,767,cs),
(1290,724,o),
(1364,621,o),
(1364,460,cs),
(1364,220,o),
(1226,0,o),
(744,0,cs)
);
},
{
closed = 1;
nodes = (
(1056,110,o),
(1144,322,o),
(1144,460,cs),
(1144,618,o),
(1056,720,o),
(884,720,cs),
(534,720,ls),
(501,720,o),
(496,711,o),
(490,683,cs),
(376,151,ls),
(370,124,o),
(367,110,o),
(404,110,cs),
(724,110,ls)
);
},
{
closed = 1;
nodes = (
(864,830,ls),
(1016,830,o),
(1244,932,o),
(1244,1150,cs),
(1244,1288,o),
(1176,1390,o),
(1024,1390,cs),
(674,1390,ls),
(639,1390,o),
(640,1387,o),
(634,1359,cs),
(530,871,ls),
(523,840,o),
(522,830,o),
(564,830,cs)
);
}
);
vertWidth = 0;
width = 1484;
},
{
anchors = (
{
name = "Anchor-0";
pos = (1028,1500);
},
{
name = "Anchor-1";
pos = (686,0);
},
{
name = "Anchor-2";
pos = (686,0);
}
);
layerId = "166B8CC3-B8B2-42DF-8AC5-58EF4CD93FB2";
shapes = (
{
closed = 1;
nodes = (
(-32,0,ls),
(-91,0,o),
(-100,1,o),
(-100,60,cs),
(-100,222,ls),
(-100,257,o),
(-97,270,o),
(-59,270,cs),
(122,270,ls),
(183,270,o),
(182,274,o),
(193,324,cs),
(373,1168,ls),
(385,1226,o),
(381,1230,o),
(302,1230,cs),
(232,1230,ls),
(164,1230,o),
(156,1238,o),
(156,1304,cs),
(156,1429,ls),
(156,1492,o),
(175,1500,o),
(234,1500,cs),
(1144,1500,ls),
(1526,1500,o),
(1724,1380,o),
(1724,1140,cs),
(1724,952,o),
(1607,858,o),
(1412,808,cs),
(1356,794,o),
(1322,803,o),
(1322,781,cs),
(1322,762,o),
(1346,769,o),
(1400,757,cs),
(1560,720,o),
(1644,644,o),
(1644,470,cs),
(1644,150,o),
(1386,0,o),
(864,0,cs)
);
},
{
closed = 1;
nodes = (
(1056,270,o),
(1144,352,o),
(1144,490,cs),
(1144,628,o),
(1056,650,o),
(964,650,cs),
(804,650,ls),
(749,650,o),
(741,642,o),
(731,596,cs),
(673,322,ls),
(662,272,o),
(668,270,o),
(730,270,cs),
(844,270,ls)
);
},
{
closed = 1;
nodes = (
(984,900,ls),
(1116,900,o),
(1244,972,o),
(1244,1110,cs),
(1244,1208,o),
(1176,1230,o),
(1104,1230,cs),
(910,1230,ls),
(860,1230,o),
(864,1222,o),
(856,1182,cs),
(805,944,ls),
(799,914,o),
(791,900,o),
(832,900,cs)
);
}
);
vertWidth = 0;
width = 1744;
},
{
anchors = (
{
name = "Anchor-0";
pos = (723,1500);
},
{
name = "Anchor-1";
pos = (426,0);
},
{
name = "Anchor-2";
pos = (426,0);
}
);
layerId = "6A50D5EA-2B4A-4D44-BCCC-14A16F5631EA";
shapes = (
{
closed = 1;
nodes = (
(-18,0,ls),
(-64,0,o),
(-65,19,o),
(-65,66,cs),
(-65,240,ls),
(-65,266,o),
(-54,270,o),
(-30,270,cs),
(8,270,ls),
(52,270,o),
(66,289,o),
(75,332,cs),
(260,1178,ls),
(260,1214,o),
(254,1230,o),
(219,1230,cs),
(203,1230,ls),
(166,1230,o),
(160,1236,o),
(160,1272,cs),
(160,1448,ls),
(160,1488,o),
(169,1500,o),
(207,1500,cs),
(820,1500,ls),
(1132,1500,o),
(1286,1440,o),
(1286,1240,cs),
(1286,965,o),
(1074,859,o),
(945,805,cs),
(927,797,o),
(917,789,o),
(917,781,cs),
(917,773,o),
(929,766,o),
(951,760,cs),
(1123,714,o),
(1180,613,o),
(1180,510,cs),
(1180,240,o),
(1002,0,o),
(670,0,cs)
);
},
{
closed = 1;
nodes = (
(642,270,o),
(703,422,o),
(703,540,cs),
(703,608,o),
(672,640,o),
(630,640,cs),
(611,640,ls),
(585,640,o),
(566,623,o),
(560,596,cs),
(500,326,ls),
(491,287,o),
(496,270,o),
(535,270,cs),
(560,270,ls)
);
},
{
closed = 1;
nodes = (
(685,910,ls),
(737,910,o),
(792,1072,o),
(792,1160,cs),
(792,1208,o),
(779,1230,o),
(747,1230,cs),
(738,1230,ls),
(707,1230,o),
(704,1227,o),
(697,1198,cs),
(645,969,ls),
(634,921,o),
(638,910,o),
(662,910,cs)
);
}
);
vertWidth = 0;
width = 1210;
},
{
anchors = (
{
name = "Anchor-0";
pos = (583,1500);
},
{
name = "Anchor-1";
pos = (296,0);
},
{
name = "Anchor-2";
pos = (296,0);
}
);
layerId = "5A070E73-1DB9-476B-9E26-8EFE8B60F44F";
shapes = (
{
closed = 1;
nodes = (
(-70,0,ls),
(-104,0,o),
(-110,5,o),
(-110,41,cs),
(-110,85,ls),
(-110,104,o),
(-104,110,o),
(-86,110,cs),
(-34,110,ls),
(6,110,o),
(19,115,o),
(26,149,cs),
(283,1353,ls),
(290,1386,o),
(286,1390,o),
(244,1390,cs),
(236,1390,ls),
(207,1390,o),
(196,1393,o),
(196,1425,cs),
(196,1479,ls),
(196,1498,o),
(204,1500,o),
(224,1500,cs),
(674,1500,ls),
(946,1500,o),
(1029,1380,o),
(1029,1220,cs),
(1029,1016,o),
(918,852,o),
(764,795,cs),
(739.889,786.076,o),
(729,785,o),
(729,776,cs),
(729,767,o),
(752.04,760.983,o),
(773,752,cs),
(850,719,o),
(911,651,o),
(911,530,cs),
(911,290,o),
(776,0,o),
(394,0,cs)
);
},
{
closed = 1;
nodes = (
(656,110,o),
(704,412,o),
(704,550,cs),
(704,658,o),
(646,720,o),
(534,720,cs),
(384,720,ls),
(351,720,o),
(346,711,o),
(340,683,cs),
(226,151,ls),
(220,124,o),
(217,110,o),
(254,110,cs),
(374,110,ls)
);
},
{
closed = 1;
nodes = (
(534,830,ls),
(736,830,o),
(829,1002,o),
(829,1220,cs),
(829,1338,o),
(766,1390,o),
(644,1390,cs),
(524,1390,ls),
(489,1390,o),
(490,1387,o),
(484,1359,cs),
(380,871,ls),
(373,840,o),
(372,830,o),
(414,830,cs)
);
}
);
vertWidth = 0;
width = 1018;
},
{
associatedMasterId = "5A070E73-1DB9-476B-9E26-8EFE8B60F44F";
layerId = "9294E227-4E04-4F9C-AE94-132A4803B8BB";
name = Back;
shapes = (
{
closed = 1;
nodes = (
(544,110,o),
(645,212,o),
(689,410,cs),
(733,608,o),
(700,720,o),
(518,720,cs),
(377,720,ls),
(334,720,o),
(326,711,o),
(316,666,cs),
(201,148,ls),
(194,115,o),
(203,110,o),
(238,110,cs),
(382,110,ls)
);
},
{
closed = 1;
nodes = (
(522,830,ls),
(704,830,o),
(770,912,o),
(814,1110,cs),
(858,1308,o),
(808,1390,o),
(626,1390,cs),
(511,1390,ls),
(479,1390,o),
(473,1378,o),
(466,1345,cs),
(361,870,ls),
(352,831,o),
(356,830,o),
(371,830,cs)
);
},
{
closed = 1;
nodes = (
(-91,0,ls),
(-122,0,o),
(-132,1,o),
(-125,32,cs),
(-115,76,ls),
(-108,106,o),
(-99,110,o),
(-71,110,cs),
(-28,110,ls),
(0,110,o),
(13,113,o),
(19,140,cs),
(288,1352,ls),
(296,1388,o),
(288,1390,o),
(251,1390,cs),
(217,1390,ls),
(183,1390,o),
(177,1393,o),
(184,1426,cs),
(193,1468,ls),
(199,1495,o),
(209,1500,o),
(234,1500,cs),
(671,1500,ls),
(923,1500,o),
(1077,1390,o),
(1019,1130,cs),
(972,917,o),
(855,835,o),
(747,793,cs),
(716,781,o),
(717,773,o),
(739,766,cs),
(864,728,o),
(947,630,o),
(894,390,cs),
(827,90,o),
(600,0,o),
(408,0,cs)
);
}
);
vertWidth = 0;
width = 1018;
}
);
unicode = 66;
},
{
glyphname = C;
kernLeft = kc0_2;
kernRight = kc0_2;
lastChange = "2022-07-21 13:13:41 +0000";
layers = (
{
anchors = (
{
name = "Anchor-0";
pos = (1025,1500);
},
{
name = "Anchor-1";
pos = (707,0);
},
{
name = "Anchor-2";
pos = (707,0);
}
);
layerId = "C788331E-5670-44D3-9D66-EAA382172B0D";
shapes = (
{
closed = 1;
nodes = (
(1311,273,o),
(1085,-20,o),
(690,-20,cs),
(344,-20,o),
(90,190,o),
(90,610,cs),
(90,1032,o),
(454,1520,o),
(970,1520,cs),
(1195,1520,o),
(1336,1448,o),
(1422,1346,cs),
(1443,1322,o),
(1440,1321,o),
(1457,1350,cs),
(1535,1484,ls),
(1542,1496,o),
(1552,1500,o),
(1572,1500,cs),
(1632,1500,ls),
(1652,1500,o),
(1655,1497,o),
(1651,1479,cs),
(1552,1023,ls),
(1546,995,o),
(1544,990,o),
(1510,990,cs),
(1470,990,ls),
(1439,990,o),
(1438,997,o),
(1440,1022,cs),
(1457,1241,o),
(1259,1398,o),
(986,1398,cs),
(564,1398,o),
(320,960,o),
(320,610,cs),
(320,286,o),
(448,106,o),
(716,106,cs),
(984,106,o),
(1196,341,o),
(1299,522,cs),
(1308,538,o),
(1317,550,o),
(1342,550,cs),
(1394,550,ls),
(1440,550,o),
(1446,541,o),
(1432,513,cs)
);
}
);
vertWidth = 0;
width = 1594;
},
{
anchors = (
{
name = "Anchor-0";
pos = (1150,1500);
},
{
name = "Anchor-1";
pos = (777,0);
},
{
name = "Anchor-2";
pos = (777,0);
}
);
layerId = "166B8CC3-B8B2-42DF-8AC5-58EF4CD93FB2";
shapes = (
{
closed = 1;
nodes = (
(1539,232,o),
(1233,-40,o),
(770,-40,cs),
(364,-40,o),
(70,160,o),
(70,620,cs),
(70,1122,o),
(454,1540,o),
(1030,1540,cs),
(1187,1540,o),
(1300,1497,o),
(1378,1432,cs),
(1413,1403,o),
(1415,1377,o),
(1452,1412,cs),
(1502,1460,ls),
(1526,1483,o),
(1532,1500,o),
(1582,1500,cs),
(1770,1500,ls),
(1814,1500,o),
(1812,1494,o),
(1805,1457,cs),
(1705,920,ls),
(1698,884,o),
(1695,870,o),
(1650,870,cs),
(1474,870,ls),
(1432,870,o),
(1427,873,o),
(1430,908,cs),
(1449,1159,o),
(1282,1288,o),
(1086,1288,cs),
(784,1288,o),
(580,980,o),
(580,630,cs),
(580,346,o),
(710,256,o),
(878,256,cs),
(1049,256,o),
(1218,351,o),
(1320,510,cs),
(1341,543,o),
(1348,570,o),
(1406,570,cs),
(1568,570,ls),
(1651,570,o),
(1661,559,o),
(1638,497,cs)
);
}
);
vertWidth = 0;
width = 1734;
},
{
anchors = (
{
name = "Anchor-0";
pos = (905,1500);
},
{
name = "Anchor-1";
pos = (537,0);
},
{
name = "Anchor-2";
pos = (537,0);
}
);
layerId = "6A50D5EA-2B4A-4D44-BCCC-14A16F5631EA";
shapes = (
{
closed = 1;
nodes = (
(1080,202,o),
(887,-40,o),
(542,-40,cs),
(174,-40,o),
(27,134,o),
(27,429,cs),
(27,999,o),
(332,1540,o),
(792,1540,cs),
(912,1540,o),
(981,1487,o),
(1024,1431,cs),
(1053,1393,o),
(1054,1395,o),
(1090,1444,cs),
(1122,1488,ls),
(1138,1509,o),
(1148,1510,o),
(1185,1510,cs),
(1325,1510,ls),
(1374,1510,o),
(1373,1501,o),
(1362,1452,cs),
(1256,974,ls),
(1248,936,o),
(1242,930,o),
(1202,930,cs),
(989,930,ls),
(941,930,o),
(936,941,o),
(936,977,cs),
(936,1157,o),
(955,1284,o),
(855,1284,cs),
(712,1284,o),
(536,713,o),
(536,405,cs),
(536,288,o),
(567,228,o),
(641,228,cs),
(727,228,o),
(795,338,o),
(876,522,cs),
(900,577,o),
(910,590,o),
(959,590,cs),
(1155,590,ls),
(1208,590,o),
(1210,579,o),
(1197,542,cs)
);
}
);
vertWidth = 0;
width = 1208;
},
{
anchors = (
{
name = "Anchor-0";
pos = (795,1500);
},
{
name = "Anchor-1";
pos = (447,0);
},
{
name = "Anchor-2";
pos = (447,0);
}
);
layerId = "5A070E73-1DB9-476B-9E26-8EFE8B60F44F";
shapes = (
{
closed = 1;
nodes = (
(921,313,o),
(775,-20,o),
(430,-20,cs),
(124,-20,o),
(9,120,o),
(9,420,cs),
(9,842,o),
(244,1520,o),
(720,1520,cs),
(874,1520,o),
(945,1441,o),
(982,1376,cs),
(997.776,1348.285,o),
(1000,1351,o),
(1017,1380,cs),
(1075,1484,ls),
(1082,1496,o),
(1092,1500,o),
(1112,1500,cs),
(1172,1500,ls),
(1192,1500,o),
(1195,1497,o),
(1191,1479,cs),
(1092,1023,ls),
(1086,995,o),
(1084,990,o),
(1050,990,cs),
(1010,990,ls),
(979,990,o),
(978,997,o),
(980,1022,cs),
(997,1241,o),
(899,1398,o),
(736,1398,cs),
(384,1398,o),
(209,770,o),
(209,420,cs),
(209,186,o),
(278,106,o),
(456,106,cs),
(694,106,o),
(826,381,o),
(899,562,cs),
(905.866,579.025,o),
(914,590,o),
(939,590,cs),
(974,590,ls),
(1020,590,o),
(1023.099,582.271,o),
(1012,553,cs)
);
}
);
vertWidth = 0;
width = 1109;
},
{
associatedMasterId = "5A070E73-1DB9-476B-9E26-8EFE8B60F44F";
layerId = "2776C5A7-0E84-46B0-B870-79CD3047B7D1";
name = Back;
shapes = (
{
closed = 1;
nodes = (
(150,1196,o),
(406,1520,o),
(712,1520,cs),
(905,1520,o),
(970,1426,o),
(1005,1333,cs),
(1010,1319,o),
(1018,1330,o),
(1027,1349,cs),
(1101,1492,ls),
(1108,1506,o),
(1107,1510,o),
(1126,1510,cs),
(1180,1510,ls),
(1197,1510,o),
(1200,1507,o),
(1196,1491,cs),
(1090,1016,ls),
(1085,994,o),
(1078,990,o),
(1055,990,cs),
(994,990,ls),
(968,990,o),
(976,998,o),
(977,1019,cs),
(986,1213,o),
(930,1404,o),
(756,1404,cs),
(488,1404,o),
(332,1114,o),
(251,750,cs),
(170,386,o),
(179,98,o),
(447,98,cs),
(668,98,o),
(820,335,o),
(900,574,cs),
(904,586,o),
(910,590,o),
(924,590,cs),
(994,590,ls),
(1008,590,o),
(1016,589,o),
(1012,576,cs),
(912,236,o),
(712,-20,o),
(411,-20,cs),
(5,-20,o),
(-48,304,o),
(51,750,cs)
);
}
);
vertWidth = 0;
width = 1109;
}
);
unicode = 67;
},
{
glyphname = D;
kernLeft = kc0_1;
kernRight = kc0_3;
lastChange = "2022-07-21 13:13:41 +0000";
layers = (
{
anchors = (
{
name = "Anchor-0";
pos = (843,1500);
},
{
name = "Anchor-1";
pos = (523,0);
},
{
name = "Anchor-2";
pos = (523,0);
}
);
layerId = "C788331E-5670-44D3-9D66-EAA382172B0D";
shapes = (
{
closed = 1;
nodes = (
(-80,78,ls),
(-80,110,o),
(-70,110,o),
(-38,110,cs),
(114,110,ls),
(148,110,o),
(152,126,o),
(158,152,cs),
(411,1338,ls),
(421,1386,o),
(418,1390,o),
(358,1390,cs),
(232,1390,ls),
(195,1390,o),
(194,1399,o),
(194,1436,cs),
(194,1458,ls),
(194,1492,o),
(197,1500,o),
(230,1500,cs),
(946,1500,ls),
(1412,1500,o),
(1546,1196,o),
(1546,930,cs),
(1546,384,o),
(1092,0,o),
(646,0,cs),
(-48,0,ls),
(-73,0,o),
(-80,5,o),
(-80,32,cs)
);
},
{
closed = 1;
nodes = (
(646,110,ls),
(1014,110,o),
(1316,486,o),
(1316,970,cs),
(1316,1194,o),
(1274,1390,o),
(946,1390,cs),
(686,1390,ls),
(629,1390,o),
(621,1384,o),
(611,1338,cs),
(358,152,ls),
(350,117,o),
(352,110,o),
(398,110,cs)
);
}
);
vertWidth = 0;
width = 1636;
},
{
anchors = (
{
name = "Anchor-0";
pos = (1168,1500);
},
{
name = "Anchor-1";
pos = (793,0);
},
{
name = "Anchor-2";
pos = (793,0);
}
);
layerId = "166B8CC3-B8B2-42DF-8AC5-58EF4CD93FB2";
shapes = (
{
closed = 1;
nodes = (
(-100,217,ls),
(-100,267,o),
(-78,270,o),
(-32,270,cs),
(124,270,ls),
(176,270,o),
(184,274,o),
(193,316,cs),
(374,1165,ls),
(387,1228,o),
(387,1230,o),
(312,1230,cs),
(220,1230,ls),
(163,1230,o),
(154,1231,o),
(154,1288,cs),
(154,1434,ls),
(154,1492,o),
(174,1500,o),
(228,1500,cs),
(1086,1500,ls),
(1672,1500,o),
(1846,1216,o),
(1846,930,cs),
(1846,284,o),
(1332,0,o),
(786,0,cs),
(-38,0,ls),
(-83,0,o),
(-100,4,o),
(-100,53,cs)
);
},
{
closed = 1;
nodes = (
(786,270,ls),
(1094,270,o),
(1336,526,o),
(1336,970,cs),
(1336,1174,o),
(1214,1230,o),
(1046,1230,cs),
(922,1230,ls),
(870,1230,o),
(868,1229,o),
(859,1186,cs),
(675,324,ls),
(665,278,o),
(675,270,o),
(734,270,cs)
);
}
);
vertWidth = 0;
width = 1916;
},
{
anchors = (
{
name = "Anchor-0";
pos = (783,1500);
},
{
name = "Anchor-1";
pos = (483,0);
},
{
name = "Anchor-2";
pos = (483,0);
}
);
layerId = "6A50D5EA-2B4A-4D44-BCCC-14A16F5631EA";
shapes = (
{
closed = 1;
nodes = (
(-70,230,ls),
(-70,263,o),
(-62,270,o),
(-31,270,cs),
(33,270,ls),
(69,270,o),
(62,281,o),
(70,316,cs),
(260,1179,ls),
(269,1220,o),
(254,1230,o),
(213,1230,cs),
(209,1230,ls),
(165,1230,o),
(160,1236,o),
(160,1278,cs),
(160,1447,ls),
(160,1492,o),
(170,1500,o),
(213,1500,cs),
(820,1500,ls),
(1226,1500,o),
(1380,1326,o),
(1380,1050,cs),
(1380,645,o),
(1206,0,o),
(610,0,cs),
(-22,0,ls),
(-55,0,o),
(-70,1,o),
(-70,34,cs)
);
},
{
closed = 1;
nodes = (
(600,270,ls),
(758,270,o),
(890,816,o),
(890,1060,cs),
(890,1174,o),
(858,1230,o),
(780,1230,cs),
(769,1230,ls),
(742,1230,o),
(740,1220,o),
(730,1174,cs),
(540,316,ls),
(531,274,o),
(543,270,o),
(578,270,cs)
);
}
);
vertWidth = 0;
width = 1320;
},
{
anchors = (
{
name = "Anchor-0";
pos = (623,1500);
},
{
name = "Anchor-1";
pos = (303,0);
},
{
name = "Anchor-2";
pos = (303,0);
}
);
layerId = "5A070E73-1DB9-476B-9E26-8EFE8B60F44F";
shapes = (
{
closed = 1;
nodes = (
(-80,78,ls),
(-80,110,o),
(-70,110,o),
(-38,110,cs),
(-6,110,ls),
(28,110,o),
(32,126,o),
(38,152,cs),
(291,1338,ls),
(301,1386,o),
(298,1390,o),
(238,1390,cs),
(232,1390,ls),
(195,1390,o),
(194,1399,o),
(194,1436,cs),
(194,1458,ls),
(194,1492,o),
(197,1500,o),
(230,1500,cs),
(726,1500,ls),
(1012,1500,o),
(1106,1306,o),
(1106,1040,cs),
(1106,494,o),
(832,0,o),
(406,0,cs),
(-48,0,ls),
(-73,0,o),
(-80,5,o),
(-80,32,cs)
);
},
{
closed = 1;
nodes = (
(366,110,ls),
(674,110,o),
(906,596,o),
(906,1080,cs),
(906,1304,o),
(814,1390,o),
(656,1390,cs),
(566,1390,ls),
(509,1390,o),
(501,1384,o),
(491,1338,cs),
(238,152,ls),
(230,117,o),
(232,110,o),
(278,110,cs)
);
}
);
vertWidth = 0;
width = 1124;
},
{
associatedMasterId = "5A070E73-1DB9-476B-9E26-8EFE8B60F44F";
layerId = "1783BCCE-939C-4463-BE7C-DA2FB86AF507";
name = Back;
shapes = (
{
closed = 1;
nodes = (
(-115,72,ls),
(-108,104,o),
(-103,110,o),
(-72,110,cs),
(-18,110,ls),
(12,110,o),
(15,119,o),
(22,150,cs),
(287,1346,ls),
(295,1380,o),
(296,1390,o),
(262,1390,cs),
(234,1390,ls),
(192,1390,o),
(177,1391,o),
(185,1426,cs),
(195,1471,ls),
(201,1496,o),
(226,1500,o),
(257,1500,cs),
(742,1500,ls),
(1068,1500,o),
(1159,1176,o),
(1065,750,cs),
(971,324,o),
(715,0,o),
(409,0,cs),
(-96,0,ls),
(-126,0,o),
(-129,6,o),
(-123,34,cs)
);
},
{
closed = 1;
nodes = (
(353,110,ls),
(621,110,o),
(764,296,o),
(865,750,cs),
(968,1214,o),
(885,1390,o),
(637,1390,cs),
(510,1390,ls),
(493,1390,o),
(476,1385,o),
(467,1346,cs),
(201,144,ls),
(194,112,o),
(191,110,o),
(224,110,cs)
);
}
);
vertWidth = 0;
width = 1124;
}
);
unicode = 68;
},
{
glyphname = Eth;
kernLeft = kc0_1;
kernRight = kc0_3;
lastChange = "2022-07-21 13:13:41 +0000";
layers = (
{
layerId = "C788331E-5670-44D3-9D66-EAA382172B0D";
shapes = (
{
closed = 1;
nodes = (
(872,840,ls),
(900,840,o),
(903,836,o),
(903,812,cs),
(903,763,ls),
(903,739,o),
(901,730,o),
(869,730,cs),
(108,730,ls),
(78,730,o),
(76,734,o),
(76,760,cs),
(76,812,ls),
(76,835,o),
(84,840,o),
(110,840,cs)
);
},
{
ref = D;
}
);
vertWidth = 0;
width = 1636;
},
{
layerId = "166B8CC3-B8B2-42DF-8AC5-58EF4CD93FB2";
shapes = (
{
closed = 1;
nodes = (
(1001,900,ls),
(1034,900,o),
(1038,896,o),
(1038,872,cs),
(1038,703,ls),
(1038,679,o),
(1035,670,o),
(998,670,cs),
(113,670,ls),
(78,670,o),
(76,674,o),
(76,700,cs),
(76,872,ls),
(76,895,o),
(86,900,o),
(116,900,cs)
);
},
{
ref = D;
}
);
vertWidth = 0;
width = 1916;
},
{
layerId = "6A50D5EA-2B4A-4D44-BCCC-14A16F5631EA";
shapes = (
{
closed = 1;
nodes = (
(721,900,ls),
(754,900,o),
(758,896,o),
(758,872,cs),
(758,703,ls),
(758,679,o),
(755,670,o),
(718,670,cs),
(113,670,ls),
(78,670,o),
(76,674,o),
(76,700,cs),
(76,872,ls),
(76,895,o),
(86,900,o),
(116,900,cs)
);
},
{
ref = D;
}
);
vertWidth = 0;
width = 1320;
},
{
layerId = "5A070E73-1DB9-476B-9E26-8EFE8B60F44F";
shapes = (
{
closed = 1;
nodes = (
(552,840,ls),
(580,840,o),
(583,836,o),
(583,812,cs),
(583,763,ls),
(583,739,o),
(581,730,o),
(549,730,cs),
(108,730,ls),
(78,730,o),
(76,734,o),
(76,760,cs),
(76,812,ls),
(76,835,o),
(84,840,o),
(110,840,cs)
);
},
{
ref = D;
}
);
vertWidth = 0;
width = 1124;
}
);
unicode = 208;
},
{
glyphname = Dcroat;
kernRight = kc0_3;
lastChange = "2022-07-21 13:13:41 +0000";
layers = (
{
layerId = "C788331E-5670-44D3-9D66-EAA382172B0D";
shapes = (
{
closed = 1;
nodes = (
(872,840,ls),
(900,840,o),
(903,836,o),
(903,812,cs),
(903,763,ls),
(903,739,o),
(901,730,o),
(869,730,cs),
(108,730,ls),
(78,730,o),
(76,734,o),
(76,760,cs),
(76,812,ls),
(76,835,o),
(84,840,o),
(110,840,cs)
);
},
{
ref = D;
}
);
vertWidth = 0;
width = 1636;
},
{
layerId = "166B8CC3-B8B2-42DF-8AC5-58EF4CD93FB2";
shapes = (
{
closed = 1;
nodes = (
(1001,900,ls),
(1034,900,o),
(1038,896,o),
(1038,872,cs),
(1038,703,ls),
(1038,679,o),
(1035,670,o),
(998,670,cs),
(113,670,ls),
(78,670,o),
(76,674,o),
(76,700,cs),
(76,872,ls),
(76,895,o),
(86,900,o),
(116,900,cs)
);
},
{
ref = D;
}
);
vertWidth = 0;
width = 1916;
},
{
layerId = "6A50D5EA-2B4A-4D44-BCCC-14A16F5631EA";
shapes = (
{
closed = 1;
nodes = (
(741,900,ls),
(774,900,o),
(778,896,o),
(778,872,cs),
(778,703,ls),
(778,679,o),
(775,670,o),
(738,670,cs),
(113,670,ls),
(78,670,o),
(76,674,o),
(76,700,cs),
(76,872,ls),
(76,895,o),
(86,900,o),
(116,900,cs)
);
},
{
ref = D;
}
);
vertWidth = 0;
width = 1320;
},
{
layerId = "5A070E73-1DB9-476B-9E26-8EFE8B60F44F";
shapes = (
{
closed = 1;
nodes = (
(552,840,ls),
(580,840,o),
(583,836,o),
(583,812,cs),
(583,763,ls),
(583,739,o),
(581,730,o),
(549,730,cs),
(108,730,ls),
(78,730,o),
(76,734,o),
(76,760,cs),
(76,812,ls),
(76,835,o),
(84,840,o),
(110,840,cs)
);
},
{
ref = D;
}
);
vertWidth = 0;
width = 1124;
}
);
unicode = 272;
},
{
glyphname = E;
kernLeft = kc0_1;
kernRight = kc0_2;
lastChange = "2022-07-21 13:13:41 +0000";
layers = (
{
anchors = (
{
name = "Anchor-0";
pos = (903,1500);
},
{
name = "Anchor-1";
pos = (606,0);
},
{
name = "Anchor-2";
pos = (606,0);
},
{
name = "Anchor-3";
pos = (1046,0);
}
);
layerId = "C788331E-5670-44D3-9D66-EAA382172B0D";
shapes = (
{
closed = 1;
nodes = (
(371,156,ls),
(361,114,o),
(366,110,o),
(420,110,cs),
(796,110,ls),
(1059,110,o),
(1167,189,o),
(1246,472,cs),
(1254,500,o),
(1251,510,o),
(1290,510,cs),
(1320,510,ls),
(1350,510,o),
(1355,507,o),
(1350,484,cs),
(1247,46,ls),
(1238,7,o),
(1231,0,o),
(1182,0,cs),
(-44,0,ls),
(-68,0,o),
(-80,3,o),
(-80,30,cs),
(-80,64,ls),
(-80,102,o),
(-77,110,o),
(-40,110,cs),
(118,110,ls),
(164,110,o),
(162,115,o),
(170,152,cs),
(442,1345,ls),
(451,1386,o),
(442,1390,o),
(392,1390,cs),
(248,1390,ls),
(211,1390,o),
(208,1398,o),
(208,1436,cs),
(208,1468,ls),
(208,1497,o),
(230,1500,o),
(256,1500,cs),
(1472,1500,ls),
(1530,1500,o),
(1538,1499,o),
(1527,1452,cs),
(1440,1072,ls),
(1431,1035,o),
(1433,1030,o),
(1386,1030,cs),
(1357,1030,ls),
(1324,1030,o),
(1335,1051,o),
(1339,1074,cs),
(1384,1313,o),
(1331,1390,o),
(1110,1390,cs),
(710,1390,ls),
(645,1390,o),
(649,1381,o),
(637,1330,cs),
(531,862,ls),
(522,822,o),
(524,816,o),
(576,816,cs),
(666,816,ls),
(820,816,o),
(913,891,o),
(960,1002,cs),
(969,1024,o),
(967,1046,o),
(999,1046,cs),
(1030,1046,ls),
(1066,1046,o),
(1064,1037,o),
(1057,1008,cs),
(945,532,ls),
(939,507,o),
(943,496,o),
(910,496,cs),
(878,496,ls),
(844,496,o),
(852,522,o),
(854,546,cs),
(864,655,o),
(818,736,o),
(666,736,cs),
(550,736,ls),
(500,736,o),
(502,732,o),
(493,692,cs)
);
}
);
vertWidth = 0;
width = 1458;
},
{
anchors = (
{
name = "Anchor-0";
pos = (1008,1500);
},
{
name = "Anchor-1";
pos = (676,0);
},
{
name = "Anchor-2";
pos = (676,0);
},
{
name = "Anchor-3";
pos = (1298,50);
}
);
layerId = "166B8CC3-B8B2-42DF-8AC5-58EF4CD93FB2";
shapes = (
{
closed = 1;
nodes = (
(671,330,ls),
(661,284,o),
(654,270,o),
(716,270,cs),
(816,270,ls),
(1073,270,o),
(1253,328,o),
(1340,595,cs),
(1354,637,o),
(1357,650,o),
(1416,650,cs),
(1514,650,ls),
(1579,650,o),
(1573,635,o),
(1562,586,cs),
(1450,64,ls),
(1438,9,o),
(1433,0,o),
(1364,0,cs),
(-54,0,ls),
(-92,0,o),
(-100,4,o),
(-100,44,cs),
(-100,209,ls),
(-100,266,o),
(-91,270,o),
(-36,270,cs),
(106,270,ls),
(167,270,o),
(178,272,o),
(189,322,cs),
(383,1176,ls),
(392,1215,o),
(396,1230,o),
(343,1230,cs),
(224,1230,ls),
(184,1230,o),
(168,1230,o),
(168,1274,cs),
(168,1466,ls),
(168,1496,o),
(175,1500,o),
(206,1500,cs),
(1682,1500,ls),
(1745,1500,o),
(1734,1476,o),
(1724,1430,cs),
(1627,962,ls),
(1616,909,o),
(1615,890,o),
(1548,890,cs),
(1442,890,ls),
(1388,890,o),
(1397,911,o),
(1402,950,cs),
(1431,1165,o),
(1343,1230,o),
(1120,1230,cs),
(926,1230,ls),
(891,1230,o),
(874,1226,o),
(867,1196,cs),
(800,896,ls),
(796,880,o),
(803,877,o),
(814,877,cs),
(815,877,ls),
(919,877,o),
(986,916,o),
(1028,995,cs),
(1050,1038,o),
(1049,1066,o),
(1120,1066,cs),
(1186,1066,ls),
(1244,1066,o),
(1245,1059,o),
(1235,1014,cs),
(1128,532,ls),
(1118,487,o),
(1114,476,o),
(1056,476,cs),
(974,476,ls),
(926,476,o),
(930,488,o),
(933,524,cs),
(940,626,o),
(870,676,o),
(773,676,cs),
(770,676,ls),
(752,676,o),
(747,668,o),
(744,654,cs)
);
}
);
vertWidth = 0;
width = 1618;
},
{
anchors = (
{
name = "Anchor-0";
pos = (753,1500);
},
{
name = "Anchor-1";
pos = (456,0);
},
{
name = "Anchor-2";
pos = (896,0);
},
{
name = "Anchor-3";
pos = (896,0);
}
);
layerId = "6A50D5EA-2B4A-4D44-BCCC-14A16F5631EA";
shapes = (
{
closed = 1;
nodes = (
(540,310,ls),
(530,265,o),
(549,270,o),
(594,270,cs),
(620,270,ls),
(804,270,o),
(882,361,o),
(929,592,cs),
(939,642,o),
(945,650,o),
(1000,650,cs),
(1120,650,ls),
(1165,650,o),
(1169,642,o),
(1160,600,cs),
(1040,40,ls),
(1031,0,o),
(1038,0,o),
(996,0,cs),
(-20,0,ls),
(-60,0,o),
(-70,13,o),
(-70,56,cs),
(-70,218,ls),
(-70,252,o),
(-67,270,o),
(-34,270,cs),
(16,270,ls),
(59,270,o),
(61,271,o),
(70,312,cs),
(265,1192,ls),
(272,1225,o),
(257,1230,o),
(221,1230,cs),
(211,1230,ls),
(169,1230,o),
(165,1238,o),
(165,1278,cs),
(165,1454,ls),
(165,1499,o),
(179,1500,o),
(221,1500,cs),
(1290,1500,ls),
(1329,1500,o),
(1332,1489,o),
(1332,1452,cs),
(1220,948,ls),
(1212,912,o),
(1210,910,o),
(1172,910,cs),
(1022,910,ls),
(992,910,o),
(984,925,o),
(989,950,cs),
(1033,1154,o),
(1005,1230,o),
(835,1230,cs),
(793,1230,ls),
(754,1230,o),
(745,1224,o),
(735,1183,cs),
(670,918,ls),
(659,873,o),
(666,860,o),
(678,860,cs),
(679,860,ls),
(702,860,o),
(740,945,o),
(766,1038,cs),
(774,1068,o),
(793,1086,o),
(821,1086,cs),
(912,1086,ls),
(955,1086,o),
(969,1078,o),
(960,1038,cs),
(830,458,ls),
(823,425,o),
(815,416,o),
(778,416,cs),
(690,416,ls),
(649,416,o),
(626,436,o),
(635,468,cs),
(659,559,o),
(659,650,o),
(632,650,cs),
(631,650,ls),
(614,650,o),
(608,631,o),
(600,592,cs)
);
}
);
vertWidth = 0;
width = 1170;
},
{
anchors = (
{
name = "Anchor-0";
pos = (603,1500);
},
{
name = "Anchor-1";
pos = (306,0);
},
{
name = "Anchor-2";
pos = (306,0);
},
{
name = "Anchor-3";
pos = (586,0);
}
);
layerId = "5A070E73-1DB9-476B-9E26-8EFE8B60F44F";
shapes = (
{
closed = 1;
nodes = (
(221,156,ls),
(211,114,o),
(216,110,o),
(270,110,cs),
(336,110,ls),
(599,110,o),
(707,189,o),
(786,472,cs),
(794,500,o),
(791,510,o),
(830,510,cs),
(860,510,ls),
(890,510,o),
(895,507,o),
(890,484,cs),
(787,46,ls),
(778,7,o),
(771,0,o),
(722,0,cs),
(-44,0,ls),
(-68,0,o),
(-80,3,o),
(-80,30,cs),
(-80,64,ls),
(-80,102,o),
(-77,110,o),
(-40,110,cs),
(-32,110,ls),
(14,110,o),
(12,115,o),
(20,152,cs),
(292,1345,ls),
(301,1386,o),
(292,1390,o),
(252,1390,cs),
(248,1390,ls),
(211,1390,o),
(208,1398,o),
(208,1436,cs),
(208,1468,ls),
(208,1497,o),
(230,1500,o),
(256,1500,cs),
(1022,1500,ls),
(1080,1500,o),
(1088,1499,o),
(1077,1452,cs),
(990,1072,ls),
(981,1035,o),
(983,1030,o),
(936,1030,cs),
(907,1030,ls),
(874,1030,o),
(885,1051,o),
(889,1074,cs),
(934,1313,o),
(881,1390,o),
(660,1390,cs),
(560,1390,ls),
(495,1390,o),
(499,1381,o),
(487,1330,cs),
(381,862,ls),
(372,822,o),
(374,816,o),
(426,816,cs),
(456,816,ls),
(570,816,o),
(603,891,o),
(650,1002,cs),
(659,1024,o),
(657,1046,o),
(689,1046,cs),
(720,1046,ls),
(756,1046,o),
(754,1037,o),
(747,1008,cs),
(635,532,ls),
(629,507,o),
(633,496,o),
(600,496,cs),
(568,496,ls),
(534,496,o),
(542,522,o),
(544,546,cs),
(554,655,o),
(548,736,o),
(456,736,cs),
(400,736,ls),
(350,736,o),
(352,732,o),
(343,692,cs)
);
}
);
vertWidth = 0;
width = 1013;
},
{
associatedMasterId = "5A070E73-1DB9-476B-9E26-8EFE8B60F44F";
layerId = "49087CC8-BCA6-4958-AD5E-BFCA10262A30";
name = Back;
shapes = (
{
closed = 1;
nodes = (
(212,1390,ls),
(179,1390,o),
(178,1401,o),
(185,1432,cs),
(192,1462,ls),
(199,1493,o),
(205,1500,o),
(235,1500,cs),
(1037,1500,ls),
(1083,1500,o),
(1090,1498,o),
(1080,1452,cs),
(995,1070,ls),
(988,1038,o),
(992,1030,o),
(958,1030,cs),
(948,1030,ls),
(919,1030,o),
(920,1042,o),
(925,1068,cs),
(973,1312,o),
(839,1390,o),
(666,1390,cs),
(530,1390,ls),
(494,1390,o),
(484,1384,o),
(476,1346,cs),
(369,860,ls),
(363,831,o),
(361,816,o),
(373,816,cs),
(445,816,ls),
(555,816,o),
(626,897,o),
(652,1014,cs),
(657,1041,o),
(666,1046,o),
(686,1046,cs),
(719,1046,ls),
(741,1046,o),
(748,1039,o),
(743,1016,cs),
(637,536,ls),
(630,504,o),
(625,496,o),
(596,496,cs),
(563,496,ls),
(551,496,o),
(535,499,o),
(543,530,cs),
(568,647,o),
(560,736,o),
(421,736,cs),
(374,736,ls),
(349,736,o),
(339,728,o),
(331,692,cs),
(212,154,ls),
(204,117,o),
(207,110,o),
(246,110,cs),
(362,110,ls),
(576,110,o),
(745,190,o),
(814,478,cs),
(820,504,o),
(827,510,o),
(845,510,cs),
(853,510,ls),
(878,510,o),
(890,507,o),
(884,480,cs),
(786,34,ls),
(780,6,o),
(773,0,o),
(746,0,cs),
(-92,0,ls),
(-122,0,o),
(-131,4,o),
(-124,36,cs),
(-114,82,ls),
(-108,109,o),
(-99,110,o),
(-72,110,cs),
(-42,110,ls),
(7,110,o),
(14,116,o),
(25,166,cs),
(287,1348,ls),
(296,1389,o),
(288,1390,o),
(247,1390,cs)
);
}
);
vertWidth = 0;
width = 1013;
}
);
unicode = 69;
},
{
glyphname = F;
kernLeft = kc0_1;
kernRight = kc0_18;
lastChange = "2022-07-21 13:13:41 +0000";
layers = (
{
anchors = (
{
name = "Anchor-0";
pos = (923,1500);
},
{
name = "Anchor-1";
pos = (236,0);
},
{
name = "Anchor-2";
pos = (236,0);
}
);
layerId = "C788331E-5670-44D3-9D66-EAA382172B0D";
shapes = (
{
closed = 1;
nodes = (
(-80,78,ls),
(-80,107,o),
(-67,110,o),
(-40,110,cs),
(126,110,ls),
(165,110,o),
(162,115,o),
(169,146,cs),
(442,1350,ls),
(450,1385,o),
(447,1390,o),
(402,1390,cs),
(258,1390,ls),
(217,1390,o),
(208,1391,o),
(208,1432,cs),
(208,1466,ls),
(208,1497,o),
(219,1500,o),
(248,1500,cs),
(1482,1500,ls),
(1539,1500,o),
(1538,1496,o),
(1527,1449,cs),
(1440,1072,ls),
(1432,1038,o),
(1436,1030,o),
(1392,1030,cs),
(1364,1030,ls),
(1330,1030,o),
(1333,1044,o),
(1338,1068,cs),
(1385,1312,o),
(1333,1390,o),
(1110,1390,cs),
(710,1390,ls),
(655,1390,o),
(650,1386,o),
(640,1341,cs),
(522,820,ls),
(517,799,o),
(523,796,o),
(550,796,cs),
(666,796,ls),
(822,796,o),
(916,873,o),
(962,986,cs),
(970,1006,o),
(967,1026,o),
(996,1026,cs),
(1036,1026,ls),
(1061,1026,o),
(1065,1021,o),
(1061,1002,cs),
(941,478,ls),
(937,459,o),
(931,456,o),
(907,456,cs),
(884,456,ls),
(845,456,o),
(851,471,o),
(854,500,cs),
(867,612,o),
(820,696,o),
(666,696,cs),
(524,696,ls),
(505,696,o),
(494,696,o),
(490,680,cs),
(369,146,ls),
(363,117,o),
(364,110,o),
(402,110,cs),
(568,110,ls),
(593,110,o),
(594,101,o),
(594,76,cs),
(594,34,ls),
(594,3,o),
(583,0,o),
(554,0,cs),
(-46,0,ls),
(-79,0,o),
(-80,9,o),
(-80,42,cs)
);
}
);
vertWidth = 0;
width = 1438;
},
{
anchors = (
{
name = "Anchor-0";
pos = (1058,1500);
},
{
name = "Anchor-1";
pos = (376,0);
},
{
name = "Anchor-2";
pos = (376,0);
}
);
layerId = "166B8CC3-B8B2-42DF-8AC5-58EF4CD93FB2";
shapes = (
{
closed = 1;
nodes = (
(-100,220,ls),
(-100,261,o),
(-98,270,o),
(-57,270,cs),
(105,270,ls),
(154,270,o),
(159,275,o),
(168,315,cs),
(364,1183,ls),
(372,1220,o),
(375,1230,o),
(325,1230,cs),
(201,1230,ls),
(150,1230,o),
(148,1238,o),
(148,1290,cs),
(148,1458,ls),
(148,1491,o),
(149,1500,o),
(182,1500,cs),
(1696,1500,ls),
(1756,1500,o),
(1756,1493,o),
(1746,1446,cs),
(1630,906,ls),
(1622,870,o),
(1620,850,o),
(1572,850,cs),
(1430,850,ls),
(1375,850,o),
(1382,866,o),
(1388,906,cs),
(1423,1139,o),
(1326,1230,o),
(1090,1230,cs),
(916,1230,ls),
(871,1230,o),
(855,1227,o),
(846,1188,cs),
(771,862,ls),
(769,851,o),
(764,827,o),
(782,827,cs),
(783,827,ls),
(906,827,o),
(987,892,o),
(1028,1002,cs),
(1036,1023,o),
(1034,1026,o),
(1063,1026,cs),
(1189,1026,ls),
(1233,1026,o),
(1234,1020,o),
(1226,987,cs),
(1084,409,ls),
(1077,380,o),
(1068,376,o),
(1031,376,cs),
(919,376,ls),
(876,376,o),
(878,384,o),
(882,419,cs),
(899,578,o),
(850,626,o),
(736,626,cs),
(735,626,ls),
(725,626,o),
(717,621,o),
(715,613,cs),
(644,301,ls),
(638,274,o),
(643,270,o),
(678,270,cs),
(878,270,ls),
(913,270,o),
(914,261,o),
(914,226,cs),
(914,38,ls),
(914,2,o),
(906,0,o),
(869,0,cs),
(-54,0,ls),
(-86,0,o),
(-100,2,o),
(-100,37,cs)
);
}
);
vertWidth = 0;
width = 1638;
},
{
anchors = (
{
name = "Anchor-0";
pos = (793,1500);
},
{
name = "Anchor-1";
pos = (266,0);
},
{
name = "Anchor-2";
pos = (266,0);
}
);
layerId = "6A50D5EA-2B4A-4D44-BCCC-14A16F5631EA";
shapes = (
{
closed = 1;
nodes = (
(-69,231,ls),
(-69,259,o),
(-60,270,o),
(-31,270,cs),
(28,270,ls),
(58,270,o),
(62,279,o),
(71,318,cs),
(265,1195,ls),
(271,1224,o),
(262,1230,o),
(234,1230,cs),
(195,1230,ls),
(172,1230,o),
(170,1248,o),
(170,1272,cs),
(170,1464,ls),
(170,1489,o),
(179,1500,o),
(204,1500,cs),
(1299,1500,ls),
(1331,1500,o),
(1342,1491,o),
(1335,1460,cs),
(1214,921,ls),
(1208,894,o),
(1187,890,o),
(1158,890,cs),
(1030,890,ls),
(994,890,o),
(977,891,o),
(984,925,cs),
(1029,1135,o),
(1042,1230,o),
(820,1230,cs),
(782,1230,ls),
(750,1230,o),
(742,1228,o),
(735,1197,cs),
(660,851,ls),
(660,841,o),
(663,837,o),
(669,837,cs),
(671,837,ls),
(714,837,o),
(741,929,o),
(769,1049,cs),
(772,1064,o),
(788,1066,o),
(804,1066,cs),
(927,1066,ls),
(948,1066,o),
(965,1057,o),
(960,1036,cs),
(820,406,ls),
(815,383,o),
(804,376,o),
(778,376,cs),
(658,376,ls),
(629,376,o),
(625,397,o),
(629,423,cs),
(647,541,o),
(652,615,o),
(620,615,cs),
(619,615,ls),
(607,615,o),
(603,599,o),
(599,580,cs),
(541,317,ls),
(533,279,o),
(546,270,o),
(588,270,cs),
(644,270,ls),
(681,270,o),
(681,250,o),
(681,213,cs),
(681,47,ls),
(681,5,o),
(655,0,o),
(614,0,cs),
(-28,0,ls),
(-61,0,o),
(-69,23,o),
(-69,55,cs)
);
}
);
vertWidth = 0;
width = 1150;
},
{
anchors = (
{
name = "Anchor-0";
pos = (673,1500);
},
{
name = "Anchor-1";
pos = (86,0);
},
{
name = "Anchor-2";
pos = (86,0);
}
);
layerId = "5A070E73-1DB9-476B-9E26-8EFE8B60F44F";
shapes = (
{
closed = 1;
nodes = (
(-110,78,ls),
(-110,107,o),
(-97,110,o),
(-70,110,cs),
(-24,110,ls),
(15,110,o),
(12,115,o),
(19,146,cs),
(292,1350,ls),
(300,1385,o),
(297,1390,o),
(252,1390,cs),
(238,1390,ls),
(197,1390,o),
(188,1391,o),
(188,1432,cs),
(188,1466,ls),
(188,1497,o),
(199,1500,o),
(228,1500,cs),
(1032,1500,ls),
(1089,1500,o),
(1088,1496,o),
(1077,1449,cs),
(990,1072,ls),
(982,1038,o),
(986,1030,o),
(942,1030,cs),
(914,1030,ls),
(880,1030,o),
(883,1044,o),
(888,1068,cs),
(935,1312,o),
(883,1390,o),
(660,1390,cs),
(560,1390,ls),
(505,1390,o),
(500,1386,o),
(490,1341,cs),
(372,820,ls),
(367,799,o),
(373,796,o),
(400,796,cs),
(466,796,ls),
(622,796,o),
(636,873,o),
(682,986,cs),
(690,1006,o),
(687,1026,o),
(716,1026,cs),
(756,1026,ls),
(781,1026,o),
(785,1021,o),
(781,1002,cs),
(661,478,ls),
(657,459,o),
(651,456,o),
(627,456,cs),
(604,456,ls),
(565,456,o),
(571,471,o),
(574,500,cs),
(587,612,o),
(580,696,o),
(456,696,cs),
(374,696,ls),
(355,696,o),
(344,696,o),
(340,680,cs),
(219,146,ls),
(213,117,o),
(214,110,o),
(252,110,cs),
(298,110,ls),
(323,110,o),
(324,101,o),
(324,76,cs),
(324,34,ls),
(324,3,o),
(313,0,o),
(284,0,cs),
(-76,0,ls),
(-109,0,o),
(-110,9,o),
(-110,42,cs)
);
}
);
vertWidth = 0;
width = 978;
},
{
associatedMasterId = "5A070E73-1DB9-476B-9E26-8EFE8B60F44F";
layerId = "1F184BB8-3D19-489F-B8B1-1820C95B2390";
name = Back;
shapes = (
{
closed = 1;
nodes = (
(200,1390,ls),
(181,1390,o),
(177,1392,o),
(181,1412,cs),
(196,1481,ls),
(199,1495,o),
(202,1500,o),
(216,1500,cs),
(1067,1500,ls),
(1088,1500,o),
(1089,1493,o),
(1084,1471,cs),
(991,1050,ls),
(987,1031,o),
(977,1030,o),
(958,1030,cs),
(936,1030,ls),
(916,1030,o),
(918,1035,o),
(922,1054,cs),
(976,1313,o),
(875,1390,o),
(646,1390,cs),
(520,1390,ls),
(495,1390,o),
(483,1376,o),
(478,1353,cs),
(363,836,ls),
(355,802,o),
(360,796,o),
(393,796,cs),
(484,796,ls),
(579,796,o),
(643,856,o),
(680,964,cs),
(689,992,o),
(692,1006,o),
(726,1006,cs),
(750,1006,ls),
(773,1006,o),
(781,1004,o),
(776,982,cs),
(670,503,ls),
(666,485,o),
(663,476,o),
(645,476,cs),
(593,476,ls),
(574,476,o),
(576,481,o),
(579,499,cs),
(600,623,o),
(568,696,o),
(462,696,cs),
(362,696,ls),
(334,696,o),
(330,688,o),
(324,659,cs),
(211,150,ls),
(204,118,o),
(206,110,o),
(240,110,cs),
(314,110,ls),
(333,110,o),
(342,109,o),
(338,90,cs),
(325,30,ls),
(319,4,o),
(309,0,o),
(285,0,cs),
(-107,0,ls),
(-127,0,o),
(-132,0,o),
(-128,20,cs),
(-112,92,ls),
(-108,109,o),
(-99,110,o),
(-81,110,cs),
(-15,110,ls),
(7,110,o),
(14,117,o),
(19,140,cs),
(290,1360,ls),
(296,1387,o),
(293,1390,o),
(267,1390,cs)
);
}
);
vertWidth = 0;
width = 978;
}
);
unicode = 70;
},
{
glyphname = G;
kernLeft = kc0_2;
kernRight = kc0_17;
lastChange = "2022-07-21 13:13:41 +0000";
layers = (
{
anchors = (
{
name = "Anchor-0";
pos = (1025,1500);
},
{
name = "Anchor-1";
pos = (677,0);
},
{
name = "Anchor-2";
pos = (677,0);
}
);
layerId = "C788331E-5670-44D3-9D66-EAA382172B0D";
shapes = (
{
closed = 1;
nodes = (
(1656,740,ls),
(1679,740,o),
(1694,737,o),
(1694,712,cs),
(1694,650,ls),
(1694,614,o),
(1687,610,o),
(1650,610,cs),
(1496,610,ls),
(1460,610,o),
(1465,594,o),
(1457,568,cs),
(1404,384,ls),
(1396,358,o),
(1389,340,o),
(1376,320,cs),
(1282,175,o),
(1050,-20,o),
(708,-20,cs),
(352,-20,o),
(90,184,o),
(90,610,cs),
(90,1032,o),
(454,1520,o),
(970,1520,cs),
(1180,1520,o),
(1317,1457,o),
(1404,1366,cs),
(1438,1331,o),
(1435,1314,o),
(1463,1362,cs),
(1529,1476,ls),
(1539,1494,o),
(1549,1500,o),
(1578,1500,cs),
(1622,1500,ls),
(1652,1500,o),
(1653,1496,o),
(1648,1471,cs),
(1553,1026,ls),
(1547,1000,o),
(1542,990,o),
(1508,990,cs),
(1466,990,ls),
(1439,990,o),
(1437,998,o),
(1439,1020,cs),
(1458,1240,o),
(1260,1398,o),
(986,1398,cs),
(564,1398,o),
(320,960,o),
(320,610,cs),
(320,306,o),
(452,94,o),
(710,94,cs),
(899,94,o),
(1022,153,o),
(1134,257,cs),
(1158,279,o),
(1168,293,o),
(1179,330,cs),
(1252,580,ls),
(1259,606,o),
(1251,610,o),
(1222,610,cs),
(1070,610,ls),
(1040,610,o),
(1034,615,o),
(1034,644,cs),
(1034,714,ls),
(1034,733,o),
(1038,740,o),
(1056,740,cs)
);
}
);
vertWidth = 0;
width = 1734;
},
{
anchors = (
{
name = "Anchor-0";
pos = (1150,1500);
},
{
name = "Anchor-1";
pos = (747,0);
},
{
name = "Anchor-2";
pos = (747,0);
}
);
layerId = "166B8CC3-B8B2-42DF-8AC5-58EF4CD93FB2";
shapes = (
{
closed = 1;
nodes = (
(1848,780,ls),
(1889,780,o),
(1894,774,o),
(1894,731,cs),
(1894,603,ls),
(1894,557,o),
(1890,550,o),
(1842,550,cs),
(1730,550,ls),
(1689,550,o),
(1680,547,o),
(1674,513,cs),
(1632,283,ls),
(1622,226,o),
(1602,232,o),
(1554,205,cs),
(1412,125,o),
(1159,-40,o),
(768,-40,cs),
(352,-40,o),
(70,214,o),
(70,620,cs),
(70,1122,o),
(454,1540,o),
(1030,1540,cs),
(1185,1540,o),
(1296,1499,o),
(1374,1436,cs),
(1419,1400,o),
(1416,1378,o),
(1462,1422,cs),
(1520,1477,ls),
(1537,1493,o),
(1552,1500,o),
(1588,1500,cs),
(1762,1500,ls),
(1807,1500,o),
(1813,1495,o),
(1805,1455,cs),
(1705,925,ls),
(1696,876,o),
(1687,870,o),
(1630,870,cs),
(1486,870,ls),
(1432,870,o),
(1428,872,o),
(1431,919,cs),
(1445,1163,o),
(1279,1288,o),
(1086,1288,cs),
(784,1288,o),
(580,980,o),
(580,630,cs),
(580,366,o),
(652,244,o),
(850,244,cs),
(981,244,o),
(1065,271,o),
(1154,348,cs),
(1177,368,o),
(1188,378,o),
(1194,419,cs),
(1207,511,ls),
(1212,542,o),
(1211,550,o),
(1176,550,cs),
(1040,550,ls),
(1003,550,o),
(994,552,o),
(994,589,cs),
(994,739,ls),
(994,780,o),
(1011,780,o),
(1048,780,cs)
);
}
);
vertWidth = 0;
width = 1914;
},
{
anchors = (
{
name = "Anchor-0";
pos = (895,1500);
},
{
name = "Anchor-1";
pos = (507,0);
},
{
name = "Anchor-2";
pos = (507,0);
}
);
layerId = "6A50D5EA-2B4A-4D44-BCCC-14A16F5631EA";
shapes = (
{
closed = 1;
nodes = (
(1245,860,ls),
(1290,860,o),
(1304,855,o),
(1304,808,cs),
(1304,626,ls),
(1304,592,o),
(1283,590,o),
(1248,590,cs),
(1238,590,ls),
(1207,590,o),
(1200,586,o),
(1193,556,cs),
(1144,334,ls),
(1134,288,o),
(1121,278,o),
(1098,251,cs),
(970,102,o),
(868,-40,o),
(531,-40,cs),
(156,-40,o),
(15,134,o),
(15,429,cs),
(15,1013,o),
(315,1540,o),
(801,1540,cs),
(947,1540,o),
(995,1471,o),
(1015,1438,cs),
(1038,1400,o),
(1059,1412,o),
(1091,1444,cs),
(1137,1492,ls),
(1150,1505,o),
(1163,1510,o),
(1188,1510,cs),
(1338,1510,ls),
(1372,1510,o),
(1384,1507,o),
(1377,1474,cs),
(1278,1029,ls),
(1268,985,o),
(1264,970,o),
(1220,970,cs),
(1024,970,ls),
(967,970,o),
(973,983,o),
(965,1020,cs),
(929,1192,o),
(935,1284,o),
(845,1284,cs),
(690,1284,o),
(515,640,o),
(515,343,cs),
(515,256,o),
(534,210,o),
(577,210,cs),
(635,210,o),
(660,285,o),
(697,384,cs),
(708,414,o),
(715,431,o),
(725,474,cs),
(741,544,ls),
(750,583,o),
(748,590,o),
(710,590,cs),
(706,590,ls),
(660,590,o),
(675,610,o),
(675,652,cs),
(675,810,ls),
(675,858,o),
(698,860,o),
(743,860,cs)
);
}
);
vertWidth = 0;
width = 1310;
},
{
anchors = (
{
name = "Anchor-0";
pos = (815,1500);
},
{
name = "Anchor-1";
pos = (387,0);
},
{
name = "Anchor-2";
pos = (387,0);
}
);
layerId = "5A070E73-1DB9-476B-9E26-8EFE8B60F44F";
shapes = (
{
closed = 1;
nodes = (
(1066,740,ls),
(1089,740,o),
(1104,737,o),
(1104,712,cs),
(1104,650,ls),
(1104,614,o),
(1097,610,o),
(1060,610,cs),
(1036,610,ls),
(1000,610,o),
(1005,594,o),
(997,568,cs),
(944,384,ls),
(936,358,o),
(928.632,339.822,o),
(919,318,cs),
(855,173,o),
(670,-20,o),
(418,-20,cs),
(132,-20,o),
(10,164,o),
(10,390,cs),
(10,852,o),
(244,1520,o),
(740,1520,cs),
(840,1520,o),
(937,1487,o),
(984,1436,cs),
(1017.068,1400.118,o),
(1015,1384,o),
(1043,1432,cs),
(1069,1476,ls),
(1079,1494,o),
(1089,1500,o),
(1118,1500,cs),
(1162,1500,ls),
(1192,1500,o),
(1193,1496,o),
(1188,1471,cs),
(1093,1026,ls),
(1087,1000,o),
(1082,990,o),
(1048,990,cs),
(1006,990,ls),
(979,990,o),
(977,998,o),
(979,1020,cs),
(998,1240,o),
(990,1398,o),
(776,1398,cs),
(354,1398,o),
(200,740,o),
(200,390,cs),
(200,196,o),
(292,84,o),
(410,84,cs),
(519,84,o),
(612,147,o),
(694,251,cs),
(714.158,276.567,o),
(728,293,o),
(739,330,cs),
(792,580,ls),
(799,606,o),
(791,610,o),
(762,610,cs),
(740,610,ls),
(710,610,o),
(704,615,o),
(704,644,cs),
(704,714,ls),
(704,733,o),
(708,740,o),
(726,740,cs)
);
}
);
vertWidth = 0;
width = 1150;
},
{
associatedMasterId = "5A070E73-1DB9-476B-9E26-8EFE8B60F44F";
layerId = "56145054-ED72-49B4-B3B5-2834F906DA3B";
name = Back;
shapes = (
{
closed = 1;
nodes = (
(1080,740,ls),
(1120,740,o),
(1129,737,o),
(1119,694,cs),
(1108,644,ls),
(1102,615,o),
(1094,610,o),
(1063,610,cs),
(1033,610,ls),
(1003,610,o),
(999,603,o),
(992,572,cs),
(967,462,ls),
(959,428,o),
(955,414,o),
(945,382,cs),
(880,170,o),
(697,-20,o),
(411,-20,cs),
(-5,-20,o),
(-48,304,o),
(51,750,cs),
(150,1196,o),
(386,1520,o),
(762,1520,cs),
(923,1520,o),
(1002,1447,o),
(1024,1379,cs),
(1030,1358,o),
(1041,1361,o),
(1056,1394,cs),
(1089,1464,ls),
(1098,1483,o),
(1110,1500,o),
(1127,1500,cs),
(1171,1500,ls),
(1187,1500,o),
(1196,1491,o),
(1192,1474,cs),
(1094,1034,ls),
(1089,1013,o),
(1082,990,o),
(1059,990,cs),
(1011,990,ls),
(976,990,o),
(975,997,o),
(978,1026,cs),
(997,1218,o),
(997,1408,o),
(751,1408,cs),
(493,1408,o),
(322,1114,o),
(241,750,cs),
(160,386,o),
(175,80,o),
(433,80,cs),
(563,80,o),
(689,215,o),
(745,344,cs),
(753,363,o),
(758,374,o),
(764,400,cs),
(803,578,ls),
(810,608,o),
(806,610,o),
(779,610,cs),
(711,610,ls),
(677,610,o),
(681,613,o),
(688,646,cs),
(701,702,ls),
(708,734,o),
(715,740,o),
(746,740,cs)
);
}
);
vertWidth = 0;
width = 1150;
}
);
unicode = 71;
},
{
glyphname = H;
kernLeft = kc0_1;
kernRight = kc0_1;
lastChange = "2022-07-21 13:13:41 +0000";
layers = (
{
anchors = (
{
name = "Anchor-0";
pos = (1035,1500);
},
{
name = "Anchor-1";
pos = (716,0);
},
{
name = "Anchor-2";
pos = (716,0);
}
);
layerId = "C788331E-5670-44D3-9D66-EAA382172B0D";
shapes = (
{
closed = 1;
nodes = (
(-80,80,ls),
(-80,108,o),
(-65,110,o),
(-40,110,cs),
(90,110,ls),
(146,110,o),
(166,112,o),
(176,160,cs),
(432,1352,ls),
(439,1385,o),
(433,1390,o),
(396,1390,cs),
(234,1390,ls),
(203,1390,o),
(194,1391,o),
(194,1422,cs),
(194,1464,ls),
(194,1491,o),
(195,1500,o),
(222,1500,cs),
(840,1500,ls),
(873,1500,o),
(874,1491,o),
(874,1458,cs),
(874,1430,ls),
(874,1396,o),
(869,1390,o),
(836,1390,cs),
(694,1390,ls),
(642,1390,o),
(638,1386,o),
(629,1343,cs),
(528,872,ls),
(520,835,o),
(523,830,o),
(570,830,cs),
(1270,830,ls),
(1316,830,o),
(1311,840,o),
(1319,876,cs),
(1420,1348,ls),
(1428,1384,o),
(1425,1390,o),
(1384,1390,cs),
(1232,1390,ls),
(1202,1390,o),
(1194,1393,o),
(1194,1422,cs),
(1194,1468,ls),
(1194,1495,o),
(1202,1500,o),
(1228,1500,cs),
(1840,1500,ls),
(1874,1500,o),
(1874,1500,o),
(1874,1466,cs),
(1874,1434,ls),
(1874,1395,o),
(1868,1390,o),
(1830,1390,cs),
(1684,1390,ls),
(1629,1390,o),
(1629,1387,o),
(1619,1342,cs),
(1365,156,ls),
(1356,116,o),
(1358,110,o),
(1410,110,cs),
(1568,110,ls),
(1597,110,o),
(1600,102,o),
(1600,72,cs),
(1600,32,ls),
(1600,7,o),
(1595,0,o),
(1568,0,cs),
(964,0,ls),
(931,0,o),
(920,3,o),
(920,38,cs),
(920,74,ls),
(920,108,o),
(933,110,o),
(964,110,cs),
(1110,110,ls),
(1156,110,o),
(1156,112,o),
(1164,150,cs),
(1276,672,ls),
(1285,712,o),
(1284,720,o),
(1232,720,cs),
(540,720,ls),
(486,720,o),
(493,705,o),
(484,662,cs),
(373,148,ls),
(366,117,o),
(368,110,o),
(408,110,cs),
(562,110,ls),
(599,110,o),
(600,101,o),
(600,64,cs),
(600,38,ls),
(600,7,o),
(596,0,o),
(566,0,cs),
(-38,0,ls),
(-76,0,o),
(-80,8,o),
(-80,44,cs)
);
}
);
vertWidth = 0;
width = 1794;
},
{
anchors = (
{
name = "Anchor-0";
pos = (1245,1500);
},
{
name = "Anchor-1";
pos = (866,0);
},
{
name = "Anchor-2";
pos = (866,0);
}
);
layerId = "166B8CC3-B8B2-42DF-8AC5-58EF4CD93FB2";
shapes = (
{
closed = 1;
nodes = (
(-100,207,ls),
(-100,265,o),
(-94,270,o),
(-38,270,cs),
(102,270,ls),
(166,270,o),
(162,278,o),
(173,329,cs),
(356,1191,ls),
(363,1224,o),
(360,1230,o),
(318,1230,cs),
(208,1230,ls),
(165,1230,o),
(156,1234,o),
(156,1279,cs),
(156,1437,ls),
(156,1498,o),
(166,1500,o),
(225,1500,cs),
(1018,1500,ls),
(1051,1500,o),
(1056,1494,o),
(1056,1459,cs),
(1056,1275,ls),
(1056,1231,o),
(1047,1230,o),
(1002,1230,cs),
(888,1230,ls),
(847,1230,o),
(842,1221,o),
(835,1187,cs),
(784,949,ls),
(777,914,o),
(773,900,o),
(820,900,cs),
(1248,900,ls),
(1283,900,o),
(1284,900,o),
(1290,929,cs),
(1346,1191,ls),
(1352,1221,o),
(1354,1230,o),
(1318,1230,cs),
(1232,1230,ls),
(1187,1230,o),
(1186,1239,o),
(1186,1285,cs),
(1186,1461,ls),
(1186,1494,o),
(1191,1500,o),
(1226,1500,cs),
(2014,1500,ls),
(2056,1500,o),
(2066,1499,o),
(2066,1457,cs),
(2066,1271,ls),
(2066,1236,o),
(2062,1230,o),
(2028,1230,cs),
(1880,1230,ls),
(1842,1230,o),
(1833,1223,o),
(1826,1191,cs),
(1641,323,ls),
(1632,279,o),
(1631,270,o),
(1688,270,cs),
(1776,270,ls),
(1820,270,o),
(1830,268,o),
(1830,221,cs),
(1830,51,ls),
(1830,5,o),
(1823,0,o),
(1778,0,cs),
(978,0,ls),
(942,0,o),
(940,8,o),
(940,45,cs),
(940,229,ls),
(940,266,o),
(948,270,o),
(982,270,cs),
(1102,270,ls),
(1156,270,o),
(1152,278,o),
(1161,321,cs),
(1222,609,ls),
(1231,650,o),
(1225,652,o),
(1174,652,cs),
(756,652,ls),
(722,652,o),
(721,651,o),
(715,623,cs),
(651,321,ls),
(644,286,o),
(638,270,o),
(686,270,cs),
(772,270,ls),
(811,270,o),
(820,267,o),
(820,225,cs),
(820,49,ls),
(820,0,o),
(805,0,o),
(760,0,cs),
(-46,0,ls),
(-90,0,o),
(-100,1,o),
(-100,45,cs)
);
}
);
vertWidth = 0;
width = 1966;
},
{
anchors = (
{
name = "Anchor-0";
pos = (855,1500);
},
{
name = "Anchor-1";
pos = (636,0);
},
{
name = "Anchor-2";
pos = (636,0);
}
);
layerId = "6A50D5EA-2B4A-4D44-BCCC-14A16F5631EA";
shapes = (
{
closed = 1;
nodes = (
(-70,206,ls),
(-70,251,o),
(-68,270,o),
(-23,270,cs),
(5,270,ls),
(34,270,o),
(60,273,o),
(70,320,cs),
(260,1184,ls),
(269,1223,o),
(249,1230,o),
(206,1230,cs),
(205,1230,ls),
(173,1230,o),
(160,1235,o),
(160,1290,cs),
(160,1444,ls),
(160,1493,o),
(185,1500,o),
(230,1500,cs),
(770,1500,ls),
(827,1500,o),
(850,1494,o),
(850,1432,cs),
(850,1278,ls),
(850,1235,o),
(844,1230,o),
(803,1230,cs),
(793,1230,ls),
(767,1230,o),
(737,1223,o),
(730,1188,cs),
(680,950,ls),
(671,908,o),
(692,900,o),
(742,900,cs),
(867,900,ls),
(917,900,o),
(910,913,o),
(920,962,cs),
(970,1196,ls),
(977,1227,o),
(968,1230,o),
(945,1230,cs),
(937,1230,ls),
(897,1230,o),
(890,1233,o),
(890,1282,cs),
(890,1439,ls),
(890,1493,o),
(898,1500,o),
(950,1500,cs),
(1520,1500,ls),
(1558,1500,o),
(1580,1493,o),
(1580,1461,cs),
(1580,1288,ls),
(1580,1249,o),
(1572,1230,o),
(1530,1230,cs),
(1481,1230,ls),
(1443,1230,o),
(1448,1216,o),
(1440,1179,cs),
(1250,320,ls),
(1242,284,o),
(1231,270,o),
(1269,270,cs),
(1299,270,ls),
(1344,270,o),
(1350,260,o),
(1350,213,cs),
(1350,81,ls),
(1350,8,o),
(1341,0,o),
(1270,0,cs),
(740,0,ls),
(681,0,o),
(660,7,o),
(660,70,cs),
(660,225,ls),
(660,263,o),
(673,270,o),
(709,270,cs),
(718,270,ls),
(745,270,o),
(770,273,o),
(780,318,cs),
(845,599,ls),
(854,640,o),
(846,650,o),
(806,650,cs),
(662,650,ls),
(621,650,o),
(615,638,o),
(605,597,cs),
(540,329,ls),
(530,287,o),
(531,270,o),
(575,270,cs),
(577,270,ls),
(607,270,o),
(620,267,o),
(620,228,cs),
(620,65,ls),
(620,6,o),
(594,0,o),
(540,0,cs),
(0,0,ls),
(-58,0,o),
(-70,6,o),
(-70,67,cs)
);
}
);
vertWidth = 0;
width = 1440;
},
{
anchors = (
{
name = "Anchor-0";
pos = (765,1500);
},
{
name = "Anchor-1";
pos = (446,0);
},
{
name = "Anchor-2";
pos = (446,0);
}
);
layerId = "5A070E73-1DB9-476B-9E26-8EFE8B60F44F";
shapes = (
{
closed = 1;
nodes = (
(-110,80,ls),
(-110,108,o),
(-95,110,o),
(-70,110,cs),
(-26,110,ls),
(20,110,o),
(15.705,112.063,o),
(26,160,cs),
(282,1352,ls),
(289,1385,o),
(283,1390,o),
(246,1390,cs),
(214,1390,ls),
(183,1390,o),
(174,1391,o),
(174,1422,cs),
(174,1464,ls),
(174,1491,o),
(175,1500,o),
(202,1500,cs),
(600,1500,ls),
(633,1500,o),
(634,1491,o),
(634,1458,cs),
(634,1430,ls),
(634,1396,o),
(629,1390,o),
(596,1390,cs),
(544,1390,ls),
(492,1390,o),
(488,1386,o),
(479,1343,cs),
(378,872,ls),
(370,835,o),
(373,830,o),
(420,830,cs),
(820,830,ls),
(866,830,o),
(861,840,o),
(869,876,cs),
(970,1348,ls),
(978,1384,o),
(975,1390,o),
(934,1390,cs),
(902,1390,ls),
(872,1390,o),
(864,1393,o),
(864,1422,cs),
(864,1468,ls),
(864,1495,o),
(872,1500,o),
(898,1500,cs),
(1270,1500,ls),
(1304,1500,o),
(1304,1500,o),
(1304,1466,cs),
(1304,1434,ls),
(1304,1395,o),
(1298,1390,o),
(1260,1390,cs),
(1234,1390,ls),
(1179,1390,o),
(1179,1387,o),
(1169,1342,cs),
(915,156,ls),
(906.414,115.911,o),
(908,110,o),
(960,110,cs),
(1008,110,ls),
(1037,110,o),
(1040,102,o),
(1040,72,cs),
(1040,32,ls),
(1040,7,o),
(1035,0,o),
(1008,0,cs),
(614,0,ls),
(581,0,o),
(570,3,o),
(570,38,cs),
(570,74,ls),
(570,108,o),
(583,110,o),
(614,110,cs),
(660,110,ls),
(696,110,o),
(705.853,112.031,o),
(714,150,cs),
(826,672,ls),
(835,712,o),
(834,720,o),
(782,720,cs),
(390,720,ls),
(336,720,o),
(343,705,o),
(334,662,cs),
(223,148,ls),
(216.292,116.937,o),
(218,110,o),
(258,110,cs),
(302,110,ls),
(339,110,o),
(340,101,o),
(340,64,cs),
(340,38,ls),
(340,7,o),
(336,0,o),
(306,0,cs),
(-68,0,ls),
(-106,0,o),
(-110,8,o),
(-110,44,cs)
);
}
);
vertWidth = 0;
width = 1196;
},
{
associatedMasterId = "5A070E73-1DB9-476B-9E26-8EFE8B60F44F";
layerId = "481140E4-166C-426E-9669-8F5383AD34B7";
name = Back;
shapes = (
{
closed = 1;
nodes = (
(375,888,ls),
(364,837,o),
(366,830,o),
(419,830,cs),
(809,830,ls),
(861,830,o),
(864,841,o),
(876,894,cs),
(975,1338,ls),
(984,1380,o),
(995,1390,o),
(953,1390,cs),
(880,1390,ls),
(852,1390,o),
(849,1403,o),
(855,1429,cs),
(861,1458,ls),
(869,1494,o),
(876,1500,o),
(911,1500,cs),
(1281,1500,ls),
(1313,1500,o),
(1320,1496,o),
(1312,1462,cs),
(1304,1424,ls),
(1298,1396,o),
(1287,1390,o),
(1257,1390,cs),
(1231,1390,ls),
(1187,1390,o),
(1176,1388,o),
(1166,1344,cs),
(900,144,ls),
(894,116,o),
(899,110,o),
(929,110,cs),
(973,110,ls),
(1000,110,o),
(1011,107,o),
(1005,78,cs),
(998,44,ls),
(989,2,o),
(977,0,o),
(938,0,cs),
(578,0,ls),
(542,0,o),
(540,7,o),
(548,44,cs),
(554,74,ls),
(560,102,o),
(564,110,o),
(591,110,cs),
(680,110,ls),
(699,110,o),
(705,123,o),
(713,160,cs),
(827,672,ls),
(837,715,o),
(829,720,o),
(789,720,cs),
(385,720,ls),
(345,720,o),
(337,717,o),
(328,678,cs),
(211,150,ls),
(204,119,o),
(207,110,o),
(240,110,cs),
(309,110,ls),
(336,110,o),
(341,105,o),
(335,76,cs),
(329,50,ls),
(319,5,o),
(312,0,o),
(268,0,cs),
(-92,0,ls),
(-125,0,o),
(-131,5,o),
(-123,40,cs),
(-117,68,ls),
(-109,104,o),
(-102,110,o),
(-67,110,cs),
(-29,110,ls),
(3,110,o),
(13,112,o),
(20,144,cs),
(288,1351,ls),
(295,1383,o),
(287,1390,o),
(257,1390,cs),
(211,1390,ls),
(177,1390,o),
(178,1401,o),
(186,1436,cs),
(192,1462,ls),
(199,1494,o),
(211,1500,o),
(241,1500,cs),
(611,1500,ls),
(638,1500,o),
(649,1497,o),
(643,1468,cs),
(635,1428,ls),
(628,1396,o),
(620,1390,o),
(589,1390,cs),
(525,1390,ls),
(491,1390,o),
(485,1383,o),
(477,1347,cs)
);
}
);
vertWidth = 0;
width = 1196;
}
);
unicode = 72;
},
{
glyphname = Hbar;
lastChange = "2022-07-21 13:13:41 +0000";
layers = (
{
layerId = "C788331E-5670-44D3-9D66-EAA382172B0D";
shapes = (
{
closed = 1;
nodes = (
(1713,1190,ls),
(1768,1190,o),
(1775,1186,o),
(1775,1162,cs),
(1775,1113,ls),
(1775,1089,o),
(1770,1080,o),
(1708,1080,cs),
(218,1080,ls),
(158,1080,o),
(156,1084,o),
(156,1110,cs),
(156,1162,ls),
(156,1185,o),
(172,1190,o),
(222,1190,cs)
);
},
{
ref = H;
}
);
vertWidth = 0;
width = 1794;
},
{
layerId = "166B8CC3-B8B2-42DF-8AC5-58EF4CD93FB2";
shapes = (
{
closed = 1;
nodes = (
(1951,1180,ls),
(2016,1180,o),
(2024,1176,o),
(2024,1152,cs),
(2024,983,ls),
(2024,959,o),
(2018,950,o),
(1945,950,cs),
(189,950,ls),
(119,950,o),
(116,954,o),
(116,980,cs),
(116,1152,ls),
(116,1175,o),
(135,1180,o),
(194,1180,cs)
);
},
{
ref = H;
}
);
vertWidth = 0;
width = 1966;
},
{
layerId = "6A50D5EA-2B4A-4D44-BCCC-14A16F5631EA";
shapes = (
{
closed = 1;
nodes = (
(1461,1180,ls),
(1526,1180,o),
(1534,1176,o),
(1534,1152,cs),
(1534,983,ls),
(1534,959,o),
(1528,950,o),
(1455,950,cs),
(189,950,ls),
(119,950,o),
(116,954,o),
(116,980,cs),
(116,1152,ls),
(116,1175,o),
(135,1180,o),
(194,1180,cs)
);
},
{
ref = H;
}
);
vertWidth = 0;
width = 1440;
},
{
layerId = "5A070E73-1DB9-476B-9E26-8EFE8B60F44F";
shapes = (
{
closed = 1;
nodes = (
(1163,1190,ls),
(1218,1190,o),
(1225,1186,o),
(1225,1162,cs),
(1225,1113,ls),
(1225,1089,o),
(1220,1080,o),
(1158,1080,cs),
(218,1080,ls),
(158,1080,o),
(156,1084,o),
(156,1110,cs),
(156,1162,ls),
(156,1185,o),
(172,1190,o),
(222,1190,cs)
);
},
{
ref = H;
}
);
vertWidth = 0;
width = 1196;
}
);
unicode = 294;
},
{
glyphname = I;
kernLeft = kc0_1;
kernRight = kc0_1;
lastChange = "2022-07-21 13:13:41 +0000";
layers = (
{
anchors = (
{
name = "Anchor-0";
pos = (565,1500);
},
{
name = "Anchor-1";
pos = (242,0);
},
{
name = "Anchor-2";
pos = (242,0);
},
{
name = "Anchor-3";
pos = (242,0);
}
);
layerId = "C788331E-5670-44D3-9D66-EAA382172B0D";
shapes = (
{
closed = 1;
nodes = (
(-80,82,ls),
(-80,105,o),
(-72,110,o),
(-50,110,cs),
(114,110,ls),
(160,110,o),
(166,112,o),
(175,151,cs),
(440,1348,ls),
(449,1387,o),
(444,1390,o),
(394,1390,cs),
(242,1390,ls),
(216,1390,o),
(216,1395,o),
(216,1421,cs),
(216,1464,ls),
(216,1494,o),
(221,1500,o),
(250,1500,cs),
(840,1500,ls),
(868,1500,o),
(876,1496,o),
(876,1466,cs),
(876,1422,ls),
(876,1393,o),
(868,1390,o),
(838,1390,cs),
(684,1390,ls),
(642,1390,o),
(647,1379,o),
(640,1346,cs),
(377,150,ls),
(368,111,o),
(376,110,o),
(424,110,cs),
(556,110,ls),
(598,110,o),
(600,102,o),
(600,60,cs),
(600,38,ls),
(600,8,o),
(597,0,o),
(568,0,cs),
(-42,0,ls),
(-73,0,o),
(-80,4,o),
(-80,34,cs)
);
}
);
vertWidth = 0;
width = 796;
},
{
anchors = (
{
name = "Anchor-0";
pos = (781,1500);
},
{
name = "Anchor-1";
pos = (473,0);
},
{
name = "Anchor-2";
pos = (473,0);
},
{
name = "Anchor-3";
pos = (473,0);
}
);
layerId = "166B8CC3-B8B2-42DF-8AC5-58EF4CD93FB2";
shapes = (
{
closed = 1;
nodes = (
(-40,239,ls),
(-40,269,o),
(-31,270,o),
(0,270,cs),
(208,270,ls),
(246,270,o),
(243,277,o),
(250,307,cs),
(445,1189,ls),
(453,1224,o),
(450,1230,o),
(410,1230,cs),
(248,1230,ls),
(209,1230,o),
(206,1237,o),
(206,1277,cs),
(206,1464,ls),
(206,1494,o),
(212,1500,o),
(240,1500,cs),
(1154,1500,ls),
(1185,1500,o),
(1186,1491,o),
(1186,1459,cs),
(1186,1273,ls),
(1186,1235,o),
(1179,1230,o),
(1142,1230,cs),
(946,1230,ls),
(913,1230,o),
(914,1227,o),
(908,1201,cs),
(713,315,ls),
(704,275,o),
(707,270,o),
(758,270,cs),
(916,270,ls),
(953,270,o),
(960,267,o),
(960,231,cs),
(960,51,ls),
(960,5,o),
(954,0,o),
(910,0,cs),
(0,0,ls),
(-31,0,o),
(-40,2,o),
(-40,33,cs)
);
}
);
vertWidth = 0;
width = 1146;
},
{
anchors = (
{
name = "Anchor-0";
pos = (565,1500);
},
{
name = "Anchor-1";
pos = (242,0);
},
{
name = "Anchor-2";
pos = (242,0);
},
{
name = "Anchor-3";
pos = (242,0);
}
);
layerId = "6A50D5EA-2B4A-4D44-BCCC-14A16F5631EA";
shapes = (
{
closed = 1;
nodes = (
(-70,221,ls),
(-70,266,o),
(-57,270,o),
(-15,270,cs),
(43,270,ls),
(81,270,o),
(81,278,o),
(90,317,cs),
(280,1176,ls),
(289,1217,o),
(278,1230,o),
(235,1230,cs),
(213,1230,ls),
(172,1230,o),
(160,1234,o),
(160,1278,cs),
(160,1443,ls),
(160,1491,o),
(162,1500,o),
(210,1500,cs),
(856,1500,ls),
(904,1500,o),
(910,1489,o),
(910,1444,cs),
(910,1284,ls),
(910,1236,o),
(903,1230,o),
(857,1230,cs),
(800,1230,ls),
(756,1230,o),
(759,1218,o),
(750,1178,cs),
(560,314,ls),
(551,273,o),
(570,270,o),
(614,270,cs),
(632,270,ls),
(665,270,o),
(680,269,o),
(680,236,cs),
(680,50,ls),
(680,5,o),
(674,0,o),
(630,0,cs),
(-20,0,ls),
(-66,0,o),
(-70,9,o),
(-70,56,cs)
);
}
);
vertWidth = 0;
width = 770;
},
{
anchors = (
{
name = "Anchor-0";
pos = (420,1500);
},
{
name = "Anchor-1";
pos = (97,0);
},
{
name = "Anchor-2";
pos = (97,0);
},
{
name = "Anchor-3";
pos = (97,0);
}
);
layerId = "5A070E73-1DB9-476B-9E26-8EFE8B60F44F";
shapes = (
{
closed = 1;
nodes = (
(-105,82,ls),
(-105,105,o),
(-97,110,o),
(-75,110,cs),
(-31,110,ls),
(15,110,o),
(21,112,o),
(30,151,cs),
(295,1348,ls),
(304,1387,o),
(299,1390,o),
(249,1390,cs),
(217,1390,ls),
(191,1390,o),
(191,1395,o),
(191,1421,cs),
(191,1464,ls),
(191,1494,o),
(196,1500,o),
(225,1500,cs),
(585,1500,ls),
(613,1500,o),
(621,1496,o),
(621,1466,cs),
(621,1422,ls),
(621,1393,o),
(613,1390,o),
(583,1390,cs),
(539,1390,ls),
(497,1390,o),
(502,1379,o),
(495,1346,cs),
(232,150,ls),
(223,111,o),
(231,110,o),
(279,110,cs),
(311,110,ls),
(353,110,o),
(355,102,o),
(355,60,cs),
(355,38,ls),
(355,8,o),
(352,0,o),
(323,0,cs),
(-67,0,ls),
(-98,0,o),
(-105,4,o),
(-105,34,cs)
);
}
);
vertWidth = 0;
width = 520;
},
{
associatedMasterId = "5A070E73-1DB9-476B-9E26-8EFE8B60F44F";
layerId = "FCCBC061-5DB7-434A-88C8-CB1D338E0EAB";
name = Back;
shapes = (
{
closed = 1;
nodes = (
(219,154,ls),
(212,121,o),
(218,110,o),
(247,110,cs),
(307,110,ls),
(326,110,o),
(326,97,o),
(322,78,cs),
(312,32,ls),
(307,8,o),
(293,0,o),
(265,0,cs),
(-85,0,ls),
(-113,0,o),
(-124,7,o),
(-118,32,cs),
(-107,82,ls),
(-102,103,o),
(-93,110,o),
(-55,110,cs),
(-49,110,ls),
(-14,110,o),
(20,114,o),
(30,160,cs),
(296,1356,ls),
(302,1382,o),
(303,1390,o),
(273,1390,cs),
(217,1390,ls),
(191,1390,o),
(185,1399,o),
(190,1420,cs),
(202,1474,ls),
(208,1500,o),
(215,1500,o),
(238,1500,cs),
(602,1500,ls),
(632,1500,o),
(637,1497,o),
(630,1466,cs),
(622,1432,ls),
(614,1397,o),
(596,1390,o),
(571,1390,cs),
(531,1390,ls),
(499,1390,o),
(492,1387,o),
(485,1354,cs)
);
}
);
vertWidth = 0;
width = 520;
}
);
unicode = 73;
},
{
glyphname = J;
kernLeft = kc0_13;
kernRight = kc0_4;
lastChange = "2022-07-21 13:13:41 +0000";
layers = (
{
anchors = (
{
name = "Anchor-0";
pos = (895,1500);
},
{
name = "Anchor-1";
pos = (288,0);
},
{
name = "Anchor-2";
pos = (288,0);
}
);
layerId = "C788331E-5670-44D3-9D66-EAA382172B0D";
shapes = (
{
closed = 1;
nodes = (
(-60,414,o),
(18,480,o),
(98,480,cs),
(168,480,o),
(226,434,o),
(226,362,cs),
(226,244,o),
(138,276,o),
(138,192,cs),
(138,158,o),
(168,90,o),
(292,90,cs),
(434,90,o),
(589,214,o),
(652,480,cs),
(851,1362,ls),
(857,1389,o),
(849,1390,o),
(816,1390,cs),
(644,1390,ls),
(611,1390,o),
(602,1391,o),
(602,1424,cs),
(602,1460,ls),
(602,1496,o),
(610,1500,o),
(644,1500,cs),
(1276,1500,ls),
(1295,1500,o),
(1312,1497,o),
(1312,1476,cs),
(1312,1428,ls),
(1312,1395,o),
(1306,1390,o),
(1272,1390,cs),
(1088,1390,ls),
(1050,1390,o),
(1054,1381,o),
(1047,1352,cs),
(852,540,ls),
(772,220,o),
(574,-20,o),
(292,-20,cs),
(18,-20,o),
(-60,150,o),
(-60,290,cs)
);
}
);
vertWidth = 0;
width = 1192;
},
{
anchors = (
{
name = "Anchor-0";
pos = (1070,1500);
},
{
name = "Anchor-1";
pos = (408,0);
},
{
name = "Anchor-2";
pos = (408,0);
}
);
layerId = "166B8CC3-B8B2-42DF-8AC5-58EF4CD93FB2";
shapes = (
{
closed = 1;
nodes = (
(-80,654,o),
(68,800,o),
(248,800,cs),
(398,800,o),
(506,698,o),
(506,562,cs),
(506,364,o),
(332,366,o),
(332,302,cs),
(332,288,o),
(348,220,o),
(472,220,cs),
(574,220,o),
(649,290,o),
(692,480,cs),
(849,1175,ls),
(860,1223,o),
(860,1230,o),
(802,1230,cs),
(626,1230,ls),
(589,1230,o),
(582,1233,o),
(582,1269,cs),
(582,1459,ls),
(582,1498,o),
(590,1500,o),
(630,1500,cs),
(1522,1500,ls),
(1577,1500,o),
(1592,1496,o),
(1592,1437,cs),
(1592,1289,ls),
(1592,1236,o),
(1587,1230,o),
(1536,1230,cs),
(1398,1230,ls),
(1333,1230,o),
(1336,1224,o),
(1324,1173,cs),
(1172,540,ls),
(1082,163,o),
(874,-30,o),
(472,-30,cs),
(158,-30,o),
(-80,170,o),
(-80,430,cs)
);
}
);
vertWidth = 0;
width = 1452;
},
{
anchors = (
{
name = "Anchor-0";
pos = (895,1500);
},
{
name = "Anchor-1";
pos = (288,0);
},
{
name = "Anchor-2";
pos = (288,0);
}
);
layerId = "6A50D5EA-2B4A-4D44-BCCC-14A16F5631EA";
shapes = (
{
closed = 1;
nodes = (
(-50,594,o),
(38,740,o),
(218,740,cs),
(372,740,o),
(446,648,o),
(446,522,cs),
(446,342,o),
(340,304,o),
(340,248,cs),
(340,214,o),
(368,190,o),
(402,190,cs),
(454,190,o),
(456,270,o),
(502,480,cs),
(654,1172,ls),
(666,1225,o),
(641,1230,o),
(585,1230,cs),
(512,1230,ls),
(468,1230,o),
(454,1231,o),
(454,1278,cs),
(454,1442,ls),
(454,1491,o),
(455,1500,o),
(504,1500,cs),
(1214,1500,ls),
(1256,1500,o),
(1264,1493,o),
(1264,1449,cs),
(1264,1272,ls),
(1264,1231,o),
(1252,1230,o),
(1211,1230,cs),
(1142,1230,ls),
(1107,1230,o),
(1112,1215,o),
(1104,1181,cs),
(962,540,ls),
(877,180,o),
(714,-40,o),
(382,-40,cs),
(68,-40,o),
(-50,170,o),
(-50,390,cs)
);
}
);
vertWidth = 0;
width = 1112;
},
{
anchors = (
{
name = "Anchor-0";
pos = (665,1500);
},
{
name = "Anchor-1";
pos = (168,0);
},
{
name = "Anchor-2";
pos = (168,0);
}
);
layerId = "5A070E73-1DB9-476B-9E26-8EFE8B60F44F";
shapes = (
{
closed = 1;
nodes = (
(-100,424,o),
(-22,480,o),
(58,480,cs),
(128,480,o),
(186,434,o),
(186,362,cs),
(186,244,o),
(58,216,o),
(58,162,cs),
(58,128,o),
(78,90,o),
(172,90,cs),
(314,90,o),
(359,214,o),
(422,480,cs),
(621,1362,ls),
(627,1389,o),
(619,1390,o),
(586,1390,cs),
(514,1390,ls),
(481,1390,o),
(472,1391,o),
(472,1424,cs),
(472,1460,ls),
(472,1496,o),
(480,1500,o),
(514,1500,cs),
(936,1500,ls),
(955,1500,o),
(972,1497,o),
(972,1476,cs),
(972,1428,ls),
(972,1395,o),
(966,1390,o),
(932,1390,cs),
(858,1390,ls),
(820,1390,o),
(824,1381,o),
(817,1352,cs),
(622,540,ls),
(542,220,o),
(454,-20,o),
(172,-20,cs),
(-22,-20,o),
(-100,110,o),
(-100,250,cs)
);
}
);
vertWidth = 0;
width = 844;
},
{
associatedMasterId = "5A070E73-1DB9-476B-9E26-8EFE8B60F44F";
layerId = "C6E86E6D-DB2E-4C1E-BB3B-C686FB3626FA";
name = Back;
shapes = (
{
closed = 1;
nodes = (
(-71,404,o),
(9,470,o),
(89,470,cs),
(159,470,o),
(190,424,o),
(174,352,cs),
(145,222,o),
(82,244,o),
(63,160,cs),
(55,126,o),
(78,90,o),
(172,90,cs),
(304,90,o),
(366,200,o),
(428,480,cs),
(617,1331,ls),
(627,1376,o),
(628,1390,o),
(583,1390,cs),
(495,1390,ls),
(453,1390,o),
(451,1397,o),
(461,1440,cs),
(466,1460,ls),
(475,1499,o),
(489,1500,o),
(525,1500,cs),
(945,1500,ls),
(968,1500,o),
(984,1498,o),
(978,1472,cs),
(968,1424,ls),
(962,1397,o),
(957,1390,o),
(931,1390,cs),
(865,1390,ls),
(822,1390,o),
(819,1382,o),
(809,1338,cs),
(632,540,ls),
(561,220,o),
(450,-20,o),
(128,-20,cs),
(-66,-20,o),
(-133,120,o),
(-98,280,cs)
);
}
);
vertWidth = 0;
width = 844;
}
);
unicode = 74;
},
{
glyphname = K;
kernLeft = kc0_1;
kernRight = kc0_12;
lastChange = "2022-07-21 13:13:41 +0000";
layers = (
{
anchors = (
{
name = "Anchor-0";
pos = (1025,1500);
},
{
name = "Anchor-1";
pos = (730,0);
},
{
name = "Anchor-2";
pos = (730,0);
}
);
layerId = "C788331E-5670-44D3-9D66-EAA382172B0D";
shapes = (
{
closed = 1;
nodes = (
(-80,86,ls),
(-80,109,o),
(-71,110,o),
(-48,110,cs),
(98,110,ls),
(143,110,o),
(147,114,o),
(155,151,cs),
(420,1356,ls),
(426,1383,o),
(424,1390,o),
(388,1390,cs),
(256,1390,ls),
(231,1390,o),
(230,1399,o),
(230,1424,cs),
(230,1480,ls),
(230,1499,o),
(239,1500,o),
(258,1500,cs),
(816,1500,ls),
(845,1500,o),
(850,1494,o),
(850,1464,cs),
(850,1434,ls),
(850,1399,o),
(849,1390,o),
(814,1390,cs),
(652,1390,ls),
(622,1390,o),
(626,1381,o),
(621,1358,cs),
(480,720,ls),
(462,637,o),
(472,658,o),
(520,700,cs),
(1262,1357,ls),
(1288,1380,o),
(1297,1390,o),
(1234,1390,cs),
(1142,1390,ls),
(1108,1390,o),
(1104,1398,o),
(1104,1430,cs),
(1104,1466,ls),
(1104,1493,o),
(1108,1500,o),
(1134,1500,cs),
(1682,1500,ls),
(1707,1500,o),
(1708,1491,o),
(1708,1466,cs),
(1708,1428,ls),
(1708,1400,o),
(1703,1390,o),
(1673,1390,cs),
(1540,1390,ls),
(1485,1390,o),
(1477,1381,o),
(1450,1357,cs),
(892,870,ls),
(848,832,o),
(838,834,o),
(892,804,cs),
(1266,592,o),
(1134,110,o),
(1374,110,cs),
(1530,110,ls),
(1567,110,o),
(1572,104,o),
(1572,66,cs),
(1572,38,ls),
(1572,4,o),
(1564,0,o),
(1532,0,cs),
(1322,0,ls),
(851,0,o),
(1086,495,o),
(787,724,cs),
(750,752,o),
(745,742,o),
(712,713,cs),
(466,499,ls),
(435,472,o),
(423,460,o),
(412,410,cs),
(353,142,ls),
(347,114,o),
(352,110,o),
(388,110,cs),
(506,110,ls),
(537,110,o),
(540,102,o),
(540,70,cs),
(540,30,ls),
(540,0,o),
(530,0,o),
(500,0,cs),
(-48,0,ls),
(-77,0,o),
(-80,8,o),
(-80,38,cs)
);
}
);
vertWidth = 0;
width = 1728;
},
{
anchors = (
{
name = "Anchor-0";
pos = (1230,1500);
},
{
name = "Anchor-1";
pos = (860,0);
},
{
name = "Anchor-2";
pos = (860,0);
}
);
layerId = "166B8CC3-B8B2-42DF-8AC5-58EF4CD93FB2";
shapes = (
{
closed = 1;
nodes = (
(-100,215,ls),
(-100,266,o),
(-91,270,o),
(-42,270,cs),
(76,270,ls),
(124,270,o),
(123,274,o),
(131,312,cs),
(320,1174,ls),
(331,1226,o),
(326,1230,o),
(266,1230,cs),
(182,1230,ls),
(144,1230,o),
(130,1231,o),
(130,1272,cs),
(130,1462,ls),
(130,1493,o),
(134,1500,o),
(164,1500,cs),
(878,1500,ls),
(923,1500,o),
(942,1496,o),
(942,1447,cs),
(942,1270,ls),
(942,1226,o),
(931,1224,o),
(890,1224,cs),
(826,1224,ls),
(772,1224,o),
(780,1205,o),
(771,1164,cs),
(699,836,ls),
(692,803,o),
(699,793,o),
(736,825,cs),
(1144,1173,ls),
(1175,1199,o),
(1225,1224,o),
(1140,1224,cs),
(1094,1224,ls),
(1061,1224,o),
(1056,1231,o),
(1056,1262,cs),
(1056,1450,ls),
(1056,1499,o),
(1081,1500,o),
(1126,1500,cs),
(1812,1500,ls),
(1860,1500,o),
(1860,1500,o),
(1860,1452,cs),
(1860,1272,ls),
(1860,1231,o),
(1856,1224,o),
(1816,1224,cs),
(1670,1224,ls),
(1618,1224,o),
(1607,1218,o),
(1580,1196,cs),
(1148,845,ls),
(1091,799,o),
(1128,798,o),
(1188,775,cs),
(1564,630,o),
(1344,270,o),
(1606,270,cs),
(1696,270,ls),
(1737,270,o),
(1744,265,o),
(1744,222,cs),
(1744,52,ls),
(1744,2,o),
(1733,0,o),
(1686,0,cs),
(1274,0,ls),
(886,0,o),
(978,329,o),
(891,576,cs),
(872,631,o),
(864,615,o),
(826,584,cs),
(644,437,ls),
(625,422,o),
(605,413,o),
(599,384,cs),
(584,318,ls),
(575,276,o),
(576,270,o),
(630,270,cs),
(734,270,ls),
(762,270,o),
(772,266,o),
(772,236,cs),
(772,46,ls),
(772,0,o),
(757,0,o),
(714,0,cs),
(-62,0,ls),
(-100,0,o),
(-100,10,o),
(-100,48,cs)
);
}
);
vertWidth = 0;
width = 1860;
},
{
anchors = (
{
name = "Anchor-0";
pos = (885,1500);
},
{
name = "Anchor-1";
pos = (640,0);
},
{
name = "Anchor-2";
pos = (640,0);
}
);
layerId = "6A50D5EA-2B4A-4D44-BCCC-14A16F5631EA";
shapes = (
{
closed = 1;
nodes = (
(-60,215,ls),
(-60,266,o),
(-51,270,o),
(-2,270,cs),
(16,270,ls),
(64,270,o),
(63,274,o),
(71,312,cs),
(260,1174,ls),
(271,1226,o),
(266,1230,o),
(206,1230,cs),
(222,1230,ls),
(184,1230,o),
(170,1231,o),
(170,1272,cs),
(170,1462,ls),
(170,1493,o),
(174,1500,o),
(204,1500,cs),
(818,1500,ls),
(863,1500,o),
(882,1496,o),
(882,1447,cs),
(882,1270,ls),
(882,1226,o),
(871,1224,o),
(830,1224,cs),
(806,1224,ls),
(752,1224,o),
(738,1205,o),
(729,1164,cs),
(672,906,ls),
(665,873,o),
(687,858,o),
(719,895,cs),
(964,1173,ls),
(989,1204,o),
(995,1224,o),
(970,1224,cs),
(954,1224,ls),
(921,1224,o),
(916,1231,o),
(916,1262,cs),
(916,1450,ls),
(916,1499,o),
(941,1500,o),
(986,1500,cs),
(1547,1500,ls),
(1595,1500,o),
(1595,1500,o),
(1595,1452,cs),
(1595,1272,ls),
(1595,1231,o),
(1591,1224,o),
(1551,1224,cs),
(1480,1224,ls),
(1428,1224,o),
(1412,1222,o),
(1390,1196,cs),
(1088,845,ls),
(1041,790,o),
(1073,808,o),
(1128,775,cs),
(1374,630,o),
(1134,270,o),
(1316,270,cs),
(1346,270,ls),
(1387,270,o),
(1394,265,o),
(1394,222,cs),
(1394,52,ls),
(1394,2,o),
(1383,0,o),
(1336,0,cs),
(1094,0,ls),
(566,0,o),
(818,319,o),
(761,566,cs),
(748,623,o),
(726,611,o),
(696,574,cs),
(584,437,ls),
(569,419,o),
(555,413,o),
(549,384,cs),
(534,318,ls),
(525,276,o),
(516,270,o),
(570,270,cs),
(574,270,ls),
(602,270,o),
(612,266,o),
(612,236,cs),
(612,46,ls),
(612,0,o),
(597,0,o),
(554,0,cs),
(-22,0,ls),
(-60,0,o),
(-60,10,o),
(-60,48,cs)
);
}
);
vertWidth = 0;
width = 1480;
},
{
anchors = (
{
name = "Anchor-0";
pos = (735,1500);
},
{
name = "Anchor-1";
pos = (500,0);
},
{
name = "Anchor-2";
pos = (500,0);
}
);
layerId = "5A070E73-1DB9-476B-9E26-8EFE8B60F44F";
shapes = (
{
closed = 1;
nodes = (
(-110,86,ls),
(-110,109,o),
(-101,110,o),
(-78,110,cs),
(-32,110,ls),
(13,110,o),
(17,114,o),
(25,151,cs),
(290,1356,ls),
(296,1383,o),
(294,1390,o),
(258,1390,cs),
(216,1390,ls),
(191,1390,o),
(190,1399,o),
(190,1424,cs),
(190,1480,ls),
(190,1499,o),
(199,1500,o),
(218,1500,cs),
(586,1500,ls),
(615,1500,o),
(620,1494,o),
(620,1464,cs),
(620,1434,ls),
(620,1399,o),
(619,1390,o),
(584,1390,cs),
(522,1390,ls),
(492,1390,o),
(496,1381,o),
(491,1358,cs),
(350,720,ls),
(332,637,o),
(342,658,o),
(390,700,cs),
(972,1357,ls),
(994.848,1382.792,o),
(987,1390,o),
(944,1390,cs),
(902,1390,ls),
(868,1390,o),
(864,1398,o),
(864,1430,cs),
(864,1466,ls),
(864,1493,o),
(868,1500,o),
(894,1500,cs),
(1272,1500,ls),
(1297,1500,o),
(1298,1491,o),
(1298,1466,cs),
(1298,1428,ls),
(1298,1400,o),
(1293,1390,o),
(1263,1390,cs),
(1220,1390,ls),
(1175,1390,o),
(1154.28,1383.493,o),
(1130,1357,cs),
(702,890,ls),
(663.545,847.037,o),
(658,844,o),
(712,814,cs),
(1086,602,o),
(784,110,o),
(1024,110,cs),
(1080,110,ls),
(1117,110,o),
(1122,104,o),
(1122,66,cs),
(1122,38,ls),
(1122,4,o),
(1114,0,o),
(1082,0,cs),
(972,0,ls),
(501,0,o),
(813.318,552.731,o),
(623,720,cs),
(588.147,750.632,o),
(574.391,740.517,o),
(544,709,cs),
(336,499,ls),
(307.149,469.872,o),
(293,460,o),
(282,410,cs),
(223,142,ls),
(217,114,o),
(222,110,o),
(258,110,cs),
(296,110,ls),
(327,110,o),
(330,102,o),
(330,70,cs),
(330,30,ls),
(330,0,o),
(320,0,o),
(290,0,cs),
(-78,0,ls),
(-107,0,o),
(-110,8,o),
(-110,38,cs)
);
}
);
vertWidth = 0;
width = 1253;
},
{
associatedMasterId = "5A070E73-1DB9-476B-9E26-8EFE8B60F44F";
layerId = "2966A987-2FBC-4A4E-A3F1-29B4D62D44C0";
name = Back;
shapes = (
{
closed = 1;
nodes = (
(-115,78,ls),
(-109,105,o),
(-101,110,o),
(-76,110,cs),
(-30,110,ls),
(9,110,o),
(15,120,o),
(23,156,cs),
(289,1358,ls),
(296,1390,o),
(296,1390,o),
(264,1390,cs),
(208,1390,ls),
(179,1390,o),
(175,1388,o),
(182,1418,cs),
(194,1470,ls),
(199,1494,o),
(206,1500,o),
(229,1500,cs),
(621,1500,ls),
(644,1500,o),
(650,1495,o),
(644,1470,cs),
(635,1432,ls),
(626,1393,o),
(616,1390,o),
(580,1390,cs),
(534,1390,ls),
(488,1390,o),
(484,1380,o),
(474,1334,cs),
(340,732,ls),
(327,675,o),
(341,663,o),
(373,705,cs),
(975,1356,ls),
(998,1382,o),
(979,1390,o),
(954,1390,cs),
(886,1390,ls),
(850,1390,o),
(857,1398,o),
(865,1432,cs),
(873,1464,ls),
(880,1497,o),
(892,1500,o),
(923,1500,cs),
(1275,1500,ls),
(1307,1500,o),
(1309,1493,o),
(1302,1460,cs),
(1296,1434,ls),
(1288,1397,o),
(1282,1390,o),
(1246,1390,cs),
(1188,1390,ls),
(1139,1390,o),
(1139,1382,o),
(1115,1356,cs),
(760,966,ls),
(736,941,o),
(740,905,o),
(748,880,cs),
(965,146,ls),
(974,119,o),
(987,110,o),
(1033,110,cs),
(1067,110,ls),
(1100,110,o),
(1107,105,o),
(1099,70,cs),
(1091,34,ls),
(1083,0,o),
(1083,0,o),
(1049,0,cs),
(642,0,ls),
(613,0,o),
(610,7,o),
(616,34,cs),
(623,66,ls),
(631,102,o),
(625,110,o),
(660,110,cs),
(673,110,ls),
(720,110,o),
(750,129,o),
(742,150,cs),
(586,720,ls),
(575,747,o),
(550,757,o),
(522,726,cs),
(311,490,ls),
(293,463,o),
(275,439,o),
(265,394,cs),
(211,150,ls),
(203,115,o),
(208,110,o),
(244,110,cs),
(306,110,ls),
(338,110,o),
(341,102,o),
(334,72,cs),
(327,40,ls),
(319,6,o),
(313,0,o),
(280,0,cs),
(-98,0,ls),
(-128,0,o),
(-131,7,o),
(-124,38,cs)
);
}
);
vertWidth = 0;
width = 1253;
}
);
unicode = 75;
},
{
glyphname = L;
kernLeft = kc0_1;
kernRight = kc0_11;
lastChange = "2022-07-21 13:13:41 +0000";
layers = (
{
anchors = (
{
name = "Anchor-0";
pos = (543,1500);
},
{
name = "Anchor-1";
pos = (889,943);
},
{
name = "Anchor-2";
pos = (526,0);
}
);
layerId = "C788331E-5670-44D3-9D66-EAA382172B0D";
shapes = (
{
closed = 1;
nodes = (
(-80,84,ls),
(-80,107,o),
(-63,110,o),
(-42,110,cs),
(118,110,ls),
(169,110,o),
(170,112,o),
(179,154,cs),
(437,1357,ls),
(443,1387,o),
(441,1390,o),
(406,1390,cs),
(238,1390,ls),
(209,1390,o),
(208,1399,o),
(208,1428,cs),
(208,1464,ls),
(208,1491,o),
(209,1500,o),
(236,1500,cs),
(846,1500,ls),
(873,1500,o),
(880,1495,o),
(880,1466,cs),
(880,1424,ls),
(880,1397,o),
(876,1390,o),
(850,1390,cs),
(672,1390,ls),
(638,1390,o),
(641,1383,o),
(635,1356,cs),
(381,166,ls),
(372,122,o),
(378,110,o),
(436,110,cs),
(772,110,ls),
(1034,110,o),
(1142,189,o),
(1221,470,cs),
(1230,501,o),
(1234,510,o),
(1276,510,cs),
(1304,510,ls),
(1325,510,o),
(1330,503,o),
(1326,487,cs),
(1222,42,ls),
(1214,9,o),
(1209,0,o),
(1166,0,cs),
(-40,0,ls),
(-71,0,o),
(-80,1,o),
(-80,32,cs)
);
}
);
vertWidth = 0;
width = 1432;
},
{
anchors = (
{
name = "Anchor-0";
pos = (678,1500);
},
{
name = "Anchor-1";
pos = (1114,943);
},
{
name = "Anchor-2";
pos = (646,0);
}
);
layerId = "166B8CC3-B8B2-42DF-8AC5-58EF4CD93FB2";
shapes = (
{
closed = 1;
nodes = (
(-100,225,ls),
(-100,260,o),
(-99,270,o),
(-64,270,cs),
(106,270,ls),
(165,270,o),
(164,273,o),
(174,321,cs),
(357,1177,ls),
(368,1229,o),
(361,1230,o),
(298,1230,cs),
(202,1230,ls),
(158,1230,o),
(148,1231,o),
(148,1275,cs),
(148,1465,ls),
(148,1499,o),
(157,1500,o),
(192,1500,cs),
(1054,1500,ls),
(1094,1500,o),
(1100,1495,o),
(1100,1453,cs),
(1100,1278,ls),
(1100,1238,o),
(1097,1230,o),
(1058,1230,cs),
(910,1230,ls),
(848,1230,o),
(848,1228,o),
(837,1177,cs),
(656,327,ls),
(645,278,o),
(645,270,o),
(708,270,cs),
(812,270,ls),
(1075,270,o),
(1174,360,o),
(1252,645,cs),
(1262,683,o),
(1266,690,o),
(1314,690,cs),
(1446,690,ls),
(1492,690,o),
(1500,681,o),
(1492,643,cs),
(1359,31,ls),
(1353,2,o),
(1342,0,o),
(1306,0,cs),
(-40,0,ls),
(-90,0,o),
(-100,3,o),
(-100,55,cs)
);
}
);
vertWidth = 0;
width = 1602;
},
{
anchors = (
{
name = "Anchor-0";
pos = (543,1500);
},
{
name = "Anchor-1";
pos = (406,0);
},
{
name = "Anchor-2";
pos = (406,0);
}
);
layerId = "6A50D5EA-2B4A-4D44-BCCC-14A16F5631EA";
shapes = (
{
closed = 1;
nodes = (
(-80,234,ls),
(-80,261,o),
(-77,270,o),
(-51,270,cs),
(7,270,ls),
(41,270,o),
(60,279,o),
(70,323,cs),
(260,1180,ls),
(269,1219,o),
(257,1230,o),
(217,1230,cs),
(205,1230,ls),
(175,1230,o),
(170,1236,o),
(170,1268,cs),
(170,1446,ls),
(170,1491,o),
(172,1500,o),
(217,1500,cs),
(851,1500,ls),
(891,1500,o),
(920,1495,o),
(920,1452,cs),
(920,1278,ls),
(920,1234,o),
(908,1230,o),
(867,1230,cs),
(799,1230,ls),
(760,1230,o),
(738,1227,o),
(730,1190,cs),
(540,326,ls),
(530,281,o),
(542,270,o),
(589,270,cs),
(610,270,ls),
(733,270,o),
(753,348,o),
(844,646,cs),
(856,685,o),
(873,690,o),
(916,690,cs),
(1034,690,ls),
(1067,690,o),
(1085,686,o),
(1085,654,cs),
(950,52,ls),
(941,11,o),
(917,0,o),
(875,0,cs),
(-35,0,ls),
(-75,0,o),
(-80,6,o),
(-80,48,cs)
);
}
);
vertWidth = 0;
width = 1100;
},
{
anchors = (
{
name = "Anchor-0";
pos = (393,1500);
},
{
name = "Anchor-1";
pos = (559,943);
},
{
name = "Anchor-2";
pos = (376,0);
}
);
layerId = "5A070E73-1DB9-476B-9E26-8EFE8B60F44F";
shapes = (
{
closed = 1;
nodes = (
(-110,84,ls),
(-110,107,o),
(-93,110,o),
(-72,110,cs),
(-32,110,ls),
(19,110,o),
(20,112,o),
(29,154,cs),
(287,1357,ls),
(293,1387,o),
(291,1390,o),
(256,1390,cs),
(218,1390,ls),
(189,1390,o),
(188,1399,o),
(188,1428,cs),
(188,1464,ls),
(188,1491,o),
(189,1500,o),
(216,1500,cs),
(576,1500,ls),
(603,1500,o),
(610,1495,o),
(610,1466,cs),
(610,1424,ls),
(610,1397,o),
(606,1390,o),
(580,1390,cs),
(522,1390,ls),
(488,1390,o),
(491,1383,o),
(485,1356,cs),
(231,166,ls),
(222,122,o),
(228,110,o),
(286,110,cs),
(392,110,ls),
(584,110,o),
(692,189,o),
(771,470,cs),
(780,501,o),
(784,510,o),
(826,510,cs),
(854,510,ls),
(875,510,o),
(880,503,o),
(876,487,cs),
(772,42,ls),
(764,9,o),
(759,0,o),
(716,0,cs),
(-70,0,ls),
(-101,0,o),
(-110,1,o),
(-110,32,cs)
);
}
);
vertWidth = 0;
width = 976;
},
{
associatedMasterId = "5A070E73-1DB9-476B-9E26-8EFE8B60F44F";
layerId = "EEBC0134-246B-4A21-AB58-3EF8ED4996CD";
name = Back;
shapes = (
{
closed = 1;
nodes = (
(207,1390,ls),
(181,1390,o),
(178,1396,o),
(184,1424,cs),
(194,1471,ls),
(200,1496,o),
(208,1500,o),
(234,1500,cs),
(590,1500,ls),
(622,1500,o),
(630,1498,o),
(623,1466,cs),
(614,1424,ls),
(608,1395,o),
(598,1390,o),
(571,1390,cs),
(527,1390,ls),
(497,1390,o),
(485,1384,o),
(478,1351,cs),
(209,142,ls),
(203,113,o),
(214,110,o),
(244,110,cs),
(412,110,ls),
(580,110,o),
(716,230,o),
(775,482,cs),
(779,501,o),
(783,510,o),
(802,510,cs),
(844,510,ls),
(871,510,o),
(881,509,o),
(875,482,cs),
(778,46,ls),
(770,9,o),
(766,0,o),
(729,0,cs),
(-89,0,ls),
(-120,0,o),
(-131,3,o),
(-124,36,cs),
(-115,78,ls),
(-110,102,o),
(-106,110,o),
(-83,110,cs),
(-35,110,ls),
(3,110,o),
(13,112,o),
(21,150,cs),
(288,1352,ls),
(295,1385,o),
(289,1390,o),
(254,1390,cs)
);
}
);
vertWidth = 0;
width = 976;
}
);
unicode = 76;
},
{
glyphname = Lslash;
kernLeft = kc0_1;
kernRight = kc0_11;
lastChange = "2022-07-21 13:13:41 +0000";
layers = (
{
layerId = "C788331E-5670-44D3-9D66-EAA382172B0D";
shapes = (
{
closed = 1;
nodes = (
(778,1139,ls),
(798,1152,o),
(811,1173,o),
(811,1132,cs),
(811,1083,ls),
(811,1048,o),
(809,1044,o),
(788,1031,cs),
(150,625,ls),
(130,613,o),
(120,594,o),
(120,634,cs),
(120,695,ls),
(120,725,o),
(127,725,o),
(144,736,cs)
);
},
{
ref = L;
}
);
vertWidth = 0;
width = 1455;
},
{
layerId = "166B8CC3-B8B2-42DF-8AC5-58EF4CD93FB2";
shapes = (
{
closed = 1;
nodes = (
(1068,1139,ls),
(1089,1148,o),
(1101,1152,o),
(1101,1122,cs),
(1101,913,ls),
(1101,888,o),
(1099,884,o),
(1078,871,cs),
(40,465,ls),
(20,453,o),
(10,454,o),
(10,484,cs),
(10,695,ls),
(10,725,o),
(17,725,o),
(34,736,cs)
);
},
{
ref = L;
}
);
vertWidth = 0;
width = 1455;
},
{
layerId = "6A50D5EA-2B4A-4D44-BCCC-14A16F5631EA";
shapes = (
{
closed = 1;
nodes = (
(828,1039,ls),
(849,1048,o),
(861,1052,o),
(861,1022,cs),
(861,813,ls),
(861,788,o),
(859,784,o),
(838,771,cs),
(20,465,ls),
(0,453,o),
(-10,454,o),
(-10,484,cs),
(-10,695,ls),
(-10,725,o),
(-3,725,o),
(14,736,cs)
);
},
{
ref = L;
}
);
vertWidth = 0;
width = 1100;
},
{
layerId = "5A070E73-1DB9-476B-9E26-8EFE8B60F44F";
shapes = (
{
closed = 1;
nodes = (
(658,1139,ls),
(678,1152,o),
(691,1173,o),
(691,1132,cs),
(691,1083,ls),
(691,1048,o),
(689,1044,o),
(668,1031,cs),
(30,625,ls),
(10,613,o),
(0,594,o),
(0,634,cs),
(0,695,ls),
(0,725,o),
(7,725,o),
(24,736,cs)
);
},
{
ref = L;
}
);
vertWidth = 0;
width = 976;
}
);
unicode = 321;
},
{
glyphname = M;
kernLeft = kc0_1;
kernRight = kc0_1;
lastChange = "2022-07-21 13:13:41 +0000";
layers = (
{
anchors = (
{
name = "Anchor-0";
pos = (1155,1500);
},
{
name = "Anchor-1";
pos = (816,0);
},
{
name = "Anchor-2";
pos = (816,0);
}
);
layerId = "C788331E-5670-44D3-9D66-EAA382172B0D";
shapes = (
{
closed = 1;
nodes = (
(910,6,ls),
(898,-16,o),
(887,-20,o),
(852,-20,cs),
(788,-20,ls),
(760,-20,o),
(756,-5,o),
(753,18,cs),
(590,1298,ls),
(586,1329,o),
(592,1354,o),
(581,1354,cs),
(573,1354,o),
(571,1336,o),
(564,1306,cs),
(278,146,ls),
(269,111,o),
(276,110,o),
(320,110,cs),
(470,110,ls),
(491,110,o),
(500,105,o),
(500,82,cs),
(500,28,ls),
(500,1,o),
(491,0,o),
(464,0,cs),
(-62,0,ls),
(-91,0,o),
(-100,1,o),
(-100,30,cs),
(-100,74,ls),
(-100,103,o),
(-96,110,o),
(-68,110,cs),
(74,110,ls),
(131,110,o),
(134,111,o),
(146,156,cs),
(447,1346,ls),
(457,1387,o),
(453,1390,o),
(400,1390,cs),
(272,1390,ls),
(242,1390,o),
(234,1393,o),
(234,1422,cs),
(234,1462,ls),
(234,1499,o),
(249,1500,o),
(282,1500,cs),
(668,1500,ls),
(735,1500,o),
(745,1496,o),
(752,1434,cs),
(877,360,ls),
(886,285,o),
(877,255,o),
(897,255,cs),
(915,255,o),
(932,302,o),
(963,360,cs),
(1561,1468,ls),
(1575,1494,o),
(1585,1500,o),
(1626,1500,cs),
(2032,1500,ls),
(2056,1500,o),
(2066,1496,o),
(2066,1470,cs),
(2066,1428,ls),
(2066,1393,o),
(2058,1390,o),
(2022,1390,cs),
(1866,1390,ls),
(1837,1390,o),
(1826,1389,o),
(1822,1364,cs),
(1612,148,ls),
(1606,115,o),
(1610,110,o),
(1650,110,cs),
(1824,110,ls),
(1861,110,o),
(1862,102,o),
(1862,65,cs),
(1862,38,ls),
(1862,1,o),
(1853,0,o),
(1816,0,cs),
(1216,0,ls),
(1187,0,o),
(1182,6,o),
(1182,36,cs),
(1182,68,ls),
(1182,103,o),
(1187,110,o),
(1224,110,cs),
(1390,110,ls),
(1432,110,o),
(1427,118,o),
(1433,152,cs),
(1622,1200,ls),
(1639,1292,o),
(1654,1331,o),
(1638,1331,cs),
(1621,1331,o),
(1610,1288,o),
(1573,1220,cs)
);
}
);
vertWidth = 0;
width = 2046;
},
{
anchors = (
{
name = "Anchor-0";
pos = (1470,1500);
},
{
name = "Anchor-1";
pos = (995,0);
},
{
name = "Anchor-2";
pos = (995,0);
}
);
layerId = "166B8CC3-B8B2-42DF-8AC5-58EF4CD93FB2";
shapes = (
{
closed = 1;
nodes = (
(1041,25,ls),
(1022,-9,o),
(1023,-20,o),
(966,-20,cs),
(804,-20,ls),
(739,-20,o),
(738,-19,o),
(729,37,cs),
(607,821,ls),
(591,927,o),
(598,1004,o),
(578,1004,cs),
(558,1004,o),
(552,934,o),
(526,829,cs),
(400,317,ls),
(389,272,o),
(395,270,o),
(452,270,cs),
(558,270,ls),
(598,270,o),
(600,262,o),
(600,221,cs),
(600,49,ls),
(600,5,o),
(594,0,o),
(548,0,cs),
(-54,0,ls),
(-110,0,o),
(-120,1,o),
(-120,57,cs),
(-120,232,ls),
(-120,263,o),
(-114,270,o),
(-84,270,cs),
(54,270,ls),
(121,270,o),
(117,279,o),
(130,331,cs),
(342,1167,ls),
(356,1221,o),
(358,1230,o),
(286,1230,cs),
(214,1230,ls),
(160,1230,o),
(154,1235,o),
(154,1287,cs),
(154,1455,ls),
(154,1500,o),
(170,1500,o),
(212,1500,cs),
(928,1500,ls),
(997,1500,o),
(1003,1494,o),
(1013,1433,cs),
(1111,843,ls),
(1127,745,o),
(1128,688,o),
(1142,688,cs),
(1159,688,o),
(1192,764,o),
(1235,839,cs),
(1586,1445,ls),
(1611,1489,o),
(1622,1500,o),
(1694,1500,cs),
(2300,1500,ls),
(2339,1500,o),
(2346,1497,o),
(2346,1459,cs),
(2346,1299,ls),
(2346,1238,o),
(2343,1230,o),
(2282,1230,cs),
(2128,1230,ls),
(2084,1230,o),
(2083,1229,o),
(2077,1191,cs),
(1937,331,ls),
(1928,277,o),
(1932,270,o),
(1994,270,cs),
(2112,270,ls),
(2155,270,o),
(2162,267,o),
(2162,225,cs),
(2162,57,ls),
(2162,3,o),
(2152,0,o),
(2100,0,cs),
(1350,0,ls),
(1293,0,o),
(1282,2,o),
(1282,61,cs),
(1282,209,ls),
(1282,265,o),
(1288,270,o),
(1342,270,cs),
(1398,270,ls),
(1476,270,o),
(1472,278,o),
(1483,343,cs),
(1566,841,ls),
(1582,934,o),
(1634,1000,o),
(1601,1000,cs),
(1581,1000,o),
(1547,930,o),
(1503,851,cs)
);
}
);
vertWidth = 0;
width = 2306;
},
{
anchors = (
{
name = "Anchor-0";
pos = (1105,1500);
},
{
name = "Anchor-1";
pos = (696,0);
},
{
name = "Anchor-2";
pos = (696,0);
}
);
layerId = "6A50D5EA-2B4A-4D44-BCCC-14A16F5631EA";
shapes = (
{
closed = 1;
nodes = (
(907,21,ls),
(889,-21,o),
(885,-30,o),
(826,-30,cs),
(586,-30,ls),
(527,-30,o),
(501,-20,o),
(504,21,cs),
(577,887,ls),
(583,963,o),
(602,1098,o),
(576,1097,cs),
(558,1096,o),
(549,1041,o),
(531,973,cs),
(362,341,ls),
(350,296,o),
(349,270,o),
(404,270,cs),
(406,270,ls),
(443,270,o),
(450,263,o),
(450,225,cs),
(450,51,ls),
(450,2,o),
(438,0,o),
(392,0,cs),
(-28,0,ls),
(-75,0,o),
(-80,6,o),
(-80,55,cs),
(-80,235,ls),
(-80,263,o),
(-77,270,o),
(-50,270,cs),
(8,270,ls),
(68,270,o),
(81,297,o),
(95,347,cs),
(329,1195,ls),
(338,1226,o),
(324,1230,o),
(292,1230,cs),
(288,1230,ls),
(251,1230,o),
(240,1249,o),
(240,1287,cs),
(240,1439,ls),
(240,1480,o),
(258,1500,o),
(296,1500,cs),
(931,1500,ls),
(1010,1500,o),
(1024,1471,o),
(1020,1417,cs),
(986,989,ls),
(981,925,o),
(969,853,o),
(989,853,cs),
(1011,853,o),
(1030,891,o),
(1056,957,cs),
(1257,1459,ls),
(1271,1496,o),
(1302,1500,o),
(1354,1500,cs),
(1850,1500,ls),
(1901,1500,o),
(1930,1492,o),
(1930,1437,cs),
(1930,1291,ls),
(1930,1242,o),
(1922,1230,o),
(1872,1230,cs),
(1840,1230,ls),
(1797,1230,o),
(1797,1226,o),
(1790,1187,cs),
(1630,311,ls),
(1624,277,o),
(1626,270,o),
(1664,270,cs),
(1694,270,ls),
(1727,270,o),
(1730,253,o),
(1730,219,cs),
(1730,55,ls),
(1730,12,o),
(1718,0,o),
(1672,0,cs),
(1106,0,ls),
(1062,0,o),
(1060,8,o),
(1060,53,cs),
(1060,223,ls),
(1060,268,o),
(1072,270,o),
(1114,270,cs),
(1140,270,ls),
(1182,270,o),
(1194,282,o),
(1202,322,cs),
(1270,683,ls),
(1295,817,o),
(1357,957,o),
(1320,957,cs),
(1295,957,o),
(1291,919,o),
(1254,833,cs)
);
}
);
vertWidth = 0;
width = 1830;
},
{
anchors = (
{
name = "Anchor-0";
pos = (835,1500);
},
{
name = "Anchor-1";
pos = (496,0);
},
{
name = "Anchor-2";
pos = (496,0);
}
);
layerId = "5A070E73-1DB9-476B-9E26-8EFE8B60F44F";
shapes = (
{
closed = 1;
nodes = (
(590,6,ls),
(578,-16,o),
(567,-20,o),
(532,-20,cs),
(468,-20,ls),
(440,-20,o),
(436,-5,o),
(433,18,cs),
(480,1298,ls),
(476,1329,o),
(482,1354,o),
(471,1354,cs),
(463,1354,o),
(461,1336,o),
(454,1306,cs),
(168,146,ls),
(159,111,o),
(166,110,o),
(210,110,cs),
(240,110,ls),
(261,110,o),
(270,105,o),
(270,82,cs),
(270,28,ls),
(270,1,o),
(261,0,o),
(234,0,cs),
(-72,0,ls),
(-101,0,o),
(-110,1,o),
(-110,30,cs),
(-110,74,ls),
(-110,103,o),
(-106,110,o),
(-78,110,cs),
(-36,110,ls),
(21,110,o),
(24,111,o),
(36,156,cs),
(337,1346,ls),
(347,1387,o),
(343,1390,o),
(290,1390,cs),
(282,1390,ls),
(252,1390,o),
(244,1393,o),
(244,1422,cs),
(244,1462,ls),
(244,1499,o),
(259,1500,o),
(292,1500,cs),
(588,1500,ls),
(655,1500,o),
(674.988,1495.541,o),
(672,1434,cs),
(630,569,ls),
(626.584,494.57,o),
(617,464,o),
(637,464,cs),
(655,464,o),
(662.268,509.22,o),
(689,569,cs),
(1091,1468,ls),
(1103,1494.835,o),
(1115,1500,o),
(1156,1500,cs),
(1452,1500,ls),
(1476,1500,o),
(1486,1496,o),
(1486,1470,cs),
(1486,1428,ls),
(1486,1393,o),
(1478,1390,o),
(1442,1390,cs),
(1396,1390,ls),
(1367,1390,o),
(1356,1389,o),
(1352,1364,cs),
(1142,148,ls),
(1136,115,o),
(1140,110,o),
(1180,110,cs),
(1224,110,ls),
(1261,110,o),
(1262,102,o),
(1262,65,cs),
(1262,38,ls),
(1262,1,o),
(1253,0,o),
(1216,0,cs),
(856,0,ls),
(827,0,o),
(822,6,o),
(822,36,cs),
(822,68,ls),
(822,103,o),
(827,110,o),
(864,110,cs),
(920,110,ls),
(962,110,o),
(957,118,o),
(963,152,cs),
(1152,1200,ls),
(1168.604,1292.071,o),
(1176,1331,o),
(1160,1331,cs),
(1143,1331,o),
(1132.987,1290.963,o),
(1103,1220,cs)
);
}
);
vertWidth = 0;
width = 1440;
},
{
associatedMasterId = "5A070E73-1DB9-476B-9E26-8EFE8B60F44F";
layerId = "CC42BC61-6E21-4FC0-879E-5C3953C106C7";
name = Back;
shapes = (
{
closed = 1;
nodes = (
(267,1390,ls),
(240,1390,o),
(234,1394,o),
(240,1420,cs),
(250,1466,ls),
(257,1498,o),
(271,1500,o),
(300,1500,cs),
(632,1500,ls),
(676,1500,o),
(667,1485,o),
(670,1454,cs),
(630,478,ls),
(631,439,o),
(623,411,o),
(634,411,cs),
(643,411,o),
(649,433,o),
(665,468,cs),
(1111,1466,ls),
(1126,1493,o),
(1125,1500,o),
(1162,1500,cs),
(1472,1500,ls),
(1501,1500,o),
(1507,1495,o),
(1500,1464,cs),
(1494,1440,ls),
(1484,1397,o),
(1479,1390,o),
(1437,1390,cs),
(1410,1390,ls),
(1373,1390,o),
(1364,1370,o),
(1357,1336,cs),
(1143,152,ls),
(1137,119,o),
(1139,110,o),
(1175,110,cs),
(1221,110,ls),
(1259,110,o),
(1259,110,o),
(1251,72,cs),
(1244,42,ls),
(1236,8,o),
(1232,0,o),
(1199,0,cs),
(828,0,ls),
(797,0,o),
(781,5,o),
(788,38,cs),
(794,62,ls),
(803,101,o),
(805,110,o),
(844,110,cs),
(900,110,ls),
(935,110,o),
(943,120,o),
(949,152,cs),
(1119,1079,ls),
(1129,1131,o),
(1159,1246,o),
(1150,1246,cs),
(1128,1246,o),
(1090,1143,o),
(1070,1082,cs),
(576,16,ls),
(563,-8,o),
(554,-20,o),
(520,-20,cs),
(479,-20,ls),
(431,-20,o),
(430,0,o),
(427,34,cs),
(465,1228,ls),
(471,1271,o),
(506,1360,o),
(481,1360,cs),
(474,1360,o),
(466,1340,o),
(449,1278,cs),
(160,175,ls),
(146,120,o),
(154,110,o),
(211,110,cs),
(233,110,ls),
(271,110,o),
(279,106,o),
(270,66,cs),
(264,40,ls),
(256,5,o),
(239,0,o),
(203,0,cs),
(-91,0,ls),
(-128,0,o),
(-134,4,o),
(-126,40,cs),
(-120,68,ls),
(-112,105,o),
(-105,110,o),
(-69,110,cs),
(-31,110,ls),
(2,110,o),
(19,125,o),
(26,154,cs),
(348,1350,ls),
(355,1377,o),
(351,1390,o),
(321,1390,cs)
);
}
);
vertWidth = 0;
width = 1440;
}
);
unicode = 77;
},
{
glyphname = N;
kernLeft = kc0_1;
kernRight = kc0_1;
lastChange = "2022-07-21 13:13:41 +0000";
layers = (
{
anchors = (
{
name = "Anchor-0";
pos = (1055,1500);
},
{
name = "Anchor-1";
pos = (816,0);
},
{
name = "Anchor-2";
pos = (816,0);
}
);
layerId = "C788331E-5670-44D3-9D66-EAA382172B0D";
shapes = (
{
closed = 1;
nodes = (
(277,1390,ls),
(248,1390,o),
(240,1393,o),
(240,1421,cs),
(240,1471,ls),
(240,1495,o),
(248,1500,o),
(270,1500,cs),
(618,1500,ls),
(660,1500,o),
(670,1493,o),
(684,1467,cs),
(1256,407,ls),
(1271,380,o),
(1273,360,o),
(1284,360,cs),
(1294,360,o),
(1294,374,o),
(1301,409,cs),
(1502,1355,ls),
(1508,1383,o),
(1494,1390,o),
(1462,1390,cs),
(1324,1390,ls),
(1289,1390,o),
(1286,1397,o),
(1286,1433,cs),
(1286,1467,ls),
(1286,1496,o),
(1295,1500,o),
(1322,1500,cs),
(1844,1500,ls),
(1873,1500,o),
(1876,1493,o),
(1876,1463,cs),
(1876,1423,ls),
(1876,1396,o),
(1871,1390,o),
(1842,1390,cs),
(1670,1390,ls),
(1635,1390,o),
(1636,1387,o),
(1630,1359,cs),
(1344,1,ls),
(1341,-14,o),
(1339,-20,o),
(1319,-20,cs),
(1308,-20,ls),
(1285,-20,o),
(1276,-13,o),
(1268,1,cs),
(563,1247,ls),
(548,1273,o),
(544,1288,o),
(536,1288,cs),
(526,1288,o),
(528,1273,o),
(521,1241,cs),
(286,141,ls),
(279,106,o),
(284,110,o),
(324,110,cs),
(482,110,ls),
(506,110,o),
(520,107,o),
(520,81,cs),
(520,41,ls),
(520,2,o),
(508,0,o),
(472,0,cs),
(-48,0,ls),
(-73,0,o),
(-80,3,o),
(-80,27,cs),
(-80,75,ls),
(-80,103,o),
(-77,110,o),
(-50,110,cs),
(124,110,ls),
(157,110,o),
(154,115,o),
(160,141,cs),
(417,1343,ls),
(425,1382,o),
(425,1390,o),
(374,1390,cs)
);
}
);
vertWidth = 0;
width = 1796;
},
{
anchors = (
{
name = "Anchor-0";
pos = (1040,1500);
},
{
name = "Anchor-1";
pos = (766,0);
},
{
name = "Anchor-2";
pos = (766,0);
}
);
layerId = "166B8CC3-B8B2-42DF-8AC5-58EF4CD93FB2";
shapes = (
{
closed = 1;
nodes = (
(168,1230,ls),
(127,1230,o),
(120,1234,o),
(120,1274,cs),
(120,1460,ls),
(120,1498,o),
(128,1500,o),
(167,1500,cs),
(814,1500,ls),
(873,1500,o),
(889,1496,o),
(911,1461,cs),
(1283,885,ls),
(1312,841,o),
(1318,793,o),
(1340,793,cs),
(1360,793,o),
(1358,824,o),
(1370,880,cs),
(1435,1189,ls),
(1442,1225,o),
(1439,1230,o),
(1394,1230,cs),
(1319,1230,ls),
(1282,1230,o),
(1276,1236,o),
(1276,1272,cs),
(1276,1460,ls),
(1276,1494,o),
(1281,1500,o),
(1317,1500,cs),
(1922,1500,ls),
(1950,1500,o),
(1956,1494,o),
(1956,1467,cs),
(1956,1271,ls),
(1956,1236,o),
(1951,1230,o),
(1917,1230,cs),
(1746,1230,ls),
(1704,1230,o),
(1703,1229,o),
(1696,1195,cs),
(1448,20,ls),
(1442,-11,o),
(1437,-20,o),
(1400,-20,cs),
(1232,-20,ls),
(1186,-20,o),
(1175,-12,o),
(1158,15,cs),
(607,887,ls),
(576,936,o),
(570,983,o),
(547,983,cs),
(527,983,o),
(528,948,o),
(515,888,cs),
(390,307,ls),
(384,279,o),
(384,270,o),
(417,270,cs),
(535,270,ls),
(560,270,o),
(570,270,o),
(570,245,cs),
(570,35,ls),
(570,5,o),
(564,0,o),
(536,0,cs),
(-72,0,ls),
(-96,0,o),
(-100,7,o),
(-100,32,cs),
(-100,225,ls),
(-100,261,o),
(-99,270,o),
(-63,270,cs),
(86,270,ls),
(127,270,o),
(128,271,o),
(135,304,cs),
(321,1177,ls),
(331,1225,o),
(327,1230,o),
(271,1230,cs)
);
}
);
vertWidth = 0;
width = 1916;
},
{
anchors = (
{
name = "Anchor-0";
pos = (735,1500);
},
{
name = "Anchor-1";
pos = (486,0);
},
{
name = "Anchor-2";
pos = (486,0);
}
);
layerId = "6A50D5EA-2B4A-4D44-BCCC-14A16F5631EA";
shapes = (
{
closed = 1;
nodes = (
(185,1230,ls),
(150,1230,o),
(140,1233,o),
(140,1267,cs),
(140,1436,ls),
(140,1494,o),
(149,1500,o),
(205,1500,cs),
(647,1500,ls),
(720,1500,o),
(759,1500,o),
(768,1459,cs),
(890,899,ls),
(894,880,o),
(904,866,o),
(912,866,cs),
(921,866,o),
(931,880,o),
(940,927,cs),
(990,1191,ls),
(995,1219,o),
(987,1230,o),
(959,1230,cs),
(945,1230,ls),
(901,1230,o),
(900,1241,o),
(900,1285,cs),
(900,1449,ls),
(900,1497,o),
(914,1500,o),
(959,1500,cs),
(1363,1500,ls),
(1390,1500,o),
(1400,1494,o),
(1400,1465,cs),
(1400,1293,ls),
(1400,1234,o),
(1391,1230,o),
(1351,1230,cs),
(1315,1230,ls),
(1278,1230,o),
(1268,1215,o),
(1260,1181,cs),
(1000,10,ls),
(992,-25,o),
(981,-30,o),
(943,-30,cs),
(660,-30,ls),
(600,-30,o),
(566,-13,o),
(559,37,cs),
(469,663,ls),
(466,684,o),
(454,696,o),
(440,696,cs),
(426,696,o),
(410,675,o),
(400,631,cs),
(330,325,ls),
(320,280,o),
(335,270,o),
(381,270,cs),
(395,270,ls),
(423,270,o),
(430,262,o),
(430,232,cs),
(430,50,ls),
(430,1,o),
(403,0,o),
(359,0,cs),
(-13,0,ls),
(-71,0,o),
(-80,5,o),
(-80,65,cs),
(-80,209,ls),
(-80,259,o),
(-69,270,o),
(-19,270,cs),
(9,270,ls),
(55,270,o),
(50,281,o),
(60,326,cs),
(250,1179,ls),
(261,1228,o),
(240,1230,o),
(199,1230,cs)
);
}
);
vertWidth = 0;
width = 1250;
},
{
anchors = (
{
name = "Anchor-0";
pos = (615,1500);
},
{
name = "Anchor-1";
pos = (396,0);
},
{
name = "Anchor-2";
pos = (396,0);
}
);
layerId = "5A070E73-1DB9-476B-9E26-8EFE8B60F44F";
shapes = (
{
closed = 1;
nodes = (
(227,1390,ls),
(198,1390,o),
(190,1393,o),
(190,1421,cs),
(190,1471,ls),
(190,1495,o),
(198,1500,o),
(220,1500,cs),
(440,1500,ls),
(482,1500,o),
(500.782,1494.657,o),
(506,1467,cs),
(706,407,ls),
(711.421,378.267,o),
(717,360,o),
(728,360,cs),
(738,360,o),
(743.232,374.171,o),
(751,409,cs),
(962,1355,ls),
(968,1383,o),
(954,1390,o),
(922,1390,cs),
(894,1390,ls),
(859,1390,o),
(856,1397,o),
(856,1433,cs),
(856,1467,ls),
(856,1496,o),
(865,1500,o),
(892,1500,cs),
(1184,1500,ls),
(1213,1500,o),
(1216,1493,o),
(1216,1463,cs),
(1216,1423,ls),
(1216,1396,o),
(1211,1390,o),
(1182,1390,cs),
(1130,1390,ls),
(1095,1390,o),
(1096,1387,o),
(1090,1359,cs),
(794,1,ls),
(791,-14,o),
(789,-20,o),
(769,-20,cs),
(617,-20,ls),
(594,-20,o),
(580.775,-11.694,o),
(577,11,cs),
(403,1057,ls),
(398.135,1084.922,o),
(384,1098,o),
(376,1098,cs),
(362,1098,o),
(350.964,1083.008,o),
(344,1051,cs),
(146,141,ls),
(139,106,o),
(144,110,o),
(184,110,cs),
(222,110,ls),
(246,110,o),
(260,107,o),
(260,81,cs),
(260,41,ls),
(260,2,o),
(248,0,o),
(212,0,cs),
(-78,0,ls),
(-103,0,o),
(-110,3,o),
(-110,27,cs),
(-110,75,ls),
(-110,103,o),
(-107,110,o),
(-80,110,cs),
(-16,110,ls),
(17,110,o),
(14,115,o),
(20,141,cs),
(277,1343,ls),
(285,1382,o),
(285,1390,o),
(234,1390,cs)
);
}
);
vertWidth = 0;
width = 1090;
},
{
associatedMasterId = "5A070E73-1DB9-476B-9E26-8EFE8B60F44F";
layerId = "3E1802E3-037D-4E33-8602-6D0DC820B951";
name = Back;
shapes = (
{
closed = 1;
nodes = (
(212,1390,ls),
(183,1390,o),
(180,1398,o),
(186,1425,cs),
(193,1455,ls),
(201,1490,o),
(204,1500,o),
(239,1500,cs),
(423,1500,ls),
(500,1500,o),
(490,1486,o),
(512,1445,cs),
(704,368,ls),
(711,329,o),
(730,317,o),
(748,397,cs),
(958,1343,ls),
(968,1387,o),
(958,1390,o),
(916,1390,cs),
(918,1390,ls),
(888,1390,o),
(847,1387,o),
(855,1421,cs),
(860,1443,ls),
(869,1483,o),
(880,1500,o),
(921,1500,cs),
(1183,1500,ls),
(1208,1500,o),
(1232,1500,o),
(1226,1471,cs),
(1218,1434,ls),
(1210,1400,o),
(1206,1390,o),
(1192,1390,cs),
(1146,1390,ls),
(1104,1390,o),
(1097,1383,o),
(1087,1339,cs),
(796,25,ls),
(791,1,o),
(785,-20,o),
(758,-20,cs),
(632,-20,ls),
(601,-20,o),
(591,-12,o),
(582,5,cs),
(400,1075,ls),
(393,1120,o),
(357,1116,o),
(335,1017,cs),
(144,153,ls),
(136,116,o),
(139,110,o),
(178,110,cs),
(230,110,ls),
(261,110,o),
(261,98,o),
(255,69,cs),
(249,39,ls),
(241,4,o),
(231,0,o),
(198,0,cs),
(-88,0,ls),
(-123,0,o),
(-130,3,o),
(-122,37,cs),
(-114,73,ls),
(-106,107,o),
(-91,110,o),
(-60,110,cs),
(-51,110,ls),
(-4,110,o),
(6,116,o),
(16,161,cs),
(277,1341,ls),
(287,1387,o),
(279,1390,o),
(232,1390,cs)
);
}
);
vertWidth = 0;
width = 1090;
}
);
unicode = 78;
},
{
glyphname = Eng;
lastChange = "2022-07-21 13:13:41 +0000";
layers = (
{
layerId = "C788331E-5670-44D3-9D66-EAA382172B0D";
shapes = (
{
closed = 1;
nodes = (
(626,1500,ls),
(676,1500,o),
(679,1496,o),
(670,1457,cs),
(627,1269,ls),
(612,1204,o),
(615,1196,o),
(664,1269,cs),
(748,1393,o),
(912,1518,o),
(1132,1518,cs),
(1500,1518,o),
(1621,1363,o),
(1549,1023,cs),
(1336,22,ls),
(1271,-281,o),
(1124,-520,o),
(842,-520,cs),
(664,-520,o),
(600,-410,o),
(600,-286,cs),
(600,-210,o),
(658,-138,o),
(738,-138,cs),
(806,-138,o),
(854,-184,o),
(854,-250,cs),
(854,-320,o),
(796,-334,o),
(796,-374,cs),
(796,-400,o),
(808,-432,o),
(862,-432,cs),
(1044,-432,o),
(1126,-22,o),
(1176,208,cs),
(1380,1166,ls),
(1410,1309,o),
(1326,1412,o),
(1096,1412,cs),
(791,1412,o),
(579,1063,o),
(517,795,cs),
(351,49,ls),
(344,18,o),
(341,0,o),
(300,0,cs),
(-13,0,ls),
(-34,0,o),
(-35,9,o),
(-35,30,cs),
(-35,81,ls),
(-35,100,o),
(-34,110,o),
(-15,110,cs),
(132,110,ls),
(156,110,o),
(156,112,o),
(160,131,cs),
(437,1355,ls),
(445,1389,o),
(438,1390,o),
(396,1390,cs),
(314,1390,ls),
(281,1390,o),
(280,1399,o),
(280,1433,cs),
(280,1461,ls),
(280,1494,o),
(284,1500,o),
(316,1500,cs)
);
}
);
vertWidth = 0;
width = 1794;
},
{
layerId = "166B8CC3-B8B2-42DF-8AC5-58EF4CD93FB2";
shapes = (
{
closed = 1;
nodes = (
(862,1500,ls),
(898,1500,o),
(908,1492,o),
(901,1462,cs),
(826,1220,ls),
(814,1170,o),
(823,1161,o),
(862,1212,cs),
(976,1364,o),
(1148,1538,o),
(1412,1538,cs),
(1670,1538,o),
(1890,1482,o),
(1816,1142,cs),
(1568,0,ls),
(1498,-324,o),
(1282,-520,o),
(882,-520,cs),
(600,-520,o),
(446,-382,o),
(446,-248,cs),
(446,-92,o),
(584,-14,o),
(712,-14,cs),
(848,-14,o),
(942,-76,o),
(942,-190,cs),
(942,-282,o),
(884,-290,o),
(884,-318,cs),
(884,-330,o),
(904,-340,o),
(938,-340,cs),
(1078,-340,o),
(1055,-125,o),
(1130,206,cs),
(1324,1080,ls),
(1354,1210,o),
(1336,1286,o),
(1214,1286,cs),
(1047,1286,o),
(783,958,o),
(729,701,cs),
(592,48,ls),
(583,7,o),
(573,0,o),
(524,0,cs),
(-86,0,ls),
(-113,0,o),
(-119,5,o),
(-119,34,cs),
(-119,240,ls),
(-119,262,o),
(-116,270,o),
(-95,270,cs),
(124,270,ls),
(155,270,o),
(152,276,o),
(157,300,cs),
(352,1174,ls),
(363,1222,o),
(364,1230,o),
(301,1230,cs),
(203,1230,ls),
(161,1230,o),
(156,1238,o),
(156,1278,cs),
(156,1456,ls),
(156,1493,o),
(160,1500,o),
(196,1500,cs)
);
}
);
vertWidth = 0;
width = 1966;
},
{
layerId = "6A50D5EA-2B4A-4D44-BCCC-14A16F5631EA";
shapes = (
{
closed = 1;
nodes = (
(792,1500,ls),
(828,1500,o),
(838,1492,o),
(831,1462,cs),
(803,1360,ls),
(791,1310,o),
(804.877,1297.616,o),
(839,1352,cs),
(903,1454,o),
(998,1538,o),
(1152,1538,cs),
(1360,1538,o),
(1443.252,1405.637,o),
(1386,1142,cs),
(1138,0,ls),
(1068,-324,o),
(972,-520,o),
(572,-520,cs),
(290,-520,o),
(136,-382,o),
(136,-248,cs),
(136,-92,o),
(274,-14,o),
(402,-14,cs),
(538,-14,o),
(632,-76,o),
(632,-190,cs),
(632,-282,o),
(574,-290,o),
(574,-318,cs),
(574,-330,o),
(594,-340,o),
(628,-340,cs),
(768,-340,o),
(625,-125,o),
(700,206,cs),
(894,1080,ls),
(912.332,1162.59,o),
(936,1236,o),
(884,1236,cs),
(837,1236,o),
(713,958,o),
(659,701,cs),
(522,48,ls),
(513,7,o),
(503,0,o),
(454,0,cs),
(-36,0,ls),
(-63,0,o),
(-69,5,o),
(-69,34,cs),
(-69,240,ls),
(-69,262,o),
(-66,270,o),
(-45,270,cs),
(54,270,ls),
(85,270,o),
(82,276,o),
(87,300,cs),
(282,1174,ls),
(293,1222,o),
(294,1230,o),
(231,1230,cs),
(203,1230,ls),
(161,1230,o),
(156,1238,o),
(156,1278,cs),
(156,1456,ls),
(156,1493,o),
(160,1500,o),
(196,1500,cs)
);
}
);
vertWidth = 0;
width = 1326;
},
{
layerId = "5A070E73-1DB9-476B-9E26-8EFE8B60F44F";
shapes = (
{
closed = 1;
nodes = (
(486,1500,ls),
(536,1500,o),
(539,1496,o),
(530,1457,cs),
(517,1389,ls),
(502,1324,o),
(495.882,1323.028,o),
(554,1389,cs),
(628,1473,o),
(682,1518,o),
(792,1518,cs),
(1030,1518,o),
(1081,1363,o),
(1009,1023,cs),
(796,22,ls),
(731,-281,o),
(674,-520,o),
(392,-520,cs),
(214,-520,o),
(150,-410,o),
(150,-286,cs),
(150,-210,o),
(208,-138,o),
(288,-138,cs),
(356,-138,o),
(404,-184,o),
(404,-250,cs),
(404,-320,o),
(346,-334,o),
(346,-374,cs),
(346,-400,o),
(358,-432,o),
(412,-432,cs),
(594,-432,o),
(586,-22,o),
(636,208,cs),
(840,1166,ls),
(870,1309,o),
(876,1412,o),
(756,1412,cs),
(601,1412,o),
(439,1063,o),
(377,795,cs),
(211,49,ls),
(204,18,o),
(201,0,o),
(160,0,cs),
(-63,0,ls),
(-84,0,o),
(-85,9,o),
(-85,30,cs),
(-85,81,ls),
(-85,100,o),
(-84,110,o),
(-65,110,cs),
(-8,110,ls),
(16,110,o),
(16,112,o),
(20,131,cs),
(297,1355,ls),
(305,1389,o),
(298,1390,o),
(256,1390,cs),
(244,1390,ls),
(211,1390,o),
(210,1399,o),
(210,1433,cs),
(210,1461,ls),
(210,1494,o),
(214,1500,o),
(246,1500,cs)
);
}
);
vertWidth = 0;
width = 1049;
},
{
associatedMasterId = "5A070E73-1DB9-476B-9E26-8EFE8B60F44F";
layerId = "594A59CF-1A0C-44E8-B6DB-3D5E1D781D01";
name = Back;
shapes = (
{
closed = 1;
nodes = (
(221,156,ls),
(211,114,o),
(216,110,o),
(270,110,cs),
(336,110,ls),
(599,110,o),
(707,189,o),
(786,472,cs),
(794,500,o),
(791,510,o),
(830,510,cs),
(860,510,ls),
(890,510,o),
(895,507,o),
(890,484,cs),
(787,46,ls),
(778,7,o),
(771,0,o),
(722,0,cs),
(-44,0,ls),
(-68,0,o),
(-80,3,o),
(-80,30,cs),
(-80,64,ls),
(-80,102,o),
(-77,110,o),
(-40,110,cs),
(-32,110,ls),
(14,110,o),
(12,115,o),
(20,152,cs),
(292,1345,ls),
(301,1386,o),
(292,1390,o),
(252,1390,cs),
(248,1390,ls),
(211,1390,o),
(208,1398,o),
(208,1436,cs),
(208,1468,ls),
(208,1497,o),
(230,1500,o),
(256,1500,cs),
(1022,1500,ls),
(1080,1500,o),
(1088,1499,o),
(1077,1452,cs),
(990,1072,ls),
(981,1035,o),
(983,1030,o),
(936,1030,cs),
(907,1030,ls),
(874,1030,o),
(885,1051,o),
(889,1074,cs),
(934,1313,o),
(881,1390,o),
(660,1390,cs),
(560,1390,ls),
(495,1390,o),
(499,1381,o),
(487,1330,cs),
(381,862,ls),
(372,822,o),
(374,816,o),
(426,816,cs),
(456,816,ls),
(570,816,o),
(603,891,o),
(650,1002,cs),
(659,1024,o),
(657,1046,o),
(689,1046,cs),
(720,1046,ls),
(756,1046,o),
(754,1037,o),
(747,1008,cs),
(635,532,ls),
(629,507,o),
(633,496,o),
(600,496,cs),
(568,496,ls),
(534,496,o),
(542,522,o),
(544,546,cs),
(554,655,o),
(548,736,o),
(456,736,cs),
(400,736,ls),
(350,736,o),
(352,732,o),
(343,692,cs)
);
}
);
vertWidth = 0;
width = 1049;
}
);
unicode = 330;
},
{
glyphname = O;
kernLeft = kc0_2;
kernRight = kc0_3;
lastChange = "2022-07-21 13:13:41 +0000";
layers = (
{
anchors = (
{
name = "Anchor-0";
pos = (985,1500);
},
{
name = "Anchor-1";
pos = (666,0);
},
{
name = "Anchor-2";
pos = (666,0);
}
);
layerId = "C788331E-5670-44D3-9D66-EAA382172B0D";
shapes = (
{
closed = 1;
nodes = (
(1356,1520,o),
(1570,1286,o),
(1570,900,cs),
(1570,434,o),
(1176,-20,o),
(690,-20,c),
(690,80,l),
(1078,80,o),
(1340,546,o),
(1340,890,cs),
(1340,1194,o),
(1258,1420,o),
(970,1420,c),
(970,1520,l)
);
},
{
closed = 1;
nodes = (
(304,-20,o),
(90,214,o),
(90,600,cs),
(90,1066,o),
(484,1520,o),
(970,1520,c),
(970,1420,l),
(582,1420,o),
(320,954,o),
(320,610,cs),
(320,306,o),
(402,80,o),
(690,80,c),
(690,-20,l)
);
}
);
vertWidth = 0;
width = 1660;
},
{
anchors = (
{
name = "Anchor-0";
pos = (1140,1500);
},
{
name = "Anchor-1";
pos = (766,0);
},
{
name = "Anchor-2";
pos = (766,0);
}
);
layerId = "166B8CC3-B8B2-42DF-8AC5-58EF4CD93FB2";
shapes = (
{
closed = 1;
nodes = (
(1516,1540,o),
(1830,1346,o),
(1830,900,cs),
(1830,354,o),
(1396,-40,o),
(810,-40,c),
(830,220,l),
(1138,220,o),
(1320,606,o),
(1320,930,cs),
(1320,1154,o),
(1258,1280,o),
(1070,1280,c),
(1090,1540,l)
);
},
{
closed = 1;
nodes = (
(384,-40,o),
(70,154,o),
(70,600,cs),
(70,1146,o),
(504,1540,o),
(1090,1540,c),
(1070,1280,l),
(782,1280,o),
(580,894,o),
(580,570,cs),
(580,346,o),
(642,220,o),
(830,220,c),
(810,-40,l)
);
}
);
vertWidth = 0;
width = 1900;
},
{
anchors = (
{
name = "Anchor-0";
pos = (815,1500);
},
{
name = "Anchor-1";
pos = (516,0);
},
{
name = "Anchor-2";
pos = (516,0);
}
);
layerId = "6A50D5EA-2B4A-4D44-BCCC-14A16F5631EA";
shapes = (
{
closed = 1;
nodes = (
(1144,1540,o),
(1298,1351,o),
(1298,1067,cs),
(1298,450,o),
(1011,-40,o),
(501,-40,c),
(538,220,l),
(679,220,o),
(832,919,o),
(832,1181,cs),
(832,1255,o),
(812,1280,o),
(774,1280,c),
(811,1540,l)
);
},
{
closed = 1;
nodes = (
(168,-40,o),
(14,149,o),
(14,433,cs),
(14,1050,o),
(301,1540,o),
(811,1540,c),
(774,1280,l),
(633,1280,o),
(480,581,o),
(480,319,cs),
(480,245,o),
(500,220,o),
(538,220,c),
(501,-40,l)
);
}
);
vertWidth = 0;
width = 1240;
},
{
anchors = (
{
name = "Anchor-0";
pos = (705,1500);
},
{
name = "Anchor-1";
pos = (336,0);
},
{
name = "Anchor-2";
pos = (336,0);
}
);
layerId = "5A070E73-1DB9-476B-9E26-8EFE8B60F44F";
shapes = (
{
closed = 1;
nodes = (
(926,1520,o),
(1050,1406,o),
(1050,1090,cs),
(1050,724,o),
(846,-20,o),
(350,-20,c),
(360,80,l),
(638,80,o),
(860,846,o),
(860,1190,cs),
(860,1344,o),
(828,1420,o),
(710,1420,c),
(700,1520,l)
);
},
{
closed = 1;
nodes = (
(124,-20,o),
(10,94,o),
(10,410,cs),
(10,776,o),
(214,1520,o),
(700,1520,c),
(710,1420,l),
(422,1420,o),
(190,654,o),
(190,310,cs),
(190,156,o),
(242,80,o),
(360,80,c),
(350,-20,l)
);
}
);
vertWidth = 0;
width = 1050;
},
{
associatedMasterId = "5A070E73-1DB9-476B-9E26-8EFE8B60F44F";
layerId = "6654871A-9E82-467D-9C8F-DC4AB988D306";
name = Back;
shapes = (
{
closed = 1;
nodes = (
(168,1276,o),
(366,1520,o),
(692,1520,cs),
(1018,1520,o),
(1108,1276,o),
(991,750,cs),
(874,224,o),
(657,-20,o),
(351,-20,cs),
(25,-20,o),
(-66,224,o),
(51,750,cs)
);
},
{
closed = 1;
nodes = (
(153,286,o),
(175,80,o),
(373,80,cs),
(591,80,o),
(683,286,o),
(786,750,cs),
(889,1214,o),
(868,1420,o),
(670,1420,cs),
(472,1420,o),
(359,1214,o),
(256,750,cs)
);
}
);
vertWidth = 0;
width = 1050;
}
);
unicode = 79;
},
{
glyphname = Oslash;
kernLeft = kc0_2;
kernRight = kc0_3;
lastChange = "2022-07-21 13:13:41 +0000";
layers = (
{
layerId = "C788331E-5670-44D3-9D66-EAA382172B0D";
shapes = (
{
closed = 1;
nodes = (
(1411,1660,ls),
(1449,1660,o),
(1454,1653,o),
(1440,1630,cs),
(353,-168,ls),
(337,-194,o),
(332,-200,o),
(291,-200,cs),
(259,-200,ls),
(210,-200,o),
(202,-186,o),
(219,-158,cs),
(1310,1626,ls),
(1325,1651,o),
(1326,1660,o),
(1366,1660,cs)
);
},
{
ref = O;
}
);
vertWidth = 0;
width = 1660;
},
{
layerId = "166B8CC3-B8B2-42DF-8AC5-58EF4CD93FB2";
shapes = (
{
closed = 1;
nodes = (
(1478,1660,ls),
(1536,1660,o),
(1520,1637,o),
(1504,1606,cs),
(580,-162,ls),
(564,-192,o),
(555,-200,o),
(507,-200,cs),
(417,-200,ls),
(347,-200,o),
(338,-189,o),
(359,-148,cs),
(1292,1618,ls),
(1308,1648,o),
(1316,1660,o),
(1365,1660,cs)
);
},
{
ref = O;
}
);
vertWidth = 0;
width = 1900;
},
{
layerId = "6A50D5EA-2B4A-4D44-BCCC-14A16F5631EA";
shapes = (
{
closed = 1;
nodes = (
(1188,1660,ls),
(1246,1660,o),
(1230,1637,o),
(1214,1606,cs),
(290,-162,ls),
(274,-192,o),
(265,-200,o),
(217,-200,cs),
(127,-200,ls),
(57,-200,o),
(48,-189,o),
(69,-148,cs),
(1002,1618,ls),
(1018,1648,o),
(1026,1660,o),
(1075,1660,cs)
);
},
{
ref = O;
}
);
vertWidth = 0;
width = 1240;
},
{
layerId = "5A070E73-1DB9-476B-9E26-8EFE8B60F44F";
shapes = (
{
closed = 1;
nodes = (
(1041,1660,ls),
(1079,1660,o),
(1084,1653,o),
(1070,1630,cs),
(133,-168,ls),
(117,-194,o),
(112,-200,o),
(71,-200,cs),
(39,-200,ls),
(-10,-200,o),
(-18,-186,o),
(-1,-158,cs),
(940,1626,ls),
(955,1651,o),
(956,1660,o),
(996,1660,cs)
);
},
{
ref = O;
}
);
vertWidth = 0;
width = 1050;
}
);
unicode = 216;
},
{
glyphname = OE;
kernLeft = kc0_2;
lastChange = "2022-07-21 13:13:41 +0000";
layers = (
{
layerId = "C788331E-5670-44D3-9D66-EAA382172B0D";
shapes = (
{
closed = 1;
nodes = (
(1185,1390,l),
(965,1390,ls),
(597,1390,o),
(416,1114,o),
(339,750,cs),
(262,386,o),
(345,110,o),
(693,110,cs),
(913,110,l),
(890,0,l),
(670,0,ls),
(224,0,o),
(18,324,o),
(109,750,cs),
(200,1176,o),
(563,1500,o),
(989,1500,cs),
(1209,1500,l)
);
},
{
pos = (800,0);
ref = E;
}
);
vertWidth = 0;
width = 2258;
},
{
layerId = "166B8CC3-B8B2-42DF-8AC5-58EF4CD93FB2";
shapes = (
{
closed = 1;
nodes = (
(1167,1230,l),
(977,1230,ls),
(829,1230,o),
(678,1114,o),
(601,750,cs),
(524,386,o),
(597,270,o),
(735,270,cs),
(895,270,l),
(872,0,l),
(652,0,ls),
(206,0,o),
(0,324,o),
(91,750,cs),
(182,1176,o),
(545,1500,o),
(971,1500,cs),
(1191,1500,l)
);
},
{
pos = (932,0);
ref = E;
}
);
vertWidth = 0;
width = 2549;
},
{
layerId = "6A50D5EA-2B4A-4D44-BCCC-14A16F5631EA";
shapes = (
{
closed = 1;
nodes = (
(1020,1230,l),
(820,1230,ls),
(702,1230,o),
(631,1114,o),
(554,750,cs),
(477,386,o),
(450,270,o),
(588,270,cs),
(748,270,l),
(725,0,l),
(505,0,ls),
(59,0,o),
(-47,324,o),
(44,750,cs),
(135,1176,o),
(338,1500,o),
(764,1500,cs),
(1044,1500,l)
);
},
{
pos = (605,0);
ref = E;
}
);
vertWidth = 0;
width = 1775;
},
{
layerId = "5A070E73-1DB9-476B-9E26-8EFE8B60F44F";
shapes = (
{
closed = 1;
nodes = (
(874.791,1390,l),
(734.791,1390,ls),
(476.791,1390,o),
(325.791,1104,o),
(248.791,740,cs),
(171.791,376,o),
(134.791,110,o),
(382.791,110,cs),
(602.791,110,l),
(579.791,0,l),
(359.791,0,ls),
(-16.209,0,o),
(-42.209,314,o),
(48.791,740,cs),
(139.791,1166,o),
(342.791,1500,o),
(728.791,1500,cs),
(898.791,1500,l)
);
},
{
pos = (489.793,0);
ref = E;
}
);
vertWidth = 0;
width = 1503;
},
{
associatedMasterId = "5A070E73-1DB9-476B-9E26-8EFE8B60F44F";
layerId = "257CE594-8A4E-4534-9AEF-139F938319DA";
name = Back;
shapes = (
{
closed = 1;
nodes = (
(124,-20,o),
(10,94,o),
(10,410,cs),
(10,776,o),
(214,1520,o),
(700,1520,c),
(710,1420,l),
(422,1420,o),
(190,654,o),
(190,310,cs),
(190,156,o),
(242,80,o),
(360,80,c),
(350,-20,l)
);
}
);
vertWidth = 0;
width = 1503;
}
);
unicode = 338;
},
{
glyphname = P;
kernLeft = kc0_1;
kernRight = kc0_16;
lastChange = "2022-07-21 13:13:41 +0000";
layers = (
{
anchors = (
{
name = "Anchor-0";
pos = (835,1500);
},
{
name = "Anchor-1";
pos = (232,0);
},
{
name = "Anchor-2";
pos = (232,0);
}
);
layerId = "C788331E-5670-44D3-9D66-EAA382172B0D";
shapes = (
{
closed = 1;
nodes = (
(754,770,ls),
(946,770,o),
(1154,902,o),
(1154,1160,cs),
(1154,1258,o),
(1126,1390,o),
(934,1390,cs),
(656,1390,ls),
(620,1390,o),
(620,1388,o),
(614,1358,cs),
(498,813,ls),
(490,774,o),
(489,770,o),
(536,770,cs)
);
},
{
closed = 1;
nodes = (
(358,160,ls),
(350,120,o),
(347,110,o),
(400,110,cs),
(542,110,ls),
(573,110,o),
(580,105,o),
(580,72,cs),
(580,28,ls),
(580,3,o),
(568,0,o),
(542,0,cs),
(-44,0,ls),
(-71,0,o),
(-80,1,o),
(-80,28,cs),
(-80,76,ls),
(-80,110,o),
(-70,110,o),
(-36,110,cs),
(108,110,ls),
(157,110,o),
(151,124,o),
(159,162,cs),
(414,1353,ls),
(421,1386,o),
(420,1390,o),
(380,1390,cs),
(250,1390,ls),
(225,1390,o),
(220,1397,o),
(220,1420,cs),
(220,1466,ls),
(220,1497,o),
(231,1500,o),
(260,1500,cs),
(934,1500,ls),
(1296,1500,o),
(1374,1340,o),
(1374,1160,cs),
(1374,820,o),
(1116,660,o),
(754,660,cs),
(516,660,ls),
(467,660,o),
(461,650,o),
(452,610,cs)
);
}
);
vertWidth = 0;
width = 1374;
},
{
anchors = (
{
name = "Anchor-0";
pos = (980,1500);
},
{
name = "Anchor-1";
pos = (322,0);
},
{
name = "Anchor-2";
pos = (322,0);
}
);
layerId = "166B8CC3-B8B2-42DF-8AC5-58EF4CD93FB2";
shapes = (
{
closed = 1;
nodes = (
(814,820,ls),
(1006,820,o),
(1114,962,o),
(1114,1100,cs),
(1114,1178,o),
(1056,1230,o),
(964,1230,cs),
(854,1230,ls),
(803,1230,o),
(806,1225,o),
(797,1184,cs),
(727,856,ls),
(721,827,o),
(722,820,o),
(760,820,cs)
);
},
{
closed = 1;
nodes = (
(610,308,ls),
(603,275,o),
(606,270,o),
(648,270,cs),
(790,270,ls),
(858,270,o),
(860,262,o),
(860,194,cs),
(860,60,ls),
(860,1,o),
(851,0,o),
(792,0,cs),
(-32,0,ls),
(-75,0,o),
(-100,2,o),
(-100,49,cs),
(-100,230,ls),
(-100,263,o),
(-96,270,o),
(-64,270,cs),
(86,270,ls),
(125,270,o),
(122,275,o),
(129,306,cs),
(315,1174,ls),
(327,1228,o),
(312,1230,o),
(252,1230,cs),
(162,1230,ls),
(124,1230,o),
(120,1237,o),
(120,1276,cs),
(120,1462,ls),
(120,1493,o),
(125,1500,o),
(158,1500,cs),
(1034,1500,ls),
(1416,1500,o),
(1614,1360,o),
(1614,1100,cs),
(1614,680,o),
(1196,550,o),
(834,550,cs),
(704,550,ls),
(653,550,o),
(659,538,o),
(650,498,cs)
);
}
);
vertWidth = 0;
width = 1594;
},
{
anchors = (
{
name = "Anchor-0";
pos = (755,1500);
},
{
name = "Anchor-1";
pos = (242,0);
},
{
name = "Anchor-2";
pos = (242,0);
}
);
layerId = "6A50D5EA-2B4A-4D44-BCCC-14A16F5631EA";
shapes = (
{
closed = 1;
nodes = (
(700,830,ls),
(782,830,o),
(840,1042,o),
(840,1150,cs),
(840,1208,o),
(832,1230,o),
(780,1230,cs),
(776,1230,ls),
(741,1230,o),
(737,1219,o),
(730,1186,cs),
(660,874,ls),
(652,838,o),
(655,830,o),
(692,830,cs)
);
},
{
closed = 1;
nodes = (
(540,318,ls),
(530,276,o),
(547,270,o),
(592,270,cs),
(661,270,ls),
(703,270,o),
(705,262,o),
(705,220,cs),
(705,56,ls),
(705,10,o),
(705,0,o),
(659,0,cs),
(3,0,ls),
(-37,0,o),
(-45,4,o),
(-45,46,cs),
(-45,220,ls),
(-45,263,o),
(-41,270,o),
(1,270,cs),
(17,270,ls),
(73,270,o),
(64,282,o),
(75,334,cs),
(260,1182,ls),
(270,1227,o),
(251,1230,o),
(204,1230,cs),
(194,1230,ls),
(148,1230,o),
(140,1232,o),
(140,1278,cs),
(140,1448,ls),
(140,1496,o),
(151,1500,o),
(196,1500,cs),
(810,1500,ls),
(1172,1500,o),
(1340,1440,o),
(1340,1200,cs),
(1340,770,o),
(1062,560,o),
(700,560,cs),
(644,560,ls),
(601,560,o),
(593,549,o),
(584,508,cs)
);
}
);
vertWidth = 0;
width = 1230;
},
{
anchors = (
{
name = "Anchor-0";
pos = (575,1500);
},
{
name = "Anchor-1";
pos = (102,0);
},
{
name = "Anchor-2";
pos = (102,0);
}
);
layerId = "5A070E73-1DB9-476B-9E26-8EFE8B60F44F";
shapes = (
{
closed = 1;
nodes = (
(514,770,ls),
(716,770,o),
(834,952,o),
(834,1230,cs),
(834,1328,o),
(776,1390,o),
(654,1390,cs),
(526,1390,ls),
(490,1390,o),
(490,1388,o),
(484,1358,cs),
(368,813,ls),
(360,774,o),
(359,770,o),
(406,770,cs)
);
},
{
closed = 1;
nodes = (
(228,160,ls),
(220,120,o),
(217,110,o),
(270,110,cs),
(302,110,ls),
(333,110,o),
(340,105,o),
(340,72,cs),
(340,28,ls),
(340,3,o),
(328,0,o),
(302,0,cs),
(-84,0,ls),
(-111,0,o),
(-120,1,o),
(-120,28,cs),
(-120,76,ls),
(-120,110,o),
(-110,110,o),
(-76,110,cs),
(-22,110,ls),
(27,110,o),
(21,124,o),
(29,162,cs),
(284,1353,ls),
(291,1386,o),
(290,1390,o),
(250,1390,cs),
(220,1390,ls),
(195,1390,o),
(190,1397,o),
(190,1420,cs),
(190,1466,ls),
(190,1497,o),
(201,1500,o),
(230,1500,cs),
(674,1500,ls),
(936,1500,o),
(1054,1420,o),
(1054,1210,cs),
(1054,920,o),
(886,660,o),
(524,660,cs),
(386,660,ls),
(337,660,o),
(331,650,o),
(322,610,cs)
);
}
);
vertWidth = 0;
width = 1006;
},
{
associatedMasterId = "5A070E73-1DB9-476B-9E26-8EFE8B60F44F";
layerId = "874F12FB-A583-480A-BBD3-3E3C7E6B75A5";
name = Back;
shapes = (
{
closed = 1;
nodes = (
(201,1390,ls),
(177,1390,o),
(178,1399,o),
(183,1423,cs),
(193,1464,ls),
(200,1495,o),
(209,1500,o),
(238,1500,cs),
(711,1500,ls),
(1023,1500,o),
(1095,1340,o),
(1037,1080,cs),
(979,820,o),
(836,660,o),
(524,660,cs),
(388,660,ls),
(333,660,o),
(324,659,o),
(312,604,cs),
(216,173,ls),
(204,118,o),
(206,110,o),
(260,110,cs),
(310,110,ls),
(341,110,o),
(341,101,o),
(334,70,cs),
(329,48,ls),
(320,8,o),
(316,0,o),
(276,0,cs),
(-78,0,ls),
(-119,0,o),
(-132,2,o),
(-122,46,cs),
(-114,82,ls),
(-109,106,o),
(-101,110,o),
(-76,110,cs),
(-34,110,ls),
(7,110,o),
(15,120,o),
(23,158,cs),
(290,1364,ls),
(295,1387,o),
(288,1390,o),
(264,1390,cs)
);
},
{
closed = 1;
nodes = (
(519,770,ls),
(681,770,o),
(771,872,o),
(817,1080,cs),
(863,1288,o),
(818,1390,o),
(656,1390,cs),
(505,1390,ls),
(479,1390,o),
(484,1378,o),
(478,1351,cs),
(358,814,ls),
(349,772,o),
(347,770,o),
(389,770,cs)
);
}
);
vertWidth = 0;
width = 1006;
}
);
unicode = 80;
},
{
glyphname = Thorn;
kernLeft = kc0_1;
lastChange = "2022-07-21 13:13:41 +0000";
layers = (
{
layerId = "C788331E-5670-44D3-9D66-EAA382172B0D";
shapes = (
{
closed = 1;
nodes = (
(423,470,ls),
(419,453,o),
(433,450,o),
(466,450,cs),
(684,450,ls),
(876,450,o),
(1084,582,o),
(1084,840,cs),
(1084,938,o),
(1056,1070,o),
(864,1070,cs),
(586,1070,ls),
(562,1070,o),
(552,1069,o),
(548,1049,cs)
);
},
{
closed = 1;
nodes = (
(-80,82,ls),
(-80,105,o),
(-72,110,o),
(-50,110,cs),
(94,110,ls),
(140,110,o),
(146,112,o),
(155,151,cs),
(410,1348,ls),
(419,1387,o),
(414,1390,o),
(364,1390,cs),
(244,1390,ls),
(218,1390,o),
(218,1395,o),
(218,1421,cs),
(218,1464,ls),
(218,1494,o),
(223,1500,o),
(252,1500,cs),
(810,1500,ls),
(838,1500,o),
(846,1496,o),
(846,1466,cs),
(846,1422,ls),
(846,1393,o),
(838,1390,o),
(808,1390,cs),
(654,1390,ls),
(612,1390,o),
(617,1379,o),
(610,1346,cs),
(579,1198,ls),
(575,1180,o),
(574,1180,o),
(596,1180,cs),
(864,1180,ls),
(1226,1180,o),
(1304,1020,o),
(1304,840,cs),
(1304,500,o),
(1046,340,o),
(684,340,cs),
(426,340,ls),
(396,340,o),
(395,336,o),
(392,321,cs),
(357,150,ls),
(348,111,o),
(356,110,o),
(404,110,cs),
(536,110,ls),
(578,110,o),
(580,102,o),
(580,60,cs),
(580,38,ls),
(580,8,o),
(577,0,o),
(548,0,cs),
(-42,0,ls),
(-73,0,o),
(-80,4,o),
(-80,34,cs)
);
}
);
vertWidth = 0;
width = 1374;
},
{
layerId = "166B8CC3-B8B2-42DF-8AC5-58EF4CD93FB2";
shapes = (
{
closed = 1;
nodes = (
(679,704,ls),
(672,671,o),
(660,645,o),
(708,645,cs),
(814,645,ls),
(966,645,o),
(1054,687,o),
(1054,775,cs),
(1054,833,o),
(1006,855,o),
(934,855,cs),
(752,855,ls),
(707,855,o),
(711,848,o),
(703,812,cs)
);
},
{
closed = 1;
nodes = (
(-100,239,ls),
(-100,269,o),
(-91,270,o),
(-60,270,cs),
(88,270,ls),
(126,270,o),
(123,277,o),
(130,307,cs),
(325,1189,ls),
(333,1224,o),
(330,1230,o),
(290,1230,cs),
(158,1230,ls),
(119,1230,o),
(116,1237,o),
(116,1277,cs),
(116,1464,ls),
(116,1494,o),
(122,1500,o),
(150,1500,cs),
(1054,1500,ls),
(1085,1500,o),
(1086,1491,o),
(1086,1459,cs),
(1086,1273,ls),
(1086,1235,o),
(1079,1230,o),
(1042,1230,cs),
(826,1230,ls),
(793,1230,o),
(794,1227,o),
(788,1201,cs),
(780,1164,ls),
(773,1133,o),
(773,1125,o),
(822,1125,cs),
(1024,1125,ls),
(1406,1125,o),
(1554,1025,o),
(1554,795,cs),
(1554,405,o),
(1186,375,o),
(824,375,cs),
(644,375,ls),
(617,375,o),
(606,374,o),
(601,352,cs),
(593,315,ls),
(584,275,o),
(587,270,o),
(638,270,cs),
(816,270,ls),
(853,270,o),
(860,267,o),
(860,231,cs),
(860,51,ls),
(860,5,o),
(854,0,o),
(810,0,cs),
(-60,0,ls),
(-91,0,o),
(-100,2,o),
(-100,33,cs)
);
}
);
vertWidth = 0;
width = 1594;
},
{
layerId = "6A50D5EA-2B4A-4D44-BCCC-14A16F5631EA";
shapes = (
{
closed = 1;
nodes = (
(619,704,ls),
(612,671,o),
(600,645,o),
(628,645,cs),
(634,645,ls),
(696,645,o),
(734,767,o),
(734,815,cs),
(734,843,o),
(726,855,o),
(704,855,cs),
(692,855,ls),
(647,855,o),
(651,848,o),
(643,812,cs)
);
},
{
closed = 1;
nodes = (
(-40,239,ls),
(-40,269,o),
(-31,270,o),
(0,270,cs),
(28,270,ls),
(66,270,o),
(63,277,o),
(70,307,cs),
(265,1189,ls),
(273,1224,o),
(270,1230,o),
(230,1230,cs),
(198,1230,ls),
(159,1230,o),
(156,1237,o),
(156,1277,cs),
(156,1464,ls),
(156,1494,o),
(162,1500,o),
(190,1500,cs),
(844,1500,ls),
(875,1500,o),
(876,1491,o),
(876,1459,cs),
(876,1273,ls),
(876,1235,o),
(869,1230,o),
(832,1230,cs),
(766,1230,ls),
(733,1230,o),
(734,1227,o),
(728,1201,cs),
(720,1164,ls),
(713,1133,o),
(713,1125,o),
(762,1125,cs),
(814,1125,ls),
(1106,1125,o),
(1284,1035,o),
(1284,845,cs),
(1284,525,o),
(1006,375,o),
(664,375,cs),
(584,375,ls),
(557,375,o),
(546,374,o),
(541,352,cs),
(533,315,ls),
(524,275,o),
(527,270,o),
(578,270,cs),
(666,270,ls),
(703,270,o),
(710,267,o),
(710,231,cs),
(710,51,ls),
(710,5,o),
(704,0,o),
(660,0,cs),
(0,0,ls),
(-31,0,o),
(-40,2,o),
(-40,33,cs)
);
}
);
vertWidth = 0;
width = 1284;
},
{
layerId = "5A070E73-1DB9-476B-9E26-8EFE8B60F44F";
shapes = (
{
closed = 1;
nodes = (
(297,470,ls),
(293,453,o),
(307,450,o),
(340,450,cs),
(418,450,ls),
(650,450,o),
(768,632,o),
(768,890,cs),
(768,988,o),
(730,1070,o),
(598,1070,cs),
(460,1070,ls),
(436,1070,o),
(426,1069,o),
(422,1049,cs)
);
},
{
closed = 1;
nodes = (
(-116,82,ls),
(-116,105,o),
(-108,110,o),
(-86,110,cs),
(-32,110,ls),
(14,110,o),
(20,112,o),
(29,151,cs),
(284,1348,ls),
(293,1387,o),
(288,1390,o),
(238,1390,cs),
(218,1390,ls),
(192,1390,o),
(192,1395,o),
(192,1421,cs),
(192,1464,ls),
(192,1494,o),
(197,1500,o),
(226,1500,cs),
(574,1500,ls),
(602,1500,o),
(610,1496,o),
(610,1466,cs),
(610,1422,ls),
(610,1393,o),
(602,1390,o),
(572,1390,cs),
(528,1390,ls),
(486,1390,o),
(491,1379,o),
(484,1346,cs),
(453,1198,ls),
(449,1180,o),
(448,1180,o),
(470,1180,cs),
(598,1180,ls),
(910,1180,o),
(988,1070,o),
(988,890,cs),
(988,550,o),
(790,340,o),
(418,340,cs),
(300,340,ls),
(270,340,o),
(269,336,o),
(266,321,cs),
(231,150,ls),
(222,111,o),
(230,110,o),
(278,110,cs),
(300,110,ls),
(342,110,o),
(344,102,o),
(344,60,cs),
(344,38,ls),
(344,8,o),
(341,0,o),
(312,0,cs),
(-78,0,ls),
(-109,0,o),
(-116,4,o),
(-116,34,cs)
);
}
);
vertWidth = 0;
width = 1006;
},
{
associatedMasterId = "5A070E73-1DB9-476B-9E26-8EFE8B60F44F";
layerId = "78733E87-FB77-4908-8290-C0CD8F9DF69D";
name = Back;
shapes = (
{
closed = 1;
nodes = (
(448,450,ls),
(650,450,o),
(768,632,o),
(768,910,cs),
(768,1008,o),
(710,1070,o),
(588,1070,cs),
(460,1070,ls),
(424,1070,o),
(424,1068,o),
(418,1038,cs),
(302,493,ls),
(294,454,o),
(293,450,o),
(340,450,cs)
);
},
{
closed = 1;
nodes = (
(162,-160,ls),
(154,-200,o),
(151,-210,o),
(204,-210,cs),
(236,-210,ls),
(267,-210,o),
(274,-215,o),
(274,-248,cs),
(274,-292,ls),
(274,-317,o),
(262,-320,o),
(236,-320,cs),
(-150,-320,ls),
(-177,-320,o),
(-186,-319,o),
(-186,-292,cs),
(-186,-244,ls),
(-186,-210,o),
(-176,-210,o),
(-142,-210,cs),
(-88,-210,ls),
(-39,-210,o),
(-45,-196,o),
(-37,-158,cs),
(218,1033,ls),
(225,1066,o),
(224,1070,o),
(184,1070,cs),
(154,1070,ls),
(129,1070,o),
(124,1077,o),
(124,1100,cs),
(124,1146,ls),
(124,1177,o),
(135,1180,o),
(164,1180,cs),
(608,1180,ls),
(870,1180,o),
(988,1100,o),
(988,890,cs),
(988,600,o),
(820,340,o),
(458,340,cs),
(320,340,ls),
(271,340,o),
(265,330,o),
(256,290,cs)
);
}
);
vertWidth = 0;
width = 1006;
}
);
unicode = 222;
},
{
glyphname = Q;
kernLeft = kc0_2;
kernRight = kc0_3;
lastChange = "2022-07-21 13:13:41 +0000";
layers = (
{
anchors = (
{
name = "Anchor-0";
pos = (985,1500);
}
);
layerId = "C788331E-5670-44D3-9D66-EAA382172B0D";
shapes = (
{
closed = 1;
nodes = (
(320,306,o),
(402,80,o),
(690,80,cs),
(1078,80,o),
(1340,546,o),
(1340,890,cs),
(1340,1194,o),
(1258,1420,o),
(970,1420,cs),
(582,1420,o),
(320,954,o),
(320,610,cs)
);
},
{
closed = 1;
nodes = (
(160,-158,o),
(320,-54,o),
(478,-54,cs),
(757,-54,o),
(867,-408,o),
(1002,-408,cs),
(1066,-408,o),
(1086,-372,o),
(1086,-338,cs),
(1086,-282,o),
(1026,-282,o),
(1026,-210,cs),
(1026,-136,o),
(1092,-94,o),
(1146,-94,cs),
(1220,-94,o),
(1268,-148,o),
(1268,-216,cs),
(1268,-406,o),
(1118,-500,o),
(960,-500,cs),
(661,-500,o),
(601,-146,o),
(426,-146,cs),
(364,-146,o),
(342,-178,o),
(342,-212,cs),
(342,-262,o),
(402,-272,o),
(402,-344,cs),
(402,-418,o),
(342,-460,o),
(288,-460,cs),
(214,-460,o),
(160,-404,o),
(160,-328,cs)
);
},
{
closed = 1;
nodes = (
(90,1066,o),
(484,1520,o),
(970,1520,cs),
(1356,1520,o),
(1570,1286,o),
(1570,900,cs),
(1570,434,o),
(1176,-20,o),
(690,-20,cs),
(304,-20,o),
(90,214,o),
(90,600,cs)
);
}
);
vertWidth = 0;
width = 1660;
},
{
anchors = (
{
name = "Anchor-0";
pos = (1140,1500);
}
);
layerId = "166B8CC3-B8B2-42DF-8AC5-58EF4CD93FB2";
shapes = (
{
closed = 1;
nodes = (
(610,346,o),
(672,220,o),
(860,220,cs),
(1168,220,o),
(1350,606,o),
(1350,930,cs),
(1350,1154,o),
(1288,1280,o),
(1100,1280,cs),
(812,1280,o),
(610,894,o),
(610,570,cs)
);
},
{
closed = 1;
nodes = (
(70,-78,o),
(410,-54,o),
(568,-54,cs),
(1027,-54,o),
(1013,-338,o),
(1088,-338,cs),
(1112,-338,o),
(1118,-332,o),
(1118,-320,cs),
(1118,-290,o),
(1076,-312,o),
(1076,-220,cs),
(1076,-106,o),
(1202,-54,o),
(1316,-54,cs),
(1430,-54,o),
(1538,-128,o),
(1538,-236,cs),
(1538,-486,o),
(1208,-500,o),
(1050,-500,cs),
(571,-500,o),
(641,-216,o),
(526,-216,cs),
(504,-216,o),
(496,-218,o),
(496,-230,cs),
(496,-254,o),
(542,-242,o),
(542,-334,cs),
(542,-448,o),
(432,-500,o),
(298,-500,cs),
(164,-500,o),
(70,-424,o),
(70,-308,cs)
);
},
{
closed = 1;
nodes = (
(100,1146,o),
(534,1540,o),
(1120,1540,cs),
(1546,1540,o),
(1860,1346,o),
(1860,900,cs),
(1860,354,o),
(1426,-40,o),
(840,-40,cs),
(414,-40,o),
(100,154,o),
(100,600,cs)
);
}
);
vertWidth = 0;
width = 1930;
},
{
anchors = (
{
name = "Anchor-0";
pos = (815,1500);
}
);
layerId = "6A50D5EA-2B4A-4D44-BCCC-14A16F5631EA";
shapes = (
{
closed = 1;
nodes = (
(480,246,o),
(491,220,o),
(529,220,cs),
(670,220,o),
(832,919,o),
(832,1181,cs),
(832,1255,o),
(812,1280,o),
(774,1280,cs),
(645,1280,o),
(480,585,o),
(480,321,cs)
);
},
{
closed = 1;
nodes = (
(-40,-78,o),
(200,-54,o),
(358,-54,cs),
(717,-54,o),
(663,-338,o),
(738,-338,cs),
(762,-338,o),
(768,-332,o),
(768,-320,cs),
(768,-290,o),
(726,-312,o),
(726,-220,cs),
(726,-136,o),
(802,-54,o),
(916,-54,cs),
(1030,-54,o),
(1128,-128,o),
(1128,-236,cs),
(1128,-486,o),
(898,-500,o),
(740,-500,cs),
(361,-500,o),
(471,-216,o),
(356,-216,cs),
(334,-216,o),
(326,-218,o),
(326,-230,cs),
(326,-254,o),
(372,-242,o),
(372,-334,cs),
(372,-418,o),
(312,-500,o),
(178,-500,cs),
(44,-500,o),
(-40,-424,o),
(-40,-308,cs)
);
},
{
closed = 1;
nodes = (
(14,1050,o),
(284,1540,o),
(811,1540,cs),
(1144,1540,o),
(1298,1351,o),
(1298,1067,cs),
(1298,450,o),
(1011,-40,o),
(501,-40,cs),
(168,-40,o),
(14,149,o),
(14,433,cs)
);
}
);
vertWidth = 0;
width = 1240;
},
{
anchors = (
{
name = "Anchor-0";
pos = (985,1500);
}
);
layerId = "5A070E73-1DB9-476B-9E26-8EFE8B60F44F";
shapes = (
{
closed = 1;
nodes = (
(190,156,o),
(242,80,o),
(360,80,cs),
(638,80,o),
(860,846,o),
(860,1190,cs),
(860,1344,o),
(828,1420,o),
(710,1420,cs),
(422,1420,o),
(190,654,o),
(190,310,cs)
);
},
{
closed = 1;
nodes = (
(-140,-158,o),
(20,-54,o),
(178,-54,cs),
(457,-54,o),
(367,-408,o),
(502,-408,cs),
(566,-408,o),
(586,-372,o),
(586,-338,cs),
(586,-282,o),
(526,-282,o),
(526,-210,cs),
(526,-136,o),
(592,-94,o),
(646,-94,cs),
(720,-94,o),
(768,-148,o),
(768,-216,cs),
(768,-406,o),
(618,-500,o),
(460,-500,cs),
(161,-500,o),
(301,-146,o),
(126,-146,cs),
(64,-146,o),
(42,-178,o),
(42,-212,cs),
(42,-262,o),
(102,-272,o),
(102,-344,cs),
(102,-418,o),
(42,-460,o),
(-12,-460,cs),
(-86,-460,o),
(-140,-404,o),
(-140,-328,cs)
);
},
{
closed = 1;
nodes = (
(10,776,o),
(214,1520,o),
(700,1520,cs),
(926,1520,o),
(1050,1406,o),
(1050,1090,cs),
(1050,724,o),
(846,-20,o),
(350,-20,cs),
(124,-20,o),
(10,94,o),
(10,410,cs)
);
}
);
vertWidth = 0;
width = 1050;
},
{
associatedMasterId = "5A070E73-1DB9-476B-9E26-8EFE8B60F44F";
layerId = "161844B7-C550-4303-ACDF-D8935340BD41";
name = Back;
shapes = (
{
closed = 1;
nodes = (
(168,1276,o),
(356,1520,o),
(692,1520,cs),
(1028,1520,o),
(1108,1276,o),
(991,750,cs),
(930,477,o),
(839,208,o),
(651,72,cs),
(614,45,o),
(623,43,o),
(630,20,cs),
(652,-51,o),
(670,-74,o),
(725,-74,cs),
(810,-74,o),
(845,34,o),
(865,139,cs),
(868,157,o),
(876,164,o),
(897,164,cs),
(933,164,ls),
(964,164,o),
(964,160,o),
(963,131,cs),
(939,-82,o),
(859,-250,o),
(680,-250,cs),
(547,-250,o),
(549,-144,o),
(538,-20,cs),
(535,12,o),
(532,4,o),
(487,-5,cs),
(448,-13,o),
(410,-20,o),
(351,-20,cs),
(15,-20,o),
(-66,224,o),
(51,750,cs)
);
},
{
closed = 1;
nodes = (
(269,100,o),
(317,80,o),
(373,80,cs),
(422,80,o),
(459,86,o),
(494,106,cs),
(528,125,o),
(534,129,o),
(535,161,cs),
(538,275,o),
(528,430,o),
(418,430,cs),
(312,430,o),
(250,304,o),
(225,196,cs),
(216,157,o),
(228,152,o),
(240,137,cs)
);
},
{
closed = 1;
nodes = (
(702,416,o),
(740,544,o),
(786,750,cs),
(867,1114,o),
(898,1420,o),
(670,1420,cs),
(442,1420,o),
(337,1114,o),
(256,750,cs),
(220,589,o),
(194,431,o),
(194,324,cs),
(194,278,o),
(200,291,o),
(212,345,cs),
(239,465,o),
(327,606,o),
(453,606,cs),
(580,606,o),
(600,402,o),
(604,273,cs),
(606,214,o),
(633,251,o),
(654,302,cs)
);
}
);
vertWidth = 0;
width = 1050;
}
);
unicode = 81;
},
{
glyphname = R;
kernLeft = kc0_1;
kernRight = kc0_14;
lastChange = "2022-07-21 13:13:41 +0000";
layers = (
{
anchors = (
{
name = "Anchor-0";
pos = (835,1500);
},
{
name = "Anchor-1";
pos = (716,0);
},
{
name = "Anchor-2";
pos = (716,0);
}
);
layerId = "C788331E-5670-44D3-9D66-EAA382172B0D";
shapes = (
{
closed = 1;
nodes = (
(1404,46,o),
(1320,-20,o),
(1198,-20,cs),
(1030,-20,o),
(988,64,o),
(988,174,cs),
(988,274,o),
(1024,396,o),
(1024,496,cs),
(1024,606,o),
(984,690,o),
(818,690,cs),
(508,690,ls),
(477,690,o),
(467,682,o),
(461,656,cs),
(355,144,ls),
(349,116,o),
(352,110,o),
(388,110,cs),
(548,110,ls),
(568,110,o),
(580,106,o),
(580,84,cs),
(580,40,ls),
(580,9,o),
(579,0,o),
(548,0,cs),
(-54,0,ls),
(-74,0,o),
(-80,6,o),
(-80,28,cs),
(-80,76,ls),
(-80,104,o),
(-75,110,o),
(-48,110,cs),
(114,110,ls),
(154,110,o),
(149,119,o),
(156,150,cs),
(415,1357,ls),
(421,1386,o),
(421,1390,o),
(386,1390,cs),
(256,1390,ls),
(223,1390,o),
(220,1398,o),
(220,1432,cs),
(220,1464,ls),
(220,1499,o),
(229,1500,o),
(264,1500,cs),
(979,1500,ls),
(1321,1500,o),
(1418,1340,o),
(1418,1160,cs),
(1418,983,o),
(1310,832,o),
(1100,765,cs),
(1065,754,o),
(1046,755,o),
(1046,747,cs),
(1046,738,o),
(1064,740,o),
(1100,725,cs),
(1202,682,o),
(1230,604,o),
(1230,512,cs),
(1230,400,o),
(1188,262,o),
(1188,188,cs),
(1188,144,o),
(1216,108,o),
(1262,108,cs),
(1299,108,o),
(1345,129,o),
(1376,179,cs),
(1388,198,o),
(1392,200,o),
(1413,188,cs),
(1426,180,ls),
(1446,168,o),
(1449,168,o),
(1440,143,cs)
);
},
{
closed = 1;
nodes = (
(838,810,ls),
(990,810,o),
(1218,942,o),
(1218,1160,cs),
(1218,1298,o),
(1150,1390,o),
(978,1390,cs),
(660,1390,ls),
(626,1390,o),
(620,1383,o),
(614,1354,cs),
(505,848,ls),
(497,812,o),
(503,810,o),
(548,810,cs)
);
}
);
vertWidth = 0;
width = 1548;
},
{
anchors = (
{
name = "Anchor-0";
pos = (1060,1500);
},
{
name = "Anchor-1";
pos = (776,0);
},
{
name = "Anchor-2";
pos = (776,0);
}
);
layerId = "166B8CC3-B8B2-42DF-8AC5-58EF4CD93FB2";
shapes = (
{
closed = 1;
nodes = (
(1664,16,o),
(1476,-30,o),
(1338,-30,cs),
(1150,-30,o),
(1018,44,o),
(1018,194,cs),
(1018,294,o),
(1044,366,o),
(1044,446,cs),
(1044,496,o),
(1004,610,o),
(838,610,cs),
(764,610,ls),
(720,610,o),
(712,602,o),
(704,565,cs),
(653,323,ls),
(645,284,o),
(640,270,o),
(692,270,cs),
(790,270,ls),
(830,270,o),
(840,269,o),
(840,229,cs),
(840,55,ls),
(840,5,o),
(834,0,o),
(786,0,cs),
(-15,0,ls),
(-54,0,o),
(-60,7,o),
(-60,45,cs),
(-60,225,ls),
(-60,264,o),
(-55,270,o),
(-14,270,cs),
(120,270,ls),
(170,270,o),
(164,282,o),
(172,321,cs),
(355,1177,ls),
(365,1224,o),
(363,1230,o),
(308,1230,cs),
(212,1230,ls),
(167,1230,o),
(160,1233,o),
(160,1277,cs),
(160,1461,ls),
(160,1499,o),
(169,1500,o),
(208,1500,cs),
(1118,1500,ls),
(1480,1500,o),
(1718,1420,o),
(1718,1160,cs),
(1718,971,o),
(1575,859,o),
(1374,794,cs),
(1313,775,o),
(1281,773,o),
(1281,757,cs),
(1281,742,o),
(1311,739,o),
(1374,717,cs),
(1471,683,o),
(1530,625,o),
(1530,492,cs),
(1530,400,o),
(1486,366,o),
(1486,322,cs),
(1486,300,o),
(1504,284,o),
(1526,284,cs),
(1553,284,o),
(1582,291,o),
(1630,341,cs),
(1656,368,o),
(1655,371,o),
(1683,341,cs),
(1787,231,ls),
(1818,198,o),
(1809,190,o),
(1780,155,cs)
);
},
{
closed = 1;
nodes = (
(978,890,ls),
(1130,890,o),
(1238,992,o),
(1238,1112,cs),
(1238,1182,o),
(1170,1230,o),
(1078,1230,cs),
(906,1230,ls),
(855,1230,o),
(845,1224,o),
(836,1181,cs),
(785,943,ls),
(775,897,o),
(776,890,o),
(834,890,cs)
);
}
);
vertWidth = 0;
width = 1834;
},
{
anchors = (
{
name = "Anchor-0";
pos = (825,1500);
},
{
name = "Anchor-1";
pos = (556,0);
},
{
name = "Anchor-2";
pos = (556,0);
}
);
layerId = "6A50D5EA-2B4A-4D44-BCCC-14A16F5631EA";
shapes = (
{
closed = 1;
nodes = (
(1244,95,o),
(1130,-40,o),
(920,-40,cs),
(724,-40,o),
(678,63,o),
(678,187,cs),
(678,304,o),
(721,441,o),
(721,529,cs),
(721,584,o),
(704,620,o),
(650,620,cs),
(648,620,ls),
(610,620,o),
(608,608,o),
(600,572,cs),
(540,310,ls),
(533,281,o),
(541,270,o),
(572,270,cs),
(584,270,ls),
(620,270,o),
(630,263,o),
(630,224,cs),
(630,72,ls),
(630,13,o),
(629,0,o),
(570,0,cs),
(-37,0,ls),
(-71,0,o),
(-80,5,o),
(-80,38,cs),
(-80,226,ls),
(-80,263,o),
(-74,270,o),
(-38,270,cs),
(3,270,ls),
(50,270,o),
(60,278,o),
(70,322,cs),
(261,1179,ls),
(271,1223,o),
(260,1230,o),
(217,1230,cs),
(215,1230,ls),
(173,1230,o),
(171,1242,o),
(171,1282,cs),
(171,1462,ls),
(171,1496,o),
(181,1500,o),
(216,1500,cs),
(851,1500,ls),
(1193,1500,o),
(1310,1399,o),
(1310,1209,cs),
(1310,948,o),
(1188,815,o),
(1093,732,cs),
(1067,710,o),
(1048,702,o),
(1048,691,cs),
(1048,685,o),
(1057,678,o),
(1076,668,cs),
(1152,626,o),
(1177,575,o),
(1177,525,cs),
(1177,452,o),
(1126,375,o),
(1126,334,cs),
(1126,316,o),
(1134,308,o),
(1148,308,cs),
(1167,308,o),
(1180,324,o),
(1193,358,cs),
(1203,384,o),
(1213,388,o),
(1251,374,cs),
(1304,354,ls),
(1336,342,o),
(1332,313,o),
(1316,273,cs)
);
},
{
closed = 1;
nodes = (
(713,880,ls),
(795,880,o),
(844,1072,o),
(844,1170,cs),
(844,1218,o),
(822,1230,o),
(780,1230,cs),
(762,1230,ls),
(734,1230,o),
(739,1219,o),
(731,1182,cs),
(674,926,ls),
(664,879,o),
(677,880,o),
(705,880,cs)
);
}
);
vertWidth = 0;
width = 1356;
},
{
anchors = (
{
name = "Anchor-0";
pos = (545,1500);
},
{
name = "Anchor-1";
pos = (426,0);
},
{
name = "Anchor-2";
pos = (426,0);
}
);
layerId = "5A070E73-1DB9-476B-9E26-8EFE8B60F44F";
shapes = (
{
closed = 1;
nodes = (
(964,124,o),
(916,-20,o),
(738,-20,cs),
(600,-20,o),
(558,64,o),
(558,174,cs),
(558,324,o),
(637,396,o),
(637,546,cs),
(637,636,o),
(614,690,o),
(488,690,cs),
(378,690,ls),
(347,690,o),
(337,682,o),
(331,656,cs),
(225,144,ls),
(219,116,o),
(222,110,o),
(258,110,cs),
(298,110,ls),
(318,110,o),
(330,106,o),
(330,84,cs),
(330,40,ls),
(330,9,o),
(329,0,o),
(298,0,cs),
(-84,0,ls),
(-104,0,o),
(-110,6,o),
(-110,28,cs),
(-110,76,ls),
(-110,104,o),
(-105,110,o),
(-78,110,cs),
(-16,110,ls),
(24,110,o),
(19,119,o),
(26,150,cs),
(285,1357,ls),
(291,1386,o),
(291,1390,o),
(256,1390,cs),
(226,1390,ls),
(193,1390,o),
(190,1398,o),
(190,1432,cs),
(190,1464,ls),
(190,1499,o),
(199,1500,o),
(234,1500,cs),
(719,1500,ls),
(901,1500,o),
(1036,1380,o),
(1036,1200,cs),
(1036,993,o),
(940,842,o),
(760,755,cs),
(726.968,739.035,o),
(706,735,o),
(706,727,cs),
(706,718,o),
(727.229,711.143,o),
(760,690,cs),
(822,650,o),
(840,604,o),
(840,512,cs),
(840,400,o),
(778,242,o),
(778,168,cs),
(778,124,o),
(796,108,o),
(822,108,cs),
(869,108,o),
(895,169,o),
(916,239,cs),
(922.457,260.524,o),
(932.517,257.109,o),
(953,258,cs),
(976,258,ls),
(995.485,258,o),
(996.879,246.665,o),
(990,221,cs)
);
},
{
closed = 1;
nodes = (
(528,810,ls),
(700,810,o),
(828,1002,o),
(828,1220,cs),
(828,1308,o),
(790,1390,o),
(668,1390,cs),
(530,1390,ls),
(496,1390,o),
(490,1383,o),
(484,1354,cs),
(375,848,ls),
(367,812,o),
(373,810,o),
(418,810,cs)
);
}
);
vertWidth = 0;
width = 1073;
},
{
associatedMasterId = "5A070E73-1DB9-476B-9E26-8EFE8B60F44F";
layerId = "CEBBB6F0-28C9-41BE-B857-7B9C7DB0AB12";
name = Back;
shapes = (
{
closed = 1;
nodes = (
(937,79,o),
(878,-20,o),
(714,-20,cs),
(318,-20,o),
(904,690,o),
(511,690,cs),
(377,690,ls),
(333,690,o),
(329,682,o),
(319,638,cs),
(210,144,ls),
(203,113,o),
(210,110,o),
(242,110,cs),
(311,110,ls),
(339,110,o),
(340,103,o),
(334,74,cs),
(324,29,ls),
(318,4,o),
(311,0,o),
(285,0,cs),
(-101,0,ls),
(-126,0,o),
(-131,6,o),
(-125,32,cs),
(-115,75,ls),
(-108,105,o),
(-100,110,o),
(-72,110,cs),
(-36,110,ls),
(5,110,o),
(13,113,o),
(22,153,cs),
(286,1342,ls),
(296,1385,o),
(289,1390,o),
(247,1390,cs),
(212,1390,ls),
(177,1390,o),
(178,1399,o),
(186,1435,cs),
(193,1466,ls),
(199,1492,o),
(204,1500,o),
(229,1500,cs),
(741,1500,ls),
(1033,1500,o),
(1058,1260,o),
(1020,1090,cs),
(984,926,o),
(896,834,o),
(771,766,cs),
(732,745,o),
(733,718,o),
(768,690,cs),
(957,533,o),
(674,110,o),
(824,110,cs),
(856,110,o),
(890,142,o),
(918,242,cs),
(922,255,o),
(927,258,o),
(934,258,cs),
(968,258,ls),
(975,258,o),
(986,255,o),
(979,230,cs)
);
},
{
closed = 1;
nodes = (
(567,810,ls),
(669,810,o),
(778,902,o),
(822,1100,cs),
(866,1298,o),
(797,1390,o),
(695,1390,cs),
(522,1390,ls),
(475,1390,o),
(486,1390,o),
(476,1343,cs),
(368,858,ls),
(359,817,o),
(351,810,o),
(394,810,cs)
);
}
);
vertWidth = 0;
width = 1073;
}
);
unicode = 82;
},
{
glyphname = S;
kernLeft = kc0_12;
kernRight = kc0_15;
lastChange = "2022-07-21 13:13:41 +0000";
layers = (
{
anchors = (
{
name = "Anchor-0";
pos = (835,1500);
},
{
name = "Anchor-1";
pos = (595,0);
},
{
name = "Anchor-2";
pos = (595,0);
}
);
layerId = "C788331E-5670-44D3-9D66-EAA382172B0D";
shapes = (
{
closed = 1;
nodes = (
(424,818,o),
(1184,950,o),
(1184,450,cs),
(1184,150,o),
(946,-30,o),
(584,-30,cs),
(365,-30,o),
(237,28,o),
(171,118,cs),
(154,142,o),
(152,140,o),
(134,111,cs),
(77,18,ls),
(66,0,o),
(57,-10,o),
(26,-10,cs),
(-23,-10,ls),
(-54,-10,o),
(-59,-7,o),
(-53,17,cs),
(64,487,ls),
(68,504,o),
(76,510,o),
(98,510,cs),
(160,510,ls),
(171,510,o),
(181,505,o),
(178,494,cs),
(103,162,o),
(358,78,o),
(584,78,cs),
(934,78,o),
(984,282,o),
(984,400,cs),
(984,802,o),
(230,656,o),
(230,1096,cs),
(230,1396,o),
(556,1530,o),
(784,1530,cs),
(931,1530,o),
(1044,1486,o),
(1124,1405,cs),
(1154,1374,o),
(1163,1368,o),
(1190,1409,cs),
(1230,1473,ls),
(1242,1491,o),
(1242,1500,o),
(1273,1500,cs),
(1311,1500,ls),
(1353,1500,o),
(1357,1495,o),
(1350,1462,cs),
(1260,1039,ls),
(1254,1012,o),
(1245,1010,o),
(1212,1010,cs),
(1176,1010,ls),
(1135,1010,o),
(1137,1020,o),
(1141,1052,cs),
(1166,1263,o),
(1028,1418,o),
(776,1418,cs),
(578,1418,o),
(424,1304,o),
(424,1140,cs)
);
}
);
vertWidth = 0;
width = 1298;
},
{
anchors = (
{
name = "Anchor-0";
pos = (1030,1500);
},
{
name = "Anchor-1";
pos = (645,0);
},
{
name = "Anchor-2";
pos = (645,0);
}
);
layerId = "166B8CC3-B8B2-42DF-8AC5-58EF4CD93FB2";
shapes = (
{
closed = 1;
nodes = (
(644,898,o),
(1404,1050,o),
(1404,490,cs),
(1404,190,o),
(1146,-50,o),
(744,-50,cs),
(545,-50,o),
(416,2,o),
(336,75,cs),
(303,105,o),
(306,112,o),
(270,82,cs),
(188,13,ls),
(169,-3,o),
(152,-10,o),
(114,-10,cs),
(-8,-10,ls),
(-54,-10,o),
(-82,-20,o),
(-72,22,cs),
(58,560,ls),
(67,598,o),
(72,610,o),
(122,610,cs),
(236,610,ls),
(307,610,o),
(295,586,o),
(295,528,cs),
(297,257,o),
(492,178,o),
(664,178,cs),
(854,178,o),
(924,262,o),
(924,380,cs),
(924,662,o),
(170,476,o),
(170,1016,cs),
(170,1316,o),
(436,1550,o),
(784,1550,cs),
(958,1550,o),
(1092,1494,o),
(1182,1410,cs),
(1203,1390,o),
(1204,1378,o),
(1228,1398,cs),
(1328,1483,ls),
(1346,1498,o),
(1368,1500,o),
(1404,1500,cs),
(1518,1500,ls),
(1574,1500,o),
(1577,1494,o),
(1567,1446,cs),
(1465,960,ls),
(1453,903,o),
(1439,910,o),
(1372,910,cs),
(1268,910,ls),
(1222,910,o),
(1215,914,o),
(1217,955,cs),
(1225,1167,o),
(1071,1318,o),
(856,1318,cs),
(718,1318,o),
(644,1224,o),
(644,1140,cs)
);
}
);
vertWidth = 0;
width = 1498;
},
{
anchors = (
{
name = "Anchor-0";
pos = (735,1500);
},
{
name = "Anchor-1";
pos = (405,0);
},
{
name = "Anchor-2";
pos = (405,0);
}
);
layerId = "6A50D5EA-2B4A-4D44-BCCC-14A16F5631EA";
shapes = (
{
closed = 1;
nodes = (
(628,916,o),
(1034,940,o),
(1034,490,cs),
(1034,143,o),
(793,-40,o),
(561,-40,cs),
(361,-40,o),
(290,34,o),
(254,87,cs),
(224,131,o),
(217,103,o),
(175,51,cs),
(150,17,ls),
(132,-6,o),
(114,-10,o),
(77,-10,cs),
(-48,-10,ls),
(-87,-10,o),
(-100,-3,o),
(-92,35,cs),
(19,537,ls),
(28,579,o),
(34,590,o),
(75,590,cs),
(201,590,ls),
(248,590,o),
(253,582,o),
(253,541,cs),
(253,395,o),
(309,252,o),
(426,252,cs),
(518,252,o),
(572,290,o),
(572,390,cs),
(572,700,o),
(170,616,o),
(170,1028,cs),
(170,1358,o),
(407,1530,o),
(609,1530,cs),
(761,1530,o),
(806,1473,o),
(860,1415,cs),
(890,1383,o),
(886,1383,o),
(925,1430,cs),
(960,1473,ls),
(976,1492,o),
(978,1500,o),
(1011,1500,cs),
(1165,1500,ls),
(1200,1500,o),
(1210,1491,o),
(1202,1454,cs),
(1103,1005,ls),
(1092,957,o),
(1084,950,o),
(1034,950,cs),
(925,950,ls),
(859,950,o),
(873,966,o),
(869,1017,cs),
(856,1173,o),
(803,1228,o),
(732,1228,cs),
(670,1228,o),
(628,1195,o),
(628,1136,cs)
);
}
);
vertWidth = 0;
width = 1070;
},
{
anchors = (
{
name = "Anchor-0";
pos = (605,1500);
},
{
name = "Anchor-1";
pos = (365,0);
},
{
name = "Anchor-2";
pos = (365,0);
}
);
layerId = "5A070E73-1DB9-476B-9E26-8EFE8B60F44F";
shapes = (
{
closed = 1;
nodes = (
(374,878,o),
(794,910,o),
(794,480,cs),
(794,180,o),
(616,-30,o),
(374,-30,cs),
(235,-30,o),
(157,28,o),
(111,118,cs),
(97.615,144.188,o),
(92,140,o),
(74,111,cs),
(27,18,ls),
(16,0,o),
(7,-10,o),
(-24,-10,cs),
(-73,-10,ls),
(-104,-10,o),
(-109,-7,o),
(-103,17,cs),
(4,487,ls),
(8,504,o),
(16,510,o),
(38,510,cs),
(100,510,ls),
(111,510,o),
(119.606,505.288,o),
(118,494,cs),
(85,262,o),
(178,78,o),
(344,78,cs),
(514,78,o),
(604,222,o),
(604,400,cs),
(604,752,o),
(190,706,o),
(190,1066,cs),
(190,1326,o),
(376,1530,o),
(554,1530,cs),
(633,1530,o),
(714,1486,o),
(754,1425,cs),
(777.656,1388.925,o),
(783,1388,o),
(810,1429,cs),
(840,1473,ls),
(852,1491,o),
(852,1500,o),
(883,1500,cs),
(921,1500,ls),
(963,1500,o),
(967,1495,o),
(960,1462,cs),
(870,1039,ls),
(864,1012,o),
(855,1010,o),
(822,1010,cs),
(786,1010,ls),
(745,1010,o),
(747,1020,o),
(751,1052,cs),
(776,1263,o),
(693,1418,o),
(566,1418,cs),
(458,1418,o),
(374,1324,o),
(374,1160,cs)
);
}
);
vertWidth = 0;
width = 912;
},
{
associatedMasterId = "5A070E73-1DB9-476B-9E26-8EFE8B60F44F";
layerId = "3FE089B5-8B39-4D7E-AA52-45F1010DF823";
name = Back;
shapes = (
{
closed = 1;
nodes = (
(772,1235,o),
(703,1408,o),
(577,1408,cs),
(465,1408,o),
(411,1338,o),
(385,1220,cs),
(303,849,o),
(899,920,o),
(770,340,cs),
(726,140,o),
(580,-30,o),
(368,-30,cs),
(197,-30,o),
(150,49,o),
(113,109,cs),
(100,144,o),
(93,135,o),
(68,95,cs),
(20,18,ls),
(3,-9,o),
(1,-10,o),
(-38,-10,cs),
(-69,-10,ls),
(-100,-10,o),
(-107,-6,o),
(-100,24,cs),
(2,482,ls),
(8,510,o),
(18,510,o),
(46,510,cs),
(88,510,ls),
(115,510,o),
(115,499,o),
(113,476,cs),
(95,316,o),
(169,72,o),
(331,72,cs),
(493,72,o),
(570,202,o),
(596,320,cs),
(694,760,o),
(111,700,o),
(217,1180,cs),
(264,1390,o),
(390,1520,o),
(592,1520,cs),
(688,1520,o),
(735,1466,o),
(769,1407,cs),
(781,1381,o),
(780,1381,o),
(803,1417,cs),
(850,1488,ls),
(857,1499,o),
(860,1500,o),
(876,1500,cs),
(940,1500,ls),
(965,1500,o),
(966,1493,o),
(960,1467,cs),
(865,1036,ls),
(859,1011,o),
(850,1010,o),
(825,1010,cs),
(781,1010,ls),
(745,1010,o),
(756,1015,o),
(756,1047,cs)
);
}
);
vertWidth = 0;
width = 912;
}
);
unicode = 83;
},
{
glyphname = Germandbls;
lastChange = "2022-07-21 13:13:41 +0000";
layers = (
{
layerId = "C788331E-5670-44D3-9D66-EAA382172B0D";
shapes = (
{
closed = 1;
nodes = (
(-80,110,l),
(102,110,l),
(251,882,ls),
(326,1273,o),
(681,1520,o),
(1217,1520,cs),
(1524,1520,o),
(1812,1388,o),
(1873,1322,c),
(1351,833,l),
(1651,786,o),
(1742,633,o),
(1742,450,cs),
(1742,190,o),
(1524,-20,o),
(1212,-20,cs),
(928,-20,o),
(680,126,o),
(680,271,cs),
(680,353,o),
(731,412,o),
(811,412,cs),
(882,412,o),
(929,362,o),
(929,290,cs),
(929,241,o),
(898,202,o),
(857,187,c),
(926,125,o),
(1067,97,o),
(1173,97,cs),
(1401,97,o),
(1532,262,o),
(1532,450,cs),
(1532,638,o),
(1405,735,o),
(1137,735,c),
(1137,848,l),
(1610,1298,l),
(1530,1363,o),
(1365,1407,o),
(1217,1407,cs),
(739,1407,o),
(516,1192,o),
(451,861,cs),
(303,110,l),
(481,110,l),
(481,0,l),
(-80,0,l)
);
}
);
vertWidth = 2309;
width = 1892;
},
{
layerId = "166B8CC3-B8B2-42DF-8AC5-58EF4CD93FB2";
shapes = (
{
closed = 1;
nodes = (
(-52,210,l),
(129,210,l),
(285,882,ls),
(379,1288,o),
(962,1520,o),
(1498,1520,cs),
(1915,1520,o),
(2153,1348,o),
(2199,1282,c),
(1686,798,l),
(1973,714,o),
(2087,540,o),
(2050,380,cs),
(1990,120,o),
(1637,-30,o),
(1355,-30,cs),
(1071,-30,o),
(865,66,o),
(910,261,cs),
(940,393,o),
(1065,492,o),
(1185,492,cs),
(1296,492,o),
(1372,402,o),
(1344,280,cs),
(1337,250,o),
(1323,220,o),
(1304,194,c),
(1324,189,o),
(1344,187,o),
(1366,187,cs),
(1514,187,o),
(1620,292,o),
(1647,410,cs),
(1681,558,o),
(1609,665,o),
(1257,735,c),
(1283,848,l),
(1677,1198,l),
(1622,1263,o),
(1537,1307,o),
(1419,1307,cs),
(1091,1307,o),
(755,1185,o),
(680,861,cs),
(529,210,l),
(709,210,l),
(661,0,l),
(-100,0,l)
);
}
);
vertWidth = 2309;
width = 2172;
},
{
layerId = "6A50D5EA-2B4A-4D44-BCCC-14A16F5631EA";
shapes = (
{
closed = 1;
nodes = (
(-68.715,210,l),
(10.576,210,l),
(161.264,882,ls),
(251.271,1288,o),
(524.922,1530,o),
(1060.922,1530,cs),
(1477.922,1530,o),
(1575.573,1348,o),
(1621.941,1282,c),
(1172.826,809.634,l),
(1455.931,734.963,o),
(1521.199,561.45,o),
(1480.973,380,cs),
(1423.332,120,o),
(1172.078,-30,o),
(930.078,-30,cs),
(646.078,-30,o),
(496.012,96,o),
(539.242,291,cs),
(568.506,423,o),
(691.454,522,o),
(811.454,522,cs),
(922.454,522,o),
(999.501,432,o),
(972.454,310,cs),
(962.641,265.737,o),
(937.752,224.187,o),
(904.592,189.917,c),
(915.461,188.005,o),
(926.989,187,o),
(939.186,187,cs),
(997.186,187,o),
(1033.729,212,o),
(1064.322,350,cs),
(1097.133,498,o),
(1037.156,665,o),
(794.675,735,c),
(819.727,848,l),
(1211.404,1248,l),
(1162.71,1299,o),
(1103.918,1327,o),
(985.918,1327,cs),
(757.918,1327,o),
(628.438,1185,o),
(556.608,861,cs),
(410.589,210,l),
(482.285,210,l),
(435.729,0,l),
(-115.271,0,l)
);
}
);
vertWidth = 2309;
width = 1523;
},
{
layerId = "5A070E73-1DB9-476B-9E26-8EFE8B60F44F";
shapes = (
{
closed = 1;
nodes = (
(-55.613,110,l),
(25.387,110,l),
(196.535,882,ls),
(286.543,1288,o),
(567.976,1520,o),
(1003.976,1520,cs),
(1260.976,1520,o),
(1479.712,1388,o),
(1526.08,1322,c),
(1096.188,828.493,l),
(1353.275,770.454,o),
(1383.149,591.577,o),
(1342.895,410,cs),
(1285.254,150,o),
(1059.566,-20,o),
(837.566,-20,cs),
(583.566,-20,o),
(467.934,126,o),
(500.079,271,cs),
(518.258,353,o),
(582.338,412,o),
(662.338,412,cs),
(733.338,412,o),
(769.254,362,o),
(753.291,290,cs),
(741.125,235.123,o),
(692.19,193.479,o),
(641.292,182.723,c),
(668.035,124.148,o),
(742.255,97,o),
(824.504,97,cs),
(962.504,97,o),
(1091.216,222,o),
(1132.895,410,cs),
(1165.706,558,o),
(1167.945,735,o),
(869.945,735,c),
(894.997,848,l),
(1287.76,1298,l),
(1222.17,1363,o),
(1086.925,1407,o),
(978.925,1407,cs),
(600.925,1407,o),
(468.142,1205,o),
(391.879,861,cs),
(225.387,110,l),
(305.387,110,l),
(305,0,l),
(-56,0,l)
);
}
);
vertWidth = 2309;
width = 1432;
}
);
unicode = 7838;
},
{
glyphname = T;
kernLeft = kc0_7;
kernRight = kc0_10;
lastChange = "2022-07-21 13:13:41 +0000";
layers = (
{
anchors = (
{
name = "Anchor-0";
pos = (924,1500);
},
{
name = "Anchor-1";
pos = (606,0);
},
{
name = "Anchor-2";
pos = (606,0);
}
);
layerId = "C788331E-5670-44D3-9D66-EAA382172B0D";
shapes = (
{
closed = 1;
nodes = (
(242,82,ls),
(242,102,o),
(244,110,o),
(263,110,cs),
(433,110,ls),
(478,110,o),
(487,115,o),
(495,153,cs),
(754,1360,ls),
(761,1392,o),
(761,1400,o),
(719,1400,cs),
(644,1400,ls),
(381,1400,o),
(288,1312,o),
(210,1028,cs),
(204,1006,o),
(201,990,o),
(170,990,cs),
(131,990,ls),
(99,990,o),
(104,1010,o),
(109,1032,cs),
(206,1462,ls),
(213,1492,o),
(218,1500,o),
(257,1500,cs),
(1523,1500,ls),
(1575,1500,o),
(1576,1494,o),
(1567,1454,cs),
(1467,1022,ls),
(1461,994,o),
(1463,990,o),
(1427,990,cs),
(1401,990,ls),
(1360,990,o),
(1360,995,o),
(1367,1029,cs),
(1424,1316,o),
(1388,1400,o),
(1124,1400,cs),
(1009,1400,ls),
(972,1400,o),
(962,1394,o),
(955,1362,cs),
(696,152,ls),
(688,117,o),
(690,110,o),
(735,110,cs),
(899,110,ls),
(930,110,o),
(932,102,o),
(932,70,cs),
(932,40,ls),
(932,3,o),
(922,0,o),
(887,0,cs),
(269,0,ls),
(243,0,o),
(242,8,o),
(242,35,cs)
);
}
);
vertWidth = 0;
width = 1478;
},
{
anchors = (
{
name = "Anchor-0";
pos = (1039,1500);
},
{
name = "Anchor-1";
pos = (666,0);
},
{
name = "Anchor-2";
pos = (666,0);
}
);
layerId = "166B8CC3-B8B2-42DF-8AC5-58EF4CD93FB2";
shapes = (
{
closed = 1;
nodes = (
(212,222,ls),
(212,269,o),
(221,270,o),
(269,270,cs),
(427,270,ls),
(489,270,o),
(484,280,o),
(495,330,cs),
(687,1229,ls),
(689,1238,o),
(676,1240,o),
(664,1240,cs),
(662,1240,ls),
(479,1240,o),
(409,1163,o),
(340,945,cs),
(324,893,o),
(318,880,o),
(256,880,cs),
(158,880,ls),
(82,880,o),
(81,886,o),
(95,945,cs),
(211,1446,ls),
(222,1493,o),
(230,1500,o),
(290,1500,cs),
(1660,1500,ls),
(1736,1500,o),
(1747,1495,o),
(1729,1419,cs),
(1612,930,ls),
(1603,893,o),
(1599,880,o),
(1551,880,cs),
(1421,880,ls),
(1344,880,o),
(1355,899,o),
(1366,954,cs),
(1407,1170,o),
(1359,1240,o),
(1184,1240,cs),
(1152,1240,ls),
(1124,1240,o),
(1123,1223,o),
(1118,1201,cs),
(939,348,ls),
(927,292,o),
(914,270,o),
(989,270,cs),
(1117,270,ls),
(1167,270,o),
(1172,264,o),
(1172,212,cs),
(1172,73,ls),
(1172,5,o),
(1166,0,o),
(1099,0,cs),
(271,0,ls),
(219,0,o),
(212,4,o),
(212,58,cs)
);
}
);
vertWidth = 0;
width = 1628;
},
{
anchors = (
{
name = "Anchor-0";
pos = (824,1500);
},
{
name = "Anchor-1";
pos = (526,0);
},
{
name = "Anchor-2";
pos = (526,0);
}
);
layerId = "6A50D5EA-2B4A-4D44-BCCC-14A16F5631EA";
shapes = (
{
closed = 1;
nodes = (
(190,220,ls),
(190,260,o),
(197,270,o),
(236,270,cs),
(298,270,ls),
(351,270,o),
(349,284,o),
(360,335,cs),
(547,1202,ls),
(552,1225,o),
(551,1240,o),
(526,1240,cs),
(520,1240,ls),
(471,1240,o),
(407,1174,o),
(341,927,cs),
(329,881,o),
(326,870,o),
(274,870,cs),
(153,870,ls),
(114,870,o),
(92,874,o),
(100,911,cs),
(220,1442,ls),
(229,1483,o),
(231,1500,o),
(274,1500,cs),
(1370,1500,ls),
(1402,1500,o),
(1417,1486,o),
(1410,1452,cs),
(1300,927,ls),
(1290,878,o),
(1281,870,o),
(1228,870,cs),
(1120,870,ls),
(1068,870,o),
(1049,877,o),
(1059,925,cs),
(1113,1174,o),
(1080,1240,o),
(1020,1240,cs),
(1008,1240,ls),
(978,1240,o),
(982,1225,o),
(976,1197,cs),
(790,350,ls),
(777,290,o),
(773,270,o),
(826,270,cs),
(843,270,ls),
(889,270,o),
(900,258,o),
(900,215,cs),
(900,55,ls),
(900,7,o),
(890,0,o),
(844,0,cs),
(244,0,ls),
(202,0,o),
(190,6,o),
(190,51,cs)
);
}
);
vertWidth = 0;
width = 1250;
},
{
anchors = (
{
name = "Anchor-0";
pos = (764,1500);
},
{
name = "Anchor-1";
pos = (446,0);
},
{
name = "Anchor-2";
pos = (446,0);
}
);
layerId = "5A070E73-1DB9-476B-9E26-8EFE8B60F44F";
shapes = (
{
closed = 1;
nodes = (
(192,82,ls),
(192,102,o),
(194,110,o),
(213,110,cs),
(273,110,ls),
(318,110,o),
(327,115,o),
(335,153,cs),
(594,1360,ls),
(601,1392,o),
(601,1400,o),
(559,1400,cs),
(544,1400,ls),
(381,1400,o),
(298,1312,o),
(220,1028,cs),
(214,1006,o),
(211,990,o),
(180,990,cs),
(141,990,ls),
(109,990,o),
(114,1010,o),
(119,1032,cs),
(216,1462,ls),
(223,1492,o),
(228,1500,o),
(267,1500,cs),
(1178,1500,ls),
(1230,1500,o),
(1231,1494,o),
(1222,1454,cs),
(1122,1022,ls),
(1116,994,o),
(1118,990,o),
(1082,990,cs),
(1056,990,ls),
(1015,990,o),
(1015,995,o),
(1022,1029,cs),
(1079,1316,o),
(1028,1400,o),
(864,1400,cs),
(849,1400,ls),
(812,1400,o),
(802,1394,o),
(795,1362,cs),
(536,152,ls),
(528,117,o),
(530,110,o),
(575,110,cs),
(629,110,ls),
(660,110,o),
(662,102,o),
(662,70,cs),
(662,40,ls),
(662,3,o),
(652,0,o),
(617,0,cs),
(219,0,ls),
(193,0,o),
(192,8,o),
(192,35,cs)
);
}
);
vertWidth = 0;
width = 1128;
},
{
associatedMasterId = "5A070E73-1DB9-476B-9E26-8EFE8B60F44F";
layerId = "F56E5EE1-77E3-432A-93C6-DE465AD763AC";
name = Back;
shapes = (
{
closed = 1;
nodes = (
(156,75,ls),
(163,107,o),
(175,110,o),
(205,110,cs),
(269,110,ls),
(317,110,o),
(325,115,o),
(336,165,cs),
(599,1355,ls),
(607,1393,o),
(612,1400,o),
(575,1400,cs),
(519,1400,ls),
(407,1400,o),
(286,1312,o),
(218,1031,cs),
(210,1000,o),
(204,990,o),
(170,990,cs),
(142,990,ls),
(108,990,o),
(113,1011,o),
(120,1041,cs),
(210,1447,ls),
(220,1493,o),
(225,1500,o),
(270,1500,cs),
(1190,1500,ls),
(1229,1500,o),
(1230,1493,o),
(1221,1453,cs),
(1125,1021,ls),
(1119,992,o),
(1110,990,o),
(1080,990,cs),
(1056,990,ls),
(1019,990,o),
(1022,1005,o),
(1028,1037,cs),
(1082,1314,o),
(1019,1400,o),
(899,1400,cs),
(827,1400,ls),
(792,1400,o),
(798,1393,o),
(790,1357,cs),
(526,167,ls),
(515,116,o),
(518,110,o),
(567,110,cs),
(631,110,ls),
(671,110,o),
(672,102,o),
(663,61,cs),
(658,42,ls),
(649,2,o),
(627,0,o),
(591,0,cs),
(185,0,ls),
(146,0,o),
(140,3,o),
(148,41,cs)
);
}
);
vertWidth = 0;
width = 1128;
}
);
unicode = 84;
},
{
glyphname = Tbar;
layers = (
{
layerId = "C788331E-5670-44D3-9D66-EAA382172B0D";
shapes = (
{
closed = 1;
nodes = (
(1156,820,ls),
(1184,820,o),
(1187,816,o),
(1187,792,cs),
(1187,743,ls),
(1187,719,o),
(1185,710,o),
(1153,710,cs),
(392,710,ls),
(362,710,o),
(360,714,o),
(360,740,cs),
(360,792,ls),
(360,815,o),
(368,820,o),
(394,820,cs)
);
},
{
ref = T;
}
);
vertWidth = 0;
width = 1479;
},
{
layerId = "166B8CC3-B8B2-42DF-8AC5-58EF4CD93FB2";
shapes = (
{
closed = 1;
nodes = (
(1262,828,ls),
(1295,828,o),
(1299,824,o),
(1299,800,cs),
(1299,631,ls),
(1299,607,o),
(1296,598,o),
(1259,598,cs),
(374,598,ls),
(339,598,o),
(338,602,o),
(338,628,cs),
(338,800,ls),
(338,823,o),
(347,828,o),
(377,828,cs)
);
},
{
ref = T;
}
);
vertWidth = 0;
width = 1628;
},
{
layerId = "6A50D5EA-2B4A-4D44-BCCC-14A16F5631EA";
shapes = (
{
closed = 1;
nodes = (
(982,828,ls),
(1015,828,o),
(1019,824,o),
(1019,800,cs),
(1019,631,ls),
(1019,607,o),
(1016,598,o),
(979,598,cs),
(294,598,ls),
(259,598,o),
(258,602,o),
(258,628,cs),
(258,800,ls),
(258,823,o),
(267,828,o),
(297,828,cs)
);
},
{
ref = T;
}
);
vertWidth = 0;
width = 1250;
},
{
layerId = "5A070E73-1DB9-476B-9E26-8EFE8B60F44F";
shapes = (
{
closed = 1;
nodes = (
(766,820,ls),
(794,820,o),
(797,816,o),
(797,792,cs),
(797,743,ls),
(797,719,o),
(795,710,o),
(763,710,cs),
(362,710,ls),
(332,710,o),
(330,714,o),
(330,740,cs),
(330,792,ls),
(330,815,o),
(338,820,o),
(364,820,cs)
);
},
{
ref = T;
}
);
vertWidth = 0;
width = 1128;
}
);
unicode = 358;
},
{
glyphname = U;
kernLeft = kc0_5;
kernRight = kc0_4;
lastChange = "2022-07-21 13:13:41 +0000";
layers = (
{
anchors = (
{
name = "Anchor-0";
pos = (985,1500);
},
{
name = "Anchor-1";
pos = (696,0);
},
{
name = "Anchor-2";
pos = (696,0);
},
{
name = "Anchor-3";
pos = (821,0);
}
);
layerId = "C788331E-5670-44D3-9D66-EAA382172B0D";
shapes = (
{
closed = 1;
nodes = (
(412,620,ls),
(390,534,o),
(376,452,o),
(376,380,cs),
(376,210,o),
(452,90,o),
(682,90,cs),
(990,90,o),
(1148,256,o),
(1232,600,cs),
(1415,1350,ls),
(1423,1382,o),
(1423,1390,o),
(1379,1390,cs),
(1225,1390,ls),
(1196,1390,o),
(1194,1398,o),
(1194,1428,cs),
(1194,1470,ls),
(1194,1490,o),
(1195,1500,o),
(1215,1500,cs),
(1715,1500,ls),
(1751,1500,o),
(1764,1498,o),
(1764,1460,cs),
(1764,1424,ls),
(1764,1394,o),
(1755,1390,o),
(1727,1390,cs),
(1589,1390,ls),
(1543,1390,o),
(1544,1386,o),
(1535,1350,cs),
(1352,600,ls),
(1252,194,o),
(1048,-30,o),
(652,-30,cs),
(298,-30,o),
(180,134,o),
(180,364,cs),
(180,438,o),
(192,517,o),
(212,600,cs),
(395,1346,ls),
(404,1381,o),
(405,1390,o),
(361,1390,cs),
(231,1390,ls),
(198,1390,o),
(194,1399,o),
(194,1430,cs),
(194,1468,ls),
(194,1497,o),
(201,1500,o),
(231,1500,cs),
(795,1500,ls),
(829,1500,o),
(834,1494,o),
(834,1458,cs),
(834,1420,ls),
(834,1396,o),
(828,1390,o),
(803,1390,cs),
(635,1390,ls),
(600,1390,o),
(603,1383,o),
(596,1356,cs)
);
}
);
vertWidth = 0;
width = 1664;
},
{
anchors = (
{
name = "Anchor-0";
pos = (1170,1500);
},
{
name = "Anchor-1";
pos = (866,0);
},
{
name = "Anchor-2";
pos = (866,0);
},
{
name = "Anchor-3";
pos = (1228,90);
}
);
layerId = "166B8CC3-B8B2-42DF-8AC5-58EF4CD93FB2";
shapes = (
{
closed = 1;
nodes = (
(698,620,ls),
(676,534,o),
(670,462,o),
(670,410,cs),
(670,320,o),
(718,236,o),
(868,236,cs),
(1036,236,o),
(1223,294,o),
(1298,600,cs),
(1439,1176,ls),
(1450,1220,o),
(1453,1230,o),
(1398,1230,cs),
(1290,1230,ls),
(1240,1230,o),
(1240,1240,o),
(1240,1290,cs),
(1240,1448,ls),
(1240,1489,o),
(1241,1500,o),
(1282,1500,cs),
(1910,1500,ls),
(1950,1500,o),
(1950,1490,o),
(1950,1450,cs),
(1950,1270,ls),
(1950,1237,o),
(1936,1230,o),
(1904,1230,cs),
(1782,1230,ls),
(1739,1230,o),
(1731,1225,o),
(1723,1192,cs),
(1578,600,ls),
(1469,156,o),
(1254,-50,o),
(798,-50,cs),
(364,-50,o),
(186,134,o),
(186,364,cs),
(186,438,o),
(198,517,o),
(218,600,cs),
(361,1184,ls),
(371,1223,o),
(368,1230,o),
(316,1230,cs),
(206,1230,ls),
(167,1230,o),
(160,1237,o),
(160,1278,cs),
(160,1457,ls),
(160,1494,o),
(171,1500,o),
(206,1500,cs),
(1030,1500,ls),
(1085,1500,o),
(1100,1496,o),
(1100,1437,cs),
(1100,1280,ls),
(1100,1236,o),
(1092,1230,o),
(1050,1230,cs),
(916,1230,ls),
(850,1230,o),
(849,1227,o),
(836,1174,cs)
);
}
);
vertWidth = 0;
width = 1830;
},
{
anchors = (
{
name = "Anchor-0";
pos = (915,1500);
},
{
name = "Anchor-1";
pos = (546,0);
},
{
name = "Anchor-2";
pos = (821,80);
},
{
name = "Anchor-3";
pos = (821,80);
}
);
layerId = "6A50D5EA-2B4A-4D44-BCCC-14A16F5631EA";
shapes = (
{
closed = 1;
nodes = (
(614,660,ls),
(589,550,o),
(572,461,o),
(572,396,cs),
(572,301,o),
(607,254,o),
(700,254,cs),
(818,254,o),
(876,348,o),
(932,600,cs),
(1060,1179,ls),
(1068,1216,o),
(1061,1230,o),
(1016,1230,cs),
(1010,1230,ls),
(962,1230,o),
(950,1242,o),
(950,1287,cs),
(950,1427,ls),
(950,1481,o),
(952,1500,o),
(1006,1500,cs),
(1442,1500,ls),
(1485,1500,o),
(1490,1491,o),
(1490,1446,cs),
(1490,1285,ls),
(1490,1237,o),
(1483,1230,o),
(1443,1230,cs),
(1432,1230,ls),
(1380,1230,o),
(1352,1220,o),
(1340,1169,cs),
(1210,600,ls),
(1117,191,o),
(926,-40,o),
(550,-40,cs),
(191,-40,o),
(96,105,o),
(96,308,cs),
(96,402,o),
(116,509,o),
(140,620,cs),
(260,1179,l),
(266,1214,o),
(266,1230,o),
(226,1230,cs),
(220,1230,ls),
(181,1230,o),
(170,1232,o),
(170,1281,cs),
(170,1437,ls),
(170,1486,o),
(177,1500,o),
(224,1500,cs),
(848,1500,ls),
(885,1500,o),
(890,1491,o),
(890,1452,cs),
(890,1279,ls),
(890,1239,o),
(884,1230,o),
(841,1230,cs),
(816,1230,ls),
(762,1230,o),
(742,1216,o),
(730,1164,cs)
);
}
);
vertWidth = 0;
width = 1340;
},
{
anchors = (
{
name = "Anchor-0";
pos = (765,1500);
},
{
name = "Anchor-1";
pos = (336,0);
},
{
name = "Anchor-2";
pos = (336,0);
},
{
name = "Anchor-3";
pos = (461,0);
}
);
layerId = "5A070E73-1DB9-476B-9E26-8EFE8B60F44F";
shapes = (
{
closed = 1;
nodes = (
(292,620,ls),
(270,534,o),
(245,422,o),
(245,320,cs),
(245,180,o),
(292,90,o),
(462,90,cs),
(660,90,o),
(728,256,o),
(812,600,cs),
(995,1350,ls),
(1003,1382,o),
(1003,1390,o),
(959,1390,cs),
(905,1390,ls),
(876,1390,o),
(874,1398,o),
(874,1428,cs),
(874,1470,ls),
(874,1490,o),
(875,1500,o),
(895,1500,cs),
(1185,1500,ls),
(1221,1500,o),
(1234,1498,o),
(1234,1460,cs),
(1234,1424,ls),
(1234,1394,o),
(1225,1390,o),
(1197,1390,cs),
(1169,1390,ls),
(1123,1390,o),
(1124,1386,o),
(1115,1350,cs),
(932,600,ls),
(819.066,137.156,o),
(718,-30,o),
(432,-30,cs),
(158,-30,o),
(47,124,o),
(47,304,cs),
(47,378,o),
(72,517,o),
(92,600,cs),
(275,1346,ls),
(284,1381,o),
(285,1390,o),
(241,1390,cs),
(211,1390,ls),
(178,1390,o),
(174,1399,o),
(174,1430,cs),
(174,1468,ls),
(174,1497,o),
(181,1500,o),
(211,1500,cs),
(575,1500,ls),
(609,1500,o),
(614,1494,o),
(614,1458,cs),
(614,1420,ls),
(614,1396,o),
(608,1390,o),
(583,1390,cs),
(515,1390,ls),
(480,1390,o),
(483,1383,o),
(476,1356,cs)
);
}
);
vertWidth = 0;
width = 1130;
},
{
associatedMasterId = "5A070E73-1DB9-476B-9E26-8EFE8B60F44F";
layerId = "A294635F-B589-4518-A49D-2AA6CD9AC971";
name = Back;
shapes = (
{
closed = 1;
nodes = (
(893,1390,ls),
(868,1390,o),
(864,1396,o),
(870,1423,cs),
(879,1461,ls),
(887,1495,o),
(896,1500,o),
(928,1500,cs),
(1224,1500,ls),
(1258,1500,o),
(1267,1497,o),
(1259,1461,cs),
(1251,1427,ls),
(1243,1393,o),
(1233,1390,o),
(1211,1390,cs),
(1167,1390,ls),
(1130,1390,o),
(1123,1387,o),
(1115,1351,cs),
(948,600,ls),
(853,170,o),
(714,-30,o),
(378,-30,cs),
(32,-30,o),
(27,234,o),
(108,600,cs),
(274,1349,ls),
(282,1387,o),
(268,1390,o),
(233,1390,cs),
(197,1390,ls),
(164,1390,o),
(165,1399,o),
(173,1433,cs),
(180,1465,ls),
(187,1497,o),
(200,1500,o),
(230,1500,cs),
(582,1500,ls),
(614,1500,o),
(627,1498,o),
(619,1463,cs),
(613,1435,ls),
(604,1394,o),
(594,1390,o),
(555,1390,cs),
(523,1390,ls),
(480,1390,o),
(472,1387,o),
(463,1345,cs),
(302,620,ls),
(235,316,o),
(197,90,o),
(435,90,cs),
(673,90,o),
(747,236,o),
(828,600,cs),
(993,1345,ls),
(1002,1384,o),
(999,1390,o),
(961,1390,cs)
);
}
);
vertWidth = 0;
width = 1130;
}
);
unicode = 85;
},
{
glyphname = V;
kernLeft = kc0_6;
kernRight = kc0_7;
lastChange = "2022-07-21 13:13:41 +0000";
layers = (
{
anchors = (
{
name = "Anchor-0";
pos = (1015,1500);
},
{
name = "Anchor-1";
pos = (682,0);
},
{
name = "Anchor-2";
pos = (682,0);
}
);
layerId = "C788331E-5670-44D3-9D66-EAA382172B0D";
shapes = (
{
closed = 1;
nodes = (
(348,1351,ls),
(342,1382,o),
(337,1390,o),
(297,1390,cs),
(175,1390,ls),
(144,1390,o),
(140,1400,o),
(140,1429,cs),
(140,1465,ls),
(140,1499,o),
(149,1500,o),
(183,1500,cs),
(743,1500,ls),
(779,1500,o),
(780,1491,o),
(780,1455,cs),
(780,1425,ls),
(780,1393,o),
(772,1390,o),
(739,1390,cs),
(595,1390,ls),
(557,1390,o),
(555,1383,o),
(561,1349,cs),
(723,369,ls),
(739,270,o),
(737,232,o),
(752,232,cs),
(771,232,o),
(811,291,o),
(857,365,cs),
(1478,1354,ls),
(1498,1387,o),
(1490,1390,o),
(1443,1390,cs),
(1319,1390,ls),
(1289,1390,o),
(1280,1391,o),
(1280,1421,cs),
(1280,1473,ls),
(1280,1499,o),
(1289,1500,o),
(1315,1500,cs),
(1799,1500,ls),
(1827,1500,o),
(1840,1498,o),
(1840,1467,cs),
(1840,1433,ls),
(1840,1398,o),
(1837,1390,o),
(1803,1390,cs),
(1689,1390,ls),
(1643,1390,o),
(1638,1386,o),
(1621,1359,cs),
(766,5,ls),
(750,-20,o),
(740,-30,o),
(697,-30,cs),
(659,-30,ls),
(615,-30,o),
(609,-23,o),
(602,13,cs)
);
}
);
vertWidth = 0;
width = 1690;
},
{
anchors = (
{
name = "Anchor-0";
pos = (1330,1500);
},
{
name = "Anchor-1";
pos = (832,0);
},
{
name = "Anchor-2";
pos = (832,0);
}
);
layerId = "166B8CC3-B8B2-42DF-8AC5-58EF4CD93FB2";
shapes = (
{
closed = 1;
nodes = (
(345,1180,ls),
(337,1219,o),
(333,1230,o),
(284,1230,cs),
(170,1230,ls),
(121,1230,o),
(120,1239,o),
(120,1288,cs),
(120,1449,ls),
(120,1497,o),
(135,1500,o),
(180,1500,cs),
(1062,1500,ls),
(1099,1500,o),
(1110,1496,o),
(1110,1456,cs),
(1110,1272,ls),
(1110,1238,o),
(1104,1230,o),
(1068,1230,cs),
(898,1230,ls),
(852,1230,o),
(852,1222,o),
(859,1182,cs),
(957,586,ls),
(971,499,o),
(961,436,o),
(984,436,cs),
(1009,436,o),
(1026,489,o),
(1067,552,cs),
(1475,1184,ls),
(1503,1227,o),
(1504,1230,o),
(1430,1230,cs),
(1390,1230,ls),
(1345,1230,o),
(1340,1240,o),
(1340,1282,cs),
(1340,1440,ls),
(1340,1489,o),
(1341,1500,o),
(1390,1500,cs),
(1980,1500,ls),
(2013,1500,o),
(2020,1494,o),
(2020,1459,cs),
(2020,1281,ls),
(2020,1236,o),
(2014,1230,o),
(1970,1230,cs),
(1880,1230,ls),
(1833,1230,o),
(1828,1227,o),
(1810,1200,cs),
(1017,10,ls),
(996,-21,o),
(984,-30,o),
(930,-30,cs),
(644,-30,ls),
(595,-30,o),
(589,-23,o),
(581,16,cs)
);
}
);
vertWidth = 0;
width = 1850;
},
{
anchors = (
{
name = "Anchor-0";
pos = (995,1500);
},
{
name = "Anchor-1";
pos = (582,0);
},
{
name = "Anchor-2";
pos = (582,0);
}
);
layerId = "6A50D5EA-2B4A-4D44-BCCC-14A16F5631EA";
shapes = (
{
closed = 1;
nodes = (
(282,1169,ls),
(281,1207,o),
(272,1230,o),
(215,1230,cs),
(213,1230,ls),
(178,1230,o),
(160,1230,o),
(160,1269,cs),
(160,1455,ls),
(160,1495,o),
(166,1500,o),
(205,1500,cs),
(889,1500,ls),
(929,1500,o),
(940,1491,o),
(940,1451,cs),
(940,1273,ls),
(940,1235,o),
(934,1230,o),
(897,1230,cs),
(883,1230,ls),
(825,1230,o),
(807,1219,o),
(804,1181,cs),
(756,497,ls),
(755,479,o),
(755,470,o),
(767,470,cs),
(788,470,o),
(793,482,o),
(801,501,cs),
(1082,1187,ls),
(1095,1219,o),
(1095,1230,o),
(1079,1230,cs),
(1075,1230,ls),
(1053,1230,o),
(1050,1239,o),
(1050,1271,cs),
(1050,1463,ls),
(1050,1496,o),
(1060,1500,o),
(1091,1500,cs),
(1484,1500,ls),
(1540,1500,o),
(1550,1489,o),
(1550,1433,cs),
(1550,1279,ls),
(1550,1245,o),
(1542,1230,o),
(1504,1230,cs),
(1419,1230,ls),
(1386,1230,o),
(1379,1215,o),
(1369,1193,cs),
(842,23,ls),
(828,-8,o),
(825,-10,o),
(779,-10,cs),
(379,-10,ls),
(342,-10,o),
(314,1,o),
(313,33,cs)
);
}
);
vertWidth = 0;
width = 1390;
},
{
anchors = (
{
name = "Anchor-0";
pos = (755,1500);
},
{
name = "Anchor-1";
pos = (442,20);
},
{
name = "Anchor-2";
pos = (442,20);
}
);
layerId = "5A070E73-1DB9-476B-9E26-8EFE8B60F44F";
shapes = (
{
closed = 1;
nodes = (
(268,1351,ls),
(262,1382,o),
(257,1390,o),
(217,1390,cs),
(185,1390,ls),
(154,1390,o),
(150,1400,o),
(150,1429,cs),
(150,1465,ls),
(150,1499,o),
(159,1500,o),
(193,1500,cs),
(573,1500,ls),
(609,1500,o),
(610,1491,o),
(610,1455,cs),
(610,1425,ls),
(610,1393,o),
(602,1390,o),
(569,1390,cs),
(515,1390,ls),
(477,1390,o),
(460.931,1383.012,o),
(461,1349,cs),
(499,299,ls),
(502.599,199.551,o),
(497,162,o),
(512,162,cs),
(531,162,o),
(549.981,216.751,o),
(587,295,cs),
(1088,1354,ls),
(1108,1387,o),
(1100,1390,o),
(1053,1390,cs),
(1039,1390,ls),
(1009,1390,o),
(1000,1391,o),
(1000,1421,cs),
(1000,1473,ls),
(1000,1499,o),
(1009,1500,o),
(1035,1500,cs),
(1319,1500,ls),
(1347,1500,o),
(1360,1498,o),
(1360,1467,cs),
(1360,1433,ls),
(1360,1398,o),
(1357,1390,o),
(1323,1390,cs),
(1299,1390,ls),
(1253,1390,o),
(1248,1386,o),
(1231,1359,cs),
(576,25,ls),
(560,0,o),
(550,-10,o),
(507,-10,cs),
(389,-10,ls),
(345,-10,o),
(339,-3,o),
(332,33,cs)
);
}
);
vertWidth = 0;
width = 1210;
},
{
associatedMasterId = "5A070E73-1DB9-476B-9E26-8EFE8B60F44F";
layerId = "33B17E71-EB04-4627-80F3-E7089FBCA1CE";
name = Back;
shapes = (
{
closed = 1;
nodes = (
(1096,1353,ls),
(1110,1382,o),
(1103,1390,o),
(1066,1390,cs),
(1006,1390,ls),
(990,1390,o),
(989,1397,o),
(993,1414,cs),
(1009,1485,ls),
(1011,1492,o),
(1017,1500,o),
(1031,1500,cs),
(1334,1500,ls),
(1372,1500,o),
(1371,1495,o),
(1364,1462,cs),
(1358,1434,ls),
(1352,1406,o),
(1343,1390,o),
(1313,1390,cs),
(1271,1390,ls),
(1249,1390,o),
(1238,1376,o),
(1230,1361,cs),
(564,4,ls),
(562,1,o),
(558,-10,o),
(546,-10,cs),
(355,-10,ls),
(339,-10,o),
(337,5,o),
(335,16,cs),
(270,1341,ls),
(267,1366,o),
(277,1390,o),
(239,1390,cs),
(172,1390,ls),
(154,1390,o),
(136,1383,o),
(142,1409,cs),
(155,1465,ls),
(161,1490,o),
(166,1500,o),
(188,1500,cs),
(598,1500,ls),
(640,1500,o),
(631,1495,o),
(622,1454,cs),
(618,1435,ls),
(609,1395,o),
(604,1390,o),
(569,1390,cs),
(521,1390,ls),
(468,1390,o),
(464,1380,o),
(465,1334,cs),
(503,194,ls),
(504,134,o),
(521,153,o),
(547,208,cs)
);
}
);
vertWidth = 0;
width = 1210;
}
);
unicode = 86;
},
{
glyphname = W;
kernLeft = kc0_6;
kernRight = kc0_7;
lastChange = "2022-07-21 13:13:41 +0000";
layers = (
{
anchors = (
{
name = "Anchor-0";
pos = (1385,1500);
},
{
name = "Anchor-1";
pos = (1026,0);
},
{
name = "Anchor-2";
pos = (1026,0);
}
);
layerId = "C788331E-5670-44D3-9D66-EAA382172B0D";
shapes = (
{
closed = 1;
nodes = (
(1227,1142,ls),
(1245,1172,o),
(1252,1185,o),
(1247,1232,cs),
(1233,1366,ls),
(1231,1387,o),
(1223,1390,o),
(1200,1390,cs),
(1076,1390,ls),
(1050,1390,o),
(1042,1393,o),
(1042,1418,cs),
(1042,1456,ls),
(1042,1495,o),
(1048,1500,o),
(1086,1500,cs),
(1574,1500,ls),
(1598,1500,o),
(1602,1493,o),
(1602,1468,cs),
(1602,1424,ls),
(1602,1393,o),
(1594,1390,o),
(1562,1390,cs),
(1466,1390,ls),
(1428,1390,o),
(1428,1386,o),
(1431,1351,cs),
(1512,466,ls),
(1524,335,o),
(1504,294,o),
(1532,294,cs),
(1555,294,o),
(1594,391,o),
(1632,462,cs),
(2112,1354,ls),
(2130,1388,o),
(2126,1390,o),
(2072,1390,cs),
(1974,1390,ls),
(1944,1390,o),
(1940,1398,o),
(1940,1426,cs),
(1940,1478,ls),
(1940,1500,o),
(1940,1500,o),
(1962,1500,cs),
(2448,1500,ls),
(2473,1500,o),
(2488,1498,o),
(2488,1470,cs),
(2488,1426,ls),
(2488,1400,o),
(2484,1390,o),
(2456,1390,cs),
(2286,1390,ls),
(2254,1390,o),
(2255,1384,o),
(2244,1364,cs),
(1522,10,ls),
(1512,-9,o),
(1503,-20,o),
(1472,-20,cs),
(1416,-20,ls),
(1381,-20,o),
(1372,-18,o),
(1369,14,cs),
(1289,812,ls),
(1279,909,o),
(1295,983,o),
(1263,983,cs),
(1237,983,o),
(1210,908,o),
(1158,820,cs),
(674,10,ls),
(660,-13,o),
(650,-20,o),
(612,-20,cs),
(558,-20,ls),
(527,-20,o),
(530,-16,o),
(526,10,cs),
(340,1356,ls),
(335,1389,o),
(325,1390,o),
(288,1390,cs),
(180,1390,ls),
(144,1390,o),
(140,1397,o),
(140,1434,cs),
(140,1466,ls),
(140,1492,o),
(143,1500,o),
(168,1500,cs),
(726,1500,ls),
(752,1500,o),
(760,1496,o),
(760,1468,cs),
(760,1435,ls),
(760,1400,o),
(759,1390,o),
(724,1390,cs),
(574,1390,ls),
(537,1390,o),
(535,1382,o),
(539,1352,cs),
(660,406,ls),
(671,323,o),
(658,262,o),
(690,262,cs),
(715,262,o),
(732,316,o),
(781,398,cs)
);
}
);
vertWidth = 0;
width = 2338;
},
{
anchors = (
{
name = "Anchor-0";
pos = (1630,1500);
},
{
name = "Anchor-1";
pos = (1216,0);
},
{
name = "Anchor-2";
pos = (1216,0);
}
);
layerId = "166B8CC3-B8B2-42DF-8AC5-58EF4CD93FB2";
shapes = (
{
closed = 1;
nodes = (
(1322,1100,ls),
(1338,1121,o),
(1361,1139,o),
(1357,1172,cs),
(1354,1200,ls),
(1351,1228,o),
(1352,1230,o),
(1320,1230,cs),
(1206,1230,ls),
(1169,1230,o),
(1162,1236,o),
(1162,1274,cs),
(1162,1426,ls),
(1162,1495,o),
(1168,1500,o),
(1236,1500,cs),
(1904,1500,ls),
(1946,1500,o),
(1962,1498,o),
(1962,1452,cs),
(1962,1282,ls),
(1962,1230,o),
(1952,1230,o),
(1900,1230,cs),
(1848,1230,ls),
(1799,1230,o),
(1801,1215,o),
(1806,1174,cs),
(1856,754,ls),
(1865,679,o),
(1847,591,o),
(1870,591,cs),
(1885,591,o),
(1900,627,o),
(1917,654,cs),
(2243,1172,ls),
(2275,1222,o),
(2294,1230,o),
(2206,1230,cs),
(2151,1230,ls),
(2104,1230,o),
(2100,1239,o),
(2100,1284,cs),
(2100,1458,ls),
(2100,1499,o),
(2109,1500,o),
(2150,1500,cs),
(2724,1500,ls),
(2781,1500,o),
(2788,1494,o),
(2788,1435,cs),
(2788,1278,ls),
(2788,1235,o),
(2782,1230,o),
(2738,1230,cs),
(2618,1230,ls),
(2571,1230,o),
(2571,1213,o),
(2554,1186,cs),
(1825,42,ls),
(1799,1,o),
(1790,-20,o),
(1718,-20,cs),
(1574,-20,ls),
(1507,-20,o),
(1492,-15,o),
(1485,48,cs),
(1424,582,ls),
(1412,688,o),
(1428,770,o),
(1404,770,cs),
(1391,770,o),
(1360,727,o),
(1319,672,cs),
(846,36,ls),
(814,-6,o),
(801,-20,o),
(722,-20,cs),
(576,-20,ls),
(506,-20,o),
(509,-14,o),
(501,46,cs),
(350,1140,ls),
(341,1206,o),
(353,1230,o),
(274,1230,cs),
(184,1230,ls),
(131,1230,o),
(120,1232,o),
(120,1288,cs),
(120,1436,ls),
(120,1491,o),
(121,1500,o),
(176,1500,cs),
(914,1500,ls),
(972,1500,o),
(1000,1496,o),
(1000,1432,cs),
(1000,1300,ls),
(1000,1250,o),
(998,1230,o),
(944,1230,cs),
(854,1230,ls),
(810,1230,o),
(807,1213,o),
(812,1176,cs),
(878,644,ls),
(889,559,o),
(878,529,o),
(894,529,cs),
(913,529,o),
(952,589,o),
(987,638,cs)
);
}
);
vertWidth = 0;
width = 2618;
},
{
anchors = (
{
name = "Anchor-0";
pos = (1265,1500);
},
{
name = "Anchor-1";
pos = (866,0);
},
{
name = "Anchor-2";
pos = (866,0);
}
);
layerId = "6A50D5EA-2B4A-4D44-BCCC-14A16F5631EA";
shapes = (
{
closed = 1;
nodes = (
(966,1092,ls),
(985,1127,o),
(994,1138,o),
(995,1162,cs),
(997,1210,ls),
(998,1227,o),
(988,1230,o),
(965,1230,cs),
(949,1230,ls),
(931,1230,o),
(930,1239,o),
(930,1278,cs),
(930,1435,ls),
(930,1489,o),
(931,1500,o),
(985,1500,cs),
(1453,1500,ls),
(1487,1500,o),
(1530,1498,o),
(1530,1460,cs),
(1530,1294,ls),
(1530,1251,o),
(1529,1230,o),
(1512,1230,cs),
(1470,1230,ls),
(1453,1230,o),
(1441,1211,o),
(1444,1178,cs),
(1456,1060,ls),
(1463,996,o),
(1453,893,o),
(1479,893,cs),
(1488,893,o),
(1508,913,o),
(1522,946,cs),
(1613,1164,ls),
(1632,1211,o),
(1643,1230,o),
(1619,1230,cs),
(1607,1230,ls),
(1592,1230,o),
(1580,1236,o),
(1580,1284,cs),
(1580,1442,ls),
(1580,1494,o),
(1587,1500,o),
(1637,1500,cs),
(2019,1500,ls),
(2060,1500,o),
(2080,1498,o),
(2080,1453,cs),
(2080,1272,ls),
(2080,1233,o),
(2071,1230,o),
(2031,1230,cs),
(1983,1230,ls),
(1923,1230,o),
(1921,1213,o),
(1903,1172,cs),
(1383,18,ls),
(1367,-17,o),
(1365,-20,o),
(1316,-20,cs),
(1073,-20,ls),
(1017,-20,o),
(1011,-11,o),
(1014,32,cs),
(1053,608,ls),
(1056,659,o),
(1065,693,o),
(1023,693,cs),
(993,693,o),
(985,662,o),
(970,628,cs),
(705,28,ls),
(689,-8,o),
(672,-20,o),
(624,-20,cs),
(392,-20,ls),
(349,-20,o),
(335,-11,o),
(333,26,cs),
(268,1176,ls),
(265,1225,o),
(261,1230,o),
(213,1230,cs),
(207,1230,ls),
(167,1230,o),
(160,1235,o),
(160,1276,cs),
(160,1448,ls),
(160,1498,o),
(176,1500,o),
(223,1500,cs),
(791,1500,ls),
(844,1500,o),
(860,1499,o),
(860,1442,cs),
(860,1290,ls),
(860,1239,o),
(848,1230,o),
(817,1230,cs),
(813,1230,ls),
(785,1230,o),
(783,1221,o),
(785,1196,cs),
(797,1024,ls),
(801,964,o),
(800,882,o),
(824,882,cs),
(845,882,o),
(864,905,o),
(881,936,cs)
);
}
);
vertWidth = 0;
width = 1920;
},
{
anchors = (
{
name = "Anchor-0";
pos = (1035,1500);
},
{
name = "Anchor-1";
pos = (816,0);
},
{
name = "Anchor-2";
pos = (816,0);
}
);
layerId = "5A070E73-1DB9-476B-9E26-8EFE8B60F44F";
shapes = (
{
closed = 1;
nodes = (
(877,1142,ls),
(891.488,1173.61,o),
(902,1185,o),
(897,1232,cs),
(893,1366,ls),
(891,1387,o),
(883,1390,o),
(860,1390,cs),
(851,1390,ls),
(825,1390,o),
(817,1393,o),
(817,1418,cs),
(817,1456,ls),
(817,1495,o),
(823,1500,o),
(861,1500,cs),
(1174,1500,ls),
(1198,1500,o),
(1202,1493,o),
(1202,1468,cs),
(1202,1424,ls),
(1202,1393,o),
(1194,1390,o),
(1162,1390,cs),
(1136,1390,ls),
(1108,1390,o),
(1091.515,1385.948,o),
(1091,1351,cs),
(1079,536,ls),
(1077.074,405.205,o),
(1064,364,o),
(1092,364,cs),
(1115,364,o),
(1136.371,457.951,o),
(1167,532,cs),
(1512,1354,ls),
(1530,1388,o),
(1516,1390,o),
(1492,1390,cs),
(1464,1390,ls),
(1434,1390,o),
(1430,1398,o),
(1430,1426,cs),
(1430,1478,ls),
(1430,1500,o),
(1430,1500,o),
(1452,1500,cs),
(1708,1500,ls),
(1733,1500,o),
(1748,1498,o),
(1748,1470,cs),
(1748,1426,ls),
(1748,1400,o),
(1744,1390,o),
(1716,1390,cs),
(1686,1390,ls),
(1654,1390,o),
(1655,1384,o),
(1644,1364,cs),
(1073,10,ls),
(1063,-9,o),
(1054,-20,o),
(1023,-20,cs),
(946,-20,ls),
(911,-20,o),
(902,-18,o),
(899,14,cs),
(919,712,ls),
(909,809,o),
(935,883,o),
(903,883,cs),
(877,883,o),
(850.72,802.295,o),
(808,710,cs),
(484,10,ls),
(472.762,-14.279,o),
(460,-20,o),
(422,-20,cs),
(348,-20,ls),
(317,-20,o),
(320,-16,o),
(316,10,cs),
(280,1356,ls),
(275,1389,o),
(265,1390,o),
(228,1390,cs),
(220,1390,ls),
(184,1390,o),
(180,1397,o),
(180,1434,cs),
(180,1466,ls),
(180,1492,o),
(183,1500,o),
(208,1500,cs),
(566,1500,ls),
(592,1500,o),
(600,1496,o),
(600,1468,cs),
(600,1435,ls),
(600,1400,o),
(599,1390,o),
(564,1390,cs),
(514,1390,ls),
(477,1390,o),
(475,1382,o),
(479,1352,cs),
(491,526,ls),
(502,443,o),
(478,382,o),
(510,382,cs),
(535,382,o),
(551.435,431.676,o),
(591,518,cs)
);
}
);
vertWidth = 0;
width = 1680;
},
{
associatedMasterId = "5A070E73-1DB9-476B-9E26-8EFE8B60F44F";
layerId = "F7412078-5732-4FC4-9E78-0EB2BC617E8C";
name = Back;
shapes = (
{
closed = 1;
nodes = (
(875,1146,ls),
(894,1190,o),
(894,1212,o),
(897,1240,cs),
(894,1352,ls),
(894,1384,o),
(883,1390,o),
(843,1390,cs),
(855,1390,ls),
(820,1390,o),
(820,1398,o),
(828,1434,cs),
(832,1452,ls),
(842,1495,o),
(849,1500,o),
(890,1500,cs),
(1186,1500,ls),
(1217,1500,o),
(1221,1494,o),
(1214,1462,cs),
(1208,1436,ls),
(1198,1391,o),
(1178,1390,o),
(1167,1390,cs),
(1139,1390,ls),
(1116,1390,o),
(1093,1385,o),
(1092,1341,cs),
(1078,486,ls),
(1077,436,o),
(1062,364,o),
(1075,364,cs),
(1084,364,o),
(1097,370,o),
(1118,414,cs),
(1513,1358,ls),
(1529,1388,o),
(1515,1390,o),
(1503,1390,cs),
(1425,1390,ls),
(1410,1390,o),
(1410,1398,o),
(1418,1434,cs),
(1421,1450,ls),
(1430,1491,o),
(1435,1500,o),
(1476,1500,cs),
(1764,1500,ls),
(1804,1500,o),
(1812,1498,o),
(1803,1458,cs),
(1798,1434,ls),
(1789,1395,o),
(1781,1390,o),
(1743,1390,cs),
(1705,1390,ls),
(1662,1390,o),
(1658,1384,o),
(1646,1352,cs),
(1066,8,ls),
(1055,-19,o),
(1051,-20,o),
(1016,-20,cs),
(944,-20,ls),
(908,-20,o),
(896,-16,o),
(902,16,cs),
(921,826,ls),
(927,882,o),
(915,885,o),
(903,885,cs),
(884,886,o),
(866,851,o),
(846,796,cs),
(484,20,ls),
(475,-13,o),
(467,-20,o),
(422,-20,cs),
(360,-20,ls),
(322,-20,o),
(315,-7,o),
(315,20,cs),
(288,1350,ls),
(283,1383,o),
(275,1390,o),
(231,1390,cs),
(209,1390,ls),
(174,1390,o),
(169,1394,o),
(177,1428,cs),
(182,1454,ls),
(191,1494,o),
(197,1500,o),
(236,1500,cs),
(586,1500,ls),
(623,1500,o),
(638,1490,o),
(629,1450,cs),
(624,1425,ls),
(619,1404,o),
(600,1390,o),
(585,1390,cs),
(497,1390,ls),
(470,1390,o),
(475,1376,o),
(480,1338,cs),
(492,527,ls),
(498,464,o),
(483,375,o),
(506,375,cs),
(525,375,o),
(539,409,o),
(558,451,cs)
);
}
);
vertWidth = 0;
width = 1680;
}
);
unicode = 87;
},
{
glyphname = X;
kernLeft = kc0_11;
kernRight = kc0_12;
lastChange = "2022-07-21 13:13:41 +0000";
layers = (
{
anchors = (
{
name = "Anchor-0";
pos = (1055,1500);
},
{
name = "Anchor-1";
pos = (686,0);
},
{
name = "Anchor-2";
pos = (686,0);
}
);
layerId = "C788331E-5670-44D3-9D66-EAA382172B0D";
shapes = (
{
closed = 1;
nodes = (
(309,1390,ls),
(276,1390,o),
(270,1396,o),
(270,1428,cs),
(270,1462,ls),
(270,1494,o),
(276,1500,o),
(307,1500,cs),
(893,1500,ls),
(919,1500,o),
(930,1497,o),
(930,1468,cs),
(930,1428,ls),
(930,1396,o),
(924,1390,o),
(893,1390,cs),
(753,1390,ls),
(703,1390,o),
(693,1377,o),
(708,1350,cs),
(911,974,ls),
(931,938,o),
(933,920,o),
(956,920,cs),
(974,920,o),
(992,945,o),
(1029,981,cs),
(1407,1353,ls),
(1433,1378,o),
(1454,1390,o),
(1389,1390,cs),
(1271,1390,ls),
(1236,1390,o),
(1230,1394,o),
(1230,1428,cs),
(1230,1466,ls),
(1230,1497,o),
(1237,1500,o),
(1269,1500,cs),
(1795,1500,ls),
(1828,1500,o),
(1830,1492,o),
(1830,1458,cs),
(1830,1420,ls),
(1830,1391,o),
(1821,1390,o),
(1791,1390,cs),
(1649,1390,ls),
(1591,1390,o),
(1584,1380,o),
(1557,1353,cs),
(1071,878,ls),
(1033,841,o),
(1008,818,o),
(1008,794,cs),
(1008,766,o),
(1039,737,o),
(1068,684,cs),
(1349,162,ls),
(1366,130,o),
(1375,110,o),
(1427,110,cs),
(1547,110,ls),
(1578,110,o),
(1580,102,o),
(1580,70,cs),
(1580,50,ls),
(1580,5,o),
(1574,0,o),
(1531,0,cs),
(963,0,ls),
(930,0,o),
(920,1,o),
(920,34,cs),
(920,70,ls),
(920,104,o),
(926,110,o),
(959,110,cs),
(1081,110,ls),
(1140,110,o),
(1139,122,o),
(1121,156,cs),
(892,586,ls),
(867,634,o),
(866,664,o),
(850,664,cs),
(836,664,o),
(809,635,o),
(777,603,cs),
(313,144,ls),
(281,112,o),
(279,110,o),
(347,110,cs),
(435,110,ls),
(470,110,o),
(480,107,o),
(480,70,cs),
(480,34,ls),
(480,7,o),
(477,0,o),
(451,0,cs),
(-83,0,ls),
(-114,0,o),
(-120,4,o),
(-120,34,cs),
(-120,84,ls),
(-120,108,o),
(-112,110,o),
(-87,110,cs),
(65,110,ls),
(128,110,o),
(135,123,o),
(165,153,cs),
(713,698,ls),
(755,740,o),
(782,763,o),
(782,790,cs),
(782,817,o),
(753,847,o),
(724,902,cs),
(479,1362,ls),
(466,1387,o),
(454,1390,o),
(415,1390,cs)
);
}
);
vertWidth = 0;
width = 1740;
},
{
anchors = (
{
name = "Anchor-0";
pos = (1230,1500);
},
{
name = "Anchor-1";
pos = (706,0);
},
{
name = "Anchor-2";
pos = (706,0);
}
);
layerId = "166B8CC3-B8B2-42DF-8AC5-58EF4CD93FB2";
shapes = (
{
closed = 1;
nodes = (
(135,1230,ls),
(73,1230,o),
(70,1239,o),
(70,1299,cs),
(70,1454,ls),
(70,1497,o),
(94,1500,o),
(133,1500,cs),
(955,1500,ls),
(1005,1500,o),
(1010,1494,o),
(1010,1443,cs),
(1010,1291,ls),
(1010,1241,o),
(1008,1230,o),
(955,1230,cs),
(877,1230,ls),
(815,1230,o),
(806,1227,o),
(841,1183,cs),
(947,1047,ls),
(973,1014,o),
(976,987,o),
(993,987,cs),
(1012,987,o),
(1041,1015,o),
(1081,1048,cs),
(1251,1189,ls),
(1278,1211,o),
(1316,1230,o),
(1243,1230,cs),
(1199,1230,ls),
(1150,1230,o),
(1150,1230,o),
(1150,1279,cs),
(1150,1435,ls),
(1150,1493,o),
(1154,1500,o),
(1211,1500,cs),
(1797,1500,ls),
(1852,1500,o),
(1870,1498,o),
(1870,1439,cs),
(1870,1299,ls),
(1870,1239,o),
(1867,1230,o),
(1805,1230,cs),
(1741,1230,ls),
(1678,1230,o),
(1661,1224,o),
(1629,1197,cs),
(1245,880,ls),
(1192,836,o),
(1156,805,o),
(1156,780,cs),
(1156,758,o),
(1186,742,o),
(1224,693,cs),
(1523,311,ls),
(1546,281,o),
(1559,270,o),
(1615,270,cs),
(1737,270,ls),
(1778,270,o),
(1778,260,o),
(1778,219,cs),
(1778,51,ls),
(1778,2,o),
(1768,0,o),
(1719,0,cs),
(851,0,ls),
(812,0,o),
(798,3,o),
(798,45,cs),
(798,223,ls),
(798,270,o),
(808,270,o),
(855,270,cs),
(973,270,ls),
(1021,270,o),
(1005,296,o),
(979,329,cs),
(849,497,ls),
(818,537,o),
(809,568,o),
(792,568,cs),
(773,568,o),
(746,547,o),
(705,512,cs),
(505,342,ls),
(478,319,o),
(432,270,o),
(477,270,cs),
(511,270,ls),
(549,270,o),
(560,268,o),
(560,227,cs),
(560,75,ls),
(560,9,o),
(545,0,o),
(483,0,cs),
(-105,0,ls),
(-155,0,o),
(-180,2,o),
(-180,57,cs),
(-180,195,ls),
(-180,255,o),
(-178,270,o),
(-114,270,cs),
(-13,270,ls),
(44,270,o),
(54,279,o),
(83,304,cs),
(541,697,ls),
(587,737,o),
(618,761,o),
(618,786,cs),
(618,818,o),
(577,848,o),
(530,909,cs),
(321,1179,ls),
(293,1216,o),
(290,1230,o),
(221,1230,cs)
);
}
);
vertWidth = 0;
width = 1700;
},
{
anchors = (
{
name = "Anchor-0";
pos = (935,1500);
},
{
name = "Anchor-1";
pos = (506,0);
},
{
name = "Anchor-2";
pos = (506,0);
}
);
layerId = "6A50D5EA-2B4A-4D44-BCCC-14A16F5631EA";
shapes = (
{
closed = 1;
nodes = (
(226,1230,ls),
(196,1230,o),
(180,1236,o),
(180,1288,cs),
(180,1431,ls),
(180,1489,o),
(182,1500,o),
(240,1500,cs),
(862,1500,ls),
(907,1500,o),
(920,1496,o),
(920,1448,cs),
(920,1280,ls),
(920,1240,o),
(918,1230,o),
(878,1230,cs),
(846,1230,ls),
(803,1230,o),
(806,1209,o),
(813,1181,cs),
(837,1069,ls),
(841,1050,o),
(847,1041,o),
(854,1041,cs),
(866,1041,o),
(882,1060,o),
(901,1087,cs),
(975,1187,ls),
(997,1221,o),
(1000,1230,o),
(978,1230,cs),
(976,1230,ls),
(952,1230,o),
(950,1243,o),
(950,1255,cs),
(950,1446,ls),
(950,1492,o),
(953,1500,o),
(998,1500,cs),
(1466,1500,ls),
(1495,1500,o),
(1500,1492,o),
(1500,1461,cs),
(1500,1275,ls),
(1500,1232,o),
(1492,1230,o),
(1448,1230,cs),
(1400,1230,ls),
(1352,1230,o),
(1342,1221,o),
(1328,1204,cs),
(1034,846,ls),
(1021,830,o),
(1015,816,o),
(1015,798,cs),
(1015,781,o),
(1021,761,o),
(1032,731,cs),
(1183,307,ls),
(1194,275,o),
(1213,270,o),
(1236,270,cs),
(1246,270,ls),
(1275,270,o),
(1280,263,o),
(1280,225,cs),
(1280,43,ls),
(1280,2,o),
(1272,0,o),
(1230,0,cs),
(596,0,ls),
(552,0,o),
(540,1,o),
(540,45,cs),
(540,222,ls),
(540,260,o),
(542,270,o),
(560,270,cs),
(574,270,ls),
(610,270,o),
(626,291,o),
(616,329,cs),
(584,454,ls),
(581,466,o),
(576,471,o),
(570,471,cs),
(565,471,o),
(559,467,o),
(554,461,cs),
(435,317,ls),
(410,287,o),
(408,270,o),
(434,270,cs),
(442,270,ls),
(464,270,o),
(470,260,o),
(470,215,cs),
(470,79,ls),
(470,18,o),
(453,0,o),
(396,0,cs),
(-42,0,ls),
(-89,0,o),
(-90,11,o),
(-90,59,cs),
(-90,211,ls),
(-90,258,o),
(-89,270,o),
(-42,270,cs),
(0,270,ls),
(55,270,o),
(65,278,o),
(88,305,cs),
(386,658,ls),
(410,687,o),
(419,708,o),
(419,732,cs),
(419,749,o),
(413,767,o),
(406,791,cs),
(283,1181,ls),
(271,1219,o),
(250,1230,o),
(236,1230,cs)
);
}
);
vertWidth = 0;
width = 1370;
},
{
anchors = (
{
name = "Anchor-0";
pos = (795,1500);
},
{
name = "Anchor-1";
pos = (456,0);
},
{
name = "Anchor-2";
pos = (456,0);
}
);
layerId = "5A070E73-1DB9-476B-9E26-8EFE8B60F44F";
shapes = (
{
closed = 1;
nodes = (
(256,1390,ls),
(225,1390,o),
(210,1392,o),
(210,1426,cs),
(210,1468,ls),
(210,1494,o),
(215,1500,o),
(240,1500,cs),
(637,1500,ls),
(660,1500,o),
(670,1499,o),
(670,1476,cs),
(670,1421,ls),
(670,1396,o),
(665,1390,o),
(641,1390,cs),
(577,1390,ls),
(549,1390,o),
(541,1387,o),
(548,1361,cs),
(660,942,ls),
(666,920,o),
(669.945,909,o),
(679,909,cs),
(687,909,o),
(697,920,o),
(713,942,cs),
(1015,1358,ls),
(1030,1378,o),
(1025,1390,o),
(995,1390,cs),
(920,1390,ls),
(910,1390,o),
(900,1390,o),
(900,1420,cs),
(900,1469,ls),
(900,1495,o),
(907,1500,o),
(931,1500,cs),
(1255,1500,ls),
(1290,1500,o),
(1300,1497,o),
(1300,1459,cs),
(1300,1421,ls),
(1300,1395,o),
(1292,1390,o),
(1267,1390,cs),
(1211,1390,ls),
(1175,1390,o),
(1162,1382,o),
(1148,1362,cs),
(781,859,ls),
(758,827,o),
(745,804,o),
(745,775,cs),
(745,761,o),
(749,745,o),
(755,727,cs),
(959,148,ls),
(974,115,o),
(995,110,o),
(1029,110,cs),
(1071,110,ls),
(1090,110,o),
(1100,106,o),
(1100,75,cs),
(1100,38,ls),
(1100,8,o),
(1097,0,o),
(1068,0,cs),
(671,0,ls),
(647,0,o),
(640,4,o),
(640,27,cs),
(640,79,ls),
(640,106,o),
(651,110,o),
(656,110,cs),
(734,110,ls),
(747,110,o),
(753,124,o),
(744,141,cs),
(603,583,ls),
(595,607,o),
(590,618,o),
(582,618,cs),
(573.938,618,o),
(564,606,o),
(545,583,cs),
(198,154,ls),
(177,119,o),
(206,110,o),
(226,110,cs),
(256,110,ls),
(283,110,o),
(290,106,o),
(290,79,cs),
(290,32,ls),
(290,7,o),
(286,0,o),
(262,0,cs),
(-90,0,ls),
(-116,0,o),
(-120,7,o),
(-120,34,cs),
(-120,87,ls),
(-120,105,o),
(-111,110,o),
(-95,110,cs),
(-37,110,ls),
(10,110,o),
(24,117,o),
(44,141,cs),
(503,697,ls),
(517,714,o),
(524,733,o),
(524,755,cs),
(524,773,o),
(520,793,o),
(512,817,cs),
(337,1360,ls),
(328,1386,o),
(318,1390,o),
(306,1390,cs)
);
}
);
vertWidth = 0;
width = 1250;
},
{
associatedMasterId = "5A070E73-1DB9-476B-9E26-8EFE8B60F44F";
layerId = "03DB4CE1-C68A-44E6-B085-6AE806FA71E4";
name = Back;
shapes = (
{
closed = 1;
nodes = (
(-141,87,ls),
(-137,105,o),
(-127,110,o),
(-111,110,cs),
(-43,110,ls),
(4,110,o),
(16,112,o),
(35,141,cs),
(498,697,ls),
(531,740,o),
(525,776,o),
(513,817,cs),
(339,1360,ls),
(332,1385,o),
(326,1390,o),
(314,1390,cs),
(264,1390,ls),
(233,1390,o),
(218,1392,o),
(226,1426,cs),
(235,1468,ls),
(241,1494,o),
(248,1500,o),
(273,1500,cs),
(670,1500,ls),
(693,1500,o),
(702,1499,o),
(697,1476,cs),
(685,1421,ls),
(679,1396,o),
(673,1390,o),
(649,1390,cs),
(585,1390,ls),
(557,1390,o),
(543,1385,o),
(550,1361,cs),
(665,930,ls),
(685,875,o),
(671,873,o),
(718,930,cs),
(1026,1358,ls),
(1042,1381,o),
(1043,1390,o),
(1013,1390,cs),
(928,1390,ls),
(918,1390,o),
(908,1390,o),
(915,1420,cs),
(926,1469,ls),
(932,1495,o),
(940,1500,o),
(964,1500,cs),
(1288,1500,ls),
(1323,1500,o),
(1331,1497,o),
(1323,1459,cs),
(1315,1421,ls),
(1309,1395,o),
(1300,1390,o),
(1275,1390,cs),
(1209,1390,ls),
(1173,1390,o),
(1166,1384,o),
(1150,1362,cs),
(781,859,ls),
(751,808,o),
(725,800,o),
(746,727,cs),
(962,148,ls),
(970,115,o),
(989,110,o),
(1023,110,cs),
(1065,110,ls),
(1084,110,o),
(1094,106,o),
(1087,75,cs),
(1078,38,ls),
(1071,8,o),
(1067,0,o),
(1038,0,cs),
(641,0,ls),
(617,0,o),
(611,4,o),
(616,27,cs),
(628,79,ls),
(634,106,o),
(645,110,o),
(650,110,cs),
(748,110,ls),
(761,110,o),
(750,124,o),
(745,141,cs),
(597,601,ls),
(579,655,o),
(578,648,o),
(539,601,cs),
(174,154,ls),
(145,119,o),
(172,110,o),
(192,110,cs),
(260,110,ls),
(267,110,o),
(274,106,o),
(268,79,cs),
(257,32,ls),
(251,7,o),
(246,0,o),
(222,0,cs),
(-130,0,ls),
(-156,0,o),
(-158,7,o),
(-152,34,cs)
);
}
);
vertWidth = 0;
width = 1250;
}
);
unicode = 88;
},
